<svg width="200" height="57" viewBox="0 0 200 57" fill="none" xmlns="http://www.w3.org/2000/svg">
<path fill-rule="evenodd" clip-rule="evenodd" d="M44.6826 43.9871C48.4895 39.4629 51.3489 33.4673 51.3489 25.6744C51.3489 18.5849 48.475 12.1665 43.8287 7.52016C39.1824 2.87434 32.764 0 25.6744 0C18.5849 0 12.166 2.87382 7.52016 7.52016C2.87434 12.1665 0 18.5849 0 25.6744C0 33.4673 2.85933 39.4629 6.66624 43.9871C14.1393 52.8673 25.4229 56.048 25.6739 56.048C25.9259 56.048 37.2096 52.8673 44.6826 43.9871ZM25.6749 54.615C25.4426 54.615 14.9125 51.5693 7.75874 43.069C4.14641 38.7761 1.43355 33.0833 1.43355 25.6744C1.43355 18.9808 4.14745 12.92 8.53347 8.53348C12.92 4.14693 18.9808 1.43355 25.6744 1.43355C32.3681 1.43355 38.4283 4.14693 42.8154 8.53348C47.2019 12.92 49.9153 18.9808 49.9153 25.6744C49.9153 33.0833 47.203 38.7761 43.5906 43.069C36.4374 51.5698 25.9073 54.615 25.6749 54.615Z" transform="translate(0.112303 0.27791)" fill="white"/>
<path fill-rule="evenodd" clip-rule="evenodd" d="M28.5876 13.0722V10.1337V9.41689V9.41637V8.70012V5.78335V5.06657V4.3498V0.716772V0H27.8708H20.2176H19.5009H19.5004H18.7836H11.8477H11.1309H11.1304H10.4136H2.76048H2.04371V0.716772V4.3498V5.06657V5.78335V8.70012V9.41637V9.41689V10.1337V13.0717L0.783016 13.2248L0 13.3201L0.169748 14.0901L1.09871 18.2997C1.58518 18.7691 2.16636 19.1634 2.81637 19.4579L1.73371 14.5523L15.3141 12.9071V20.0536H15.3151C17.2988 20.0536 19.0537 19.223 20.1674 17.9462C21.276 19.223 23.034 20.0536 25.0156 20.0536C26.0253 20.0536 26.9755 19.8357 27.8128 19.4553L27.8123 19.4584C27.8253 19.4527 27.8367 19.4455 27.8496 19.4398C27.965 19.3865 28.0768 19.3285 28.187 19.2695C28.2238 19.2499 28.2621 19.2323 28.2983 19.2121C28.438 19.1334 28.5741 19.0506 28.7056 18.9626L28.7061 18.9611C29.0032 18.7629 29.2795 18.5419 29.53 18.3002L30.459 14.0901L30.6287 13.3201L29.8457 13.2248L28.5876 13.0722ZM10.4147 12.0583L3.47829 12.8983V10.1337H10.4147V12.0583ZM10.4147 4.35084H3.47829V1.43406H10.4147V4.35084ZM18.7841 11.8844L15.4 11.4746L15.3162 11.4647L15.2323 11.4746L11.8487 11.8844V10.1342H18.7846V11.8844H18.7841ZM18.7841 8.70063H11.8482V5.78438H18.7841V8.70063ZM18.7841 4.35084H11.8482V1.43406H18.7841V4.35084ZM27.154 12.8988L20.2176 12.0583V10.1337H27.154V12.8988ZM27.154 8.70063H20.2176V5.78438H27.154V8.70063Z" transform="translate(10.4711 15.5879)" fill="white"/>
<path fill-rule="evenodd" clip-rule="evenodd" d="M7.80583 1.36937C7.07871 1.68558 6.25792 1.86464 5.39054 1.86464V1.86154C4.51748 1.86154 3.69772 1.68403 2.97525 1.36937C2.22588 1.04333 1.57742 0.571348 1.08059 0L0 0.934651C0.637074 1.66695 1.45994 2.26831 2.40442 2.67923C3.30802 3.07203 4.32289 3.29457 5.39106 3.29457V3.29146C6.46389 3.29146 7.47824 3.07048 8.3777 2.67871C9.32218 2.2678 10.145 1.66643 10.7811 0.934651L9.70049 0C9.20315 0.571865 8.55573 1.04333 7.80583 1.36937Z" transform="translate(20.3967 46.8376)" fill="white"/>
<path fill-rule="evenodd" clip-rule="evenodd" d="M27.2094 1.98833C26.4869 2.30195 25.6667 2.47946 24.7931 2.47946C23.92 2.47946 23.1003 2.30195 22.3778 1.98833C21.6289 1.66229 20.9815 1.19134 20.4857 0.62103L19.9465 0.000517525L19.4077 0.618443C18.9078 1.19238 18.2588 1.66436 17.5115 1.98937H17.5089C16.7864 2.30351 15.9667 2.4805 15.0931 2.4805C14.22 2.4805 13.4013 2.30299 12.6789 1.98937C11.9284 1.66333 11.2789 1.19134 10.7785 0.618443L10.2387 0L9.70101 0.618443C9.2016 1.19186 8.55366 1.66436 7.80635 1.98885C7.08389 2.30247 6.26413 2.47998 5.39106 2.47998C4.51696 2.47998 3.69668 2.30299 2.97422 1.98988L2.97474 1.98885C2.22795 1.66436 1.57949 1.19238 1.08059 0.618443L0 1.5593C0.633968 2.28798 1.45683 2.88727 2.40442 3.29922H2.40701C3.31113 3.69203 4.32496 3.91353 5.39158 3.91353C6.45975 3.91353 7.47358 3.69151 8.3777 3.29922C9.07584 2.99544 9.70619 2.59021 10.2434 2.10633C10.7821 2.59125 11.412 2.99699 12.108 3.29974C13.0111 3.69254 14.0244 3.91404 15.0926 3.91404C16.1613 3.91404 17.1756 3.69254 18.0792 3.29974L18.0782 3.29922C18.7758 2.99595 19.4062 2.59073 19.9439 2.10633C20.4811 2.59177 21.1104 2.99751 21.8059 3.29922C22.7095 3.69203 23.7244 3.91404 24.7926 3.91404C25.8613 3.91404 26.8761 3.69203 27.7797 3.29974C28.7273 2.88779 29.5497 2.2885 30.1841 1.55982L29.1036 0.61896C28.6047 1.19186 27.9562 1.66384 27.2094 1.98833Z" transform="translate(10.6952 36.6682)" fill="white"/>
<path fill-rule="evenodd" clip-rule="evenodd" d="M17.5068 1.9904C16.7839 2.30506 15.9636 2.48257 15.0916 2.48257C14.2185 2.48257 13.3982 2.30454 12.6747 1.98988C11.9253 1.66384 11.2769 1.19238 10.7806 0.62103L10.2403 0L9.69998 0.62103C9.20315 1.19238 8.55521 1.66436 7.80583 1.98988C7.08285 2.30454 6.26309 2.48257 5.39054 2.48257C4.51748 2.48257 3.69772 2.30506 2.97525 1.9904C2.22588 1.66436 1.57742 1.19238 1.08059 0.62103L0 1.55568C0.637074 2.28798 1.45942 2.88934 2.40442 3.30026C3.30854 3.69306 4.32289 3.9156 5.39106 3.9156C6.45923 3.9156 7.47307 3.69358 8.37718 3.30026C9.07325 2.99751 9.7036 2.59125 10.2413 2.10581C10.779 2.59125 11.4088 2.99699 12.1054 3.30026C13.0101 3.69358 14.0249 3.9156 15.0931 3.9156C16.1613 3.9156 17.1756 3.69358 18.0792 3.30026C19.0237 2.88934 19.8471 2.28746 20.4837 1.55568L19.4031 0.62103C18.9047 1.19238 18.2557 1.66488 17.5068 1.9904Z" transform="translate(15.547 41.4408)" fill="white"/>
<path fill-rule="evenodd" clip-rule="evenodd" d="M0.858574 6.23463H1.72232V0H0.858574L0 0.641731V1.59243L0.858574 0.942414V6.23463Z" transform="translate(17.5829 6.51978)" fill="white"/>
<path fill-rule="evenodd" clip-rule="evenodd" d="M0 4.46624C0.00517525 5.02724 0.188897 5.4749 0.552717 5.81181C0.898941 6.157 1.33056 6.3314 1.84601 6.33761C2.36406 6.33192 2.8024 6.157 3.15949 5.81129C3.51193 5.4749 3.68996 5.02569 3.69565 4.46469C3.68996 3.86281 3.44413 3.39548 2.95973 3.06116C3.145 2.89762 3.29612 2.71183 3.41256 2.50068C3.52383 2.30454 3.5792 2.07062 3.5792 1.80047C3.57351 1.28088 3.40946 0.852364 3.08652 0.51235C2.76566 0.176476 2.35112 0.00569278 1.84601 0C1.34867 0.00569278 0.942414 0.176476 0.626206 0.51235C0.292402 0.852364 0.121101 1.28191 0.116443 1.80099C0.116443 2.07165 0.178546 2.30558 0.300682 2.50223C0.405222 2.71287 0.551164 2.89969 0.736956 3.0622C0.251517 3.39704 0.00517525 3.86436 0 4.46624ZM1.25034 1.10854C1.42268 0.962078 1.62089 0.889107 1.84601 0.889107C2.07838 0.889107 2.28125 0.962078 2.45359 1.10854C2.62385 1.25965 2.71131 1.48478 2.71649 1.78236C2.71131 2.07165 2.62385 2.29264 2.45359 2.44479C2.28177 2.6016 2.0789 2.68078 1.84601 2.68078C1.62089 2.68078 1.42268 2.6016 1.25034 2.44479C1.0749 2.29264 0.984851 2.07113 0.979675 1.78236C0.984851 1.48478 1.0749 1.25965 1.25034 1.10854ZM1.16443 3.74636C1.35126 3.56627 1.57897 3.47311 1.84601 3.46742C2.12082 3.47311 2.35163 3.56627 2.5395 3.74636C2.72943 3.92905 2.82672 4.16556 2.83242 4.45796C2.82621 4.74364 2.72943 4.97704 2.5395 5.16076C2.35163 5.35276 2.12082 5.44799 1.84601 5.44799C1.57897 5.44799 1.35126 5.35276 1.16443 5.16076C0.968807 4.97704 0.870477 4.74364 0.863232 4.45796C0.869959 4.16608 0.968807 3.92905 1.16443 3.74636Z" transform="translate(20.8692 6.46855)" fill="white"/>
<path fill-rule="evenodd" clip-rule="evenodd" d="M1.41146 4.0957C1.76856 4.10139 2.15359 4.03773 2.56658 3.90318L2.56606 4.49057C2.54898 5.12298 2.26538 5.44178 1.71422 5.44747C1.324 5.44747 1.06162 5.27358 0.926025 4.92425H0.0327761C0.124378 5.37657 0.327766 5.72124 0.642938 5.96137C0.955006 6.20616 1.31106 6.33089 1.71215 6.3371C2.18206 6.3314 2.58107 6.17459 2.91022 5.86615C3.24402 5.55563 3.41687 5.11367 3.42826 4.54077V1.79115C3.41739 1.21515 3.24454 0.77163 2.91022 0.461633C2.58055 0.153187 2.18206 0 1.71215 0C1.25517 0 0.863404 0.153187 0.534776 0.460598C0.183376 0.770595 0.00482977 1.21308 0.000172039 1.78805V2.36199C-0.00552074 2.96128 0.130071 3.40014 0.406429 3.6765C0.683823 3.96269 1.01866 4.10139 1.41146 4.0957ZM0.863403 1.84498C0.874271 1.21825 1.15736 0.900494 1.71266 0.889626C2.26486 0.900494 2.54847 1.21825 2.56658 1.84498L2.56606 2.35422C2.54898 2.98664 2.26538 3.3044 1.71266 3.30957C1.15736 3.3044 0.874271 2.98664 0.863403 2.35422V1.84498Z" transform="translate(25.7534 6.46855)" fill="white"/>
<path fill-rule="evenodd" clip-rule="evenodd" d="M0.862715 0.889108H2.4629L0.424371 6.23411H1.388L3.43326 0.889108V0H0V1.79271H0.862715V0.889108Z" transform="translate(30.5583 6.51978)" fill="white"/>
<path fill-rule="evenodd" clip-rule="evenodd" d="M8.86521 6.54928C8.75912 6.23515 8.60023 5.95568 8.38805 5.70468C8.17483 5.4542 7.94246 5.24977 7.69302 5.09245C7.43994 4.93305 7.16618 4.82489 6.87067 4.76382C7.11649 4.6629 7.34161 4.51334 7.54086 4.32185C7.74062 4.12933 7.90209 3.89127 8.02061 3.61336C8.14223 3.33234 8.20329 3.01355 8.20536 2.65439C8.20277 2.08614 8.06925 1.60536 7.80376 1.21101C7.53828 0.816654 7.16618 0.515972 6.68694 0.31155C6.20616 0.103504 5.64258 0 4.99049 0H0V10.617H5.33827C5.90031 10.617 6.40541 10.5487 6.85307 10.41C7.30073 10.2739 7.68887 10.0633 8.02371 9.7833C8.6908 9.2223 9.02409 8.49363 9.02409 7.59882C9.0246 7.21379 8.97234 6.86601 8.86521 6.54928ZM2.18447 1.82169H4.64168C5.10176 1.82428 5.45834 1.92778 5.7114 2.13427C5.96706 2.33973 6.09592 2.63058 6.09852 3.00423C6.09592 3.37168 5.96706 3.65373 5.7114 3.85349C5.45834 4.05326 5.10176 4.15417 4.64168 4.1578H2.18447V1.82169ZM5.85683 8.57901C6.11508 8.47344 6.31226 8.3187 6.44837 8.11428C6.58862 7.90882 6.659 7.65678 6.659 7.35765C6.659 7.05956 6.58862 6.80753 6.44837 6.59689C6.31174 6.3904 6.11508 6.23307 5.85683 6.12491C5.59859 6.01778 5.29066 5.96292 4.92943 5.96292H2.18396V8.73841H4.92943C5.29118 8.73841 5.59859 8.68459 5.85683 8.57901Z" transform="translate(64.2073 4.13606)" fill="white"/>
<path d="M6.11197 1.78908V7.56777H8.25142V0H1.71456L1.6685 2.2295C1.66591 2.54208 1.65867 2.82103 1.65142 3.06892C1.64056 3.31371 1.62813 3.53625 1.61002 3.73809C1.59294 3.93785 1.56758 4.12726 1.53964 4.30633C1.5091 4.48384 1.47132 4.66032 1.42526 4.83834C1.34246 5.17681 1.22084 5.4247 1.05886 5.5784C0.894801 5.73522 0.690379 5.81181 0.439379 5.80819C0.356575 5.80819 0.277394 5.80353 0.201835 5.79577C0.128864 5.78593 0.0605505 5.77041 0 5.74815V7.49221C0.082804 7.53724 0.192002 7.57139 0.328629 7.59313C0.462668 7.61642 0.622065 7.62832 0.804234 7.62832C1.30209 7.61124 1.72181 7.51498 2.06234 7.34006C2.40442 7.16617 2.68182 6.92397 2.89711 6.61242C3.11136 6.30191 3.27801 5.93239 3.39704 5.50492C3.47984 5.20423 3.54557 4.91856 3.59163 4.64582C3.63665 4.37309 3.66925 4.09 3.69254 3.80122C3.71324 3.51296 3.73291 3.19624 3.74585 2.85105L3.77638 1.78857H6.11197V1.78908Z" transform="translate(74.2033 7.18687)" fill="white"/>
<path fill-rule="evenodd" clip-rule="evenodd" d="M7.82654 6.11249C7.91762 6.11249 8.00146 6.10525 8.07443 6.0892C8.14947 6.07471 8.21313 6.05194 8.26643 6.02244V7.58485C8.12981 7.69043 7.96575 7.76961 7.77582 7.82188C7.5833 7.8757 7.36335 7.90364 7.1139 7.90364C6.68073 7.90364 6.3252 7.82188 6.04159 7.66248C5.75591 7.50049 5.54425 7.25829 5.39934 6.93225C5.06606 7.27278 4.68153 7.53051 4.2494 7.70233C3.81519 7.87725 3.32976 7.96264 2.7905 7.96264C2.23933 7.96006 1.75597 7.85448 1.33987 7.64747C0.922234 7.43943 0.594116 7.14599 0.359161 6.76768C0.124207 6.3904 0.00517273 5.94274 0 5.43039C0 5.02776 0.0729675 4.67222 0.216843 4.36325C0.363823 4.05326 0.583771 3.79294 0.879791 3.57972C1.1753 3.36805 1.49927 3.20814 1.84705 3.10257C2.19845 2.99544 2.57831 2.94316 2.98715 2.94316C3.41204 2.94316 3.80743 2.98095 4.17126 3.05857C4.53559 3.13362 4.86888 3.25316 5.17163 3.41256V3.18485C5.17163 2.70769 5.00499 2.34956 4.6717 2.11254C4.3379 1.87758 3.83693 1.75855 3.16985 1.75855C2.76824 1.75855 2.37389 1.81237 1.98936 1.91795C1.60744 2.02404 1.23637 2.18292 0.879791 2.39614V0.606022C1.26639 0.4016 1.69127 0.249447 2.1586 0.148529C2.62334 0.0496826 3.13206 0 3.68581 0C4.22404 0 4.71207 0.0641747 5.14989 0.194588C5.58669 0.32449 5.96914 0.522701 6.29518 0.788193C6.96227 1.31865 7.29556 2.04681 7.29556 2.97266V5.53545C7.29556 5.72538 7.34213 5.86874 7.4296 5.965C7.52119 6.06384 7.65265 6.11249 7.82654 6.11249ZM4.44709 6.11767C4.73277 5.9888 4.97497 5.7937 5.17214 5.53597H5.17266V4.77831C4.95219 4.6334 4.71259 4.52524 4.45227 4.44968C4.19144 4.37671 3.90576 4.3379 3.59525 4.3379C3.28887 4.3379 3.02597 4.3793 2.80705 4.45486C2.58452 4.53249 2.4127 4.64479 2.29108 4.79073C2.17205 4.9403 2.11098 5.11678 2.10995 5.32482C2.11098 5.54632 2.16946 5.73108 2.28384 5.87598C2.39717 6.02193 2.55657 6.13009 2.75841 6.20306C2.96024 6.27499 3.19364 6.31019 3.45914 6.31019C3.8302 6.31019 4.15883 6.24653 4.44709 6.11767Z" transform="translate(83.9255 6.9897)" fill="white"/>
<path fill-rule="evenodd" clip-rule="evenodd" d="M8.2804 0V5.77921H9.52557V9.49555H7.50826V7.56777H2.04836V9.49555H0V5.77921H0.970879C1.2581 5.33155 1.47805 4.74985 1.6302 4.03411C1.78081 3.31837 1.86516 2.46445 1.87965 1.47132L1.91019 0H8.2804ZM3.15328 5.77921H6.18701V1.78909H3.82141C3.82141 2.57779 3.76552 3.30647 3.65218 3.97097C3.54039 4.6391 3.37375 5.23994 3.15328 5.77921Z" transform="translate(92.9362 7.18687)" fill="white"/>
<path d="M2.00179 7.56777L5.42936 3.10929V7.56777H7.53724V0H5.53545L2.10736 4.459V0H0V7.56777H2.00179Z" transform="translate(103.933 7.18687)" fill="white"/>
<path fill-rule="evenodd" clip-rule="evenodd" d="M6.85876 4.28666C6.61553 3.96062 6.25637 3.7148 5.7792 3.54815C6.08971 3.38876 6.32209 3.17709 6.47424 2.90953C6.62897 2.64455 6.70402 2.32058 6.70402 1.94072C6.70402 1.56965 6.61034 1.23585 6.42507 0.945518C6.24136 0.654671 5.96758 0.424889 5.60583 0.256691C5.24667 0.0874634 4.80264 0.00258636 4.27734 0H0V7.56777H4.45847C5.04742 7.56519 5.54528 7.48031 5.95776 7.31367C6.3666 7.1434 6.68073 6.90586 6.89602 6.59431C7.11028 6.28638 7.21586 5.9179 7.21947 5.49043C7.21999 5.01223 7.09838 4.61012 6.85876 4.28666ZM2.10788 1.47081H3.59473C3.93526 1.47081 4.19092 1.53394 4.35756 1.66177C4.52679 1.79064 4.61063 1.98523 4.61063 2.24347C4.61063 2.50172 4.52679 2.69372 4.35756 2.82258C4.19092 2.95403 3.93526 3.01717 3.59473 3.01717H2.10788V1.47081ZM3.92854 6.06591C4.2996 6.06591 4.57854 5.99501 4.75968 5.85166C4.94444 5.70934 5.03603 5.49767 5.03603 5.21614C5.03603 4.93616 4.94444 4.72345 4.75968 4.58217C4.57803 4.43882 4.2996 4.36688 3.92854 4.36688H2.10788V6.06591H3.92854Z" transform="translate(113.564 7.18739)" fill="white"/>
<path fill-rule="evenodd" clip-rule="evenodd" d="M5.87444 0.284637C6.37695 0.477158 6.8246 0.765419 7.21896 1.15253C8.00768 1.92519 8.40202 2.86605 8.4015 3.97304C8.4015 4.54232 8.30318 5.06347 8.106 5.53545C7.90883 6.00847 7.61331 6.43801 7.21896 6.82512C6.8246 7.20343 6.37695 7.48704 5.87444 7.67697C5.3745 7.86535 4.81454 7.96161 4.20126 7.96161C3.58698 7.96161 3.02856 7.86535 2.52707 7.67697C2.02455 7.48704 1.5769 7.20343 1.18254 6.82512C0.788193 6.43853 0.492691 6.00899 0.295502 5.53545C0.0983276 5.06347 0 4.54232 0 3.97304C0 2.85105 0.393829 1.9107 1.18254 1.15253C1.5769 0.765419 2.02455 0.477158 2.52707 0.284637C3.02805 0.0962601 3.58646 0 4.20126 0C4.81454 0 5.3745 0.0957413 5.87444 0.284637ZM5.70312 5.49094C5.9003 5.28652 6.04883 5.05777 6.14717 4.80574C6.2455 4.55474 6.29414 4.27734 6.29466 3.97356C6.29466 3.36753 6.09749 2.86605 5.70312 2.4717C5.50595 2.26728 5.2829 2.11512 5.03241 2.01421C4.78297 1.91329 4.50453 1.86568 4.20126 1.86568C3.89799 1.86568 3.62164 1.91329 3.37115 2.01421C3.1217 2.11512 2.89659 2.26728 2.69942 2.4717C2.30505 2.86605 2.10788 3.36753 2.10788 3.97356C2.10788 4.27734 2.15549 4.55526 2.25381 4.80574C2.35268 5.05777 2.50223 5.28652 2.69942 5.49094C2.89659 5.69537 3.1217 5.84752 3.37115 5.94843C3.62216 6.04728 3.89851 6.09696 4.20126 6.09696C4.50403 6.09696 4.78297 6.04676 5.03241 5.94843C5.28342 5.84752 5.50595 5.69537 5.70312 5.49094Z" transform="translate(121.937 6.9897)" fill="white"/>
<path d="M4.1107 7.96264C4.55836 7.96264 4.98066 7.91762 5.37761 7.82395C5.77403 7.73286 6.15131 7.59158 6.50788 7.40165V5.58099C6.21237 5.75643 5.89358 5.8853 5.55149 5.97017C5.21096 6.05401 4.84714 6.09697 4.46003 6.09697C4.13399 6.09697 3.83072 6.04935 3.55229 5.95102C3.27231 5.85269 3.01924 5.70261 2.79153 5.50543C2.56382 5.30826 2.39252 5.08055 2.27815 4.82541C2.16481 4.56716 2.10892 4.28511 2.10892 3.97356C2.10892 3.66304 2.16481 3.37944 2.27815 3.1243C2.38993 2.86864 2.55658 2.64714 2.77601 2.45721C3.23091 2.06286 3.79346 1.86568 4.46003 1.86568C4.77158 1.86568 5.08934 1.90346 5.41021 1.97902C5.73366 2.05458 6.06022 2.16895 6.38626 2.3211V0.500447C6.05298 0.333804 5.69899 0.20701 5.32741 0.123171C4.95272 0.040367 4.55836 0 4.14124 0C3.57299 0 3.0446 0.0900494 2.55916 0.272736C2.07114 0.45387 1.62348 0.727641 1.21463 1.09198C0.811997 1.44855 0.508727 1.86568 0.306892 2.34284C0.101435 2.82103 0 3.35874 0 3.95907C0 4.55785 0.100917 5.09918 0.306892 5.5872C0.508727 6.07264 0.811997 6.4996 1.21463 6.87118C1.61623 7.235 2.05923 7.50774 2.54364 7.69043C3.02649 7.87259 3.54971 7.96264 4.1107 7.96264Z" transform="translate(131.415 6.98918)" fill="white"/>
<path d="M4.50351 7.56777V1.78908H6.90068V0H0V1.78908H2.36561V7.56777H4.50351Z" transform="translate(138.925 7.18687)" fill="white"/>
<path fill-rule="evenodd" clip-rule="evenodd" d="M5.87495 0.284637C6.37746 0.477158 6.82512 0.765419 7.21948 1.15253C8.00818 1.92519 8.40254 2.86605 8.40202 3.97304C8.40202 4.54232 8.3037 5.06347 8.10652 5.53545C7.90933 6.00847 7.61383 6.43801 7.21948 6.82512C6.82512 7.20343 6.37746 7.48704 5.87495 7.67697C5.37502 7.86535 4.81505 7.96161 4.20178 7.96161C3.58698 7.96161 3.02856 7.86535 2.52707 7.67697C2.02455 7.48704 1.5769 7.20343 1.18254 6.82512C0.788193 6.43853 0.492691 6.00899 0.295502 5.53545C0.0983276 5.06347 0 4.54232 0 3.97304C0 2.85105 0.393829 1.9107 1.18254 1.15253C1.5769 0.765419 2.02455 0.477158 2.52707 0.284637C3.02856 0.0962601 3.58698 0 4.20178 0C4.81505 0 5.3745 0.0957413 5.87495 0.284637ZM5.70364 5.49094C5.90082 5.28652 6.04935 5.05777 6.14769 4.80574C6.24602 4.55474 6.29466 4.27734 6.29518 3.97356C6.29518 3.36753 6.09801 2.86605 5.70364 2.4717C5.50647 2.26728 5.28342 2.11512 5.03293 2.01421C4.78246 1.91329 4.50455 1.86568 4.20178 1.86568C3.89748 1.86568 3.62268 1.91329 3.37167 2.01421C3.12222 2.11512 2.89711 2.26728 2.69994 2.4717C2.30557 2.86605 2.1084 3.36753 2.1084 3.97356C2.1084 4.27734 2.15601 4.55526 2.25433 4.80574C2.3532 5.05777 2.50275 5.28652 2.69994 5.49094C2.89711 5.69537 3.12222 5.84752 3.37167 5.94843C3.62268 6.04728 3.89748 6.09696 4.20178 6.09696C4.50455 6.09696 4.78246 6.04676 5.03293 5.94843C5.28394 5.84752 5.50647 5.69537 5.70364 5.49094Z" transform="translate(146.584 6.9897)" fill="white"/>
<path d="M2.1379 7.56777V4.30685L5.12661 7.56777H7.88657L4.08017 3.41204L7.37163 0H4.74674L2.1379 2.75996V0H0V7.56777H2.1379Z" transform="translate(156.565 7.18687)" fill="white"/>
<path d="M4.1107 7.96264C4.55733 7.96264 4.97963 7.91762 5.37605 7.82395C5.77403 7.73286 6.14975 7.59158 6.50633 7.40165V5.58099C6.21082 5.75643 5.89203 5.8853 5.55098 5.97017C5.20889 6.05401 4.84507 6.09697 4.45848 6.09697C4.13244 6.09697 3.82917 6.04935 3.55178 5.95102C3.27076 5.85269 3.01769 5.70261 2.78998 5.50543C2.56227 5.30826 2.39097 5.08055 2.27659 4.82541C2.16326 4.56716 2.10736 4.28511 2.10736 3.97356C2.10736 3.66304 2.16326 3.37944 2.27659 3.1243C2.38838 2.86864 2.55502 2.64714 2.77549 2.45721C3.23039 2.06286 3.79139 1.86568 4.45848 1.86568C4.77003 1.86568 5.08883 1.90346 5.40866 1.97902C5.73263 2.05458 6.05867 2.16895 6.38471 2.3211V0.500447C6.05142 0.333804 5.69692 0.20701 5.32585 0.123171C4.95116 0.040367 4.55681 0 4.14072 0C3.57144 0 3.04305 0.0900494 2.55761 0.272736C2.06958 0.45387 1.62296 0.727641 1.21308 1.09198C0.81148 1.44855 0.507175 1.86568 0.30534 2.34284C0.100917 2.82103 0 3.35874 0 3.95907C0 4.55785 0.100917 5.09918 0.30534 5.5872C0.507175 6.07264 0.81148 6.4996 1.21308 6.87118C1.61468 7.235 2.05768 7.50774 2.54312 7.69043C3.02545 7.87259 3.54867 7.96264 4.1107 7.96264Z" transform="translate(165.15 6.98918)" fill="white"/>
<path d="M2.13841 7.56777V4.30685L5.12712 7.56777H7.88657L4.08017 3.41204L7.37215 0H4.74726L2.13841 2.75996V0H0V7.56777H2.13841Z" transform="translate(173.477 7.18687)" fill="white"/>
<path d="M2.00179 7.56777L5.43091 3.10929V7.56777H7.53879V0H5.537L2.10892 4.459V0H0V7.56777H2.00179Z" transform="translate(182.562 7.18687)" fill="white"/>
<path d="M2.00334 7.56777L5.42988 3.10929V7.56777H7.53879V0H5.537L2.10892 4.459V0H0V7.56777H2.00334Z" transform="translate(192.193 7.18687)" fill="white"/>
<path d="M2.74444 2.59332C3.13155 2.59332 3.48812 2.53484 3.81157 2.4215C4.13761 2.30454 4.42846 2.13065 4.68671 1.8957C4.94495 1.6597 5.13954 1.38697 5.26841 1.07076C5.39986 0.758175 5.46817 0.4016 5.47542 0H3.85194C3.84728 0.221501 3.79708 0.41609 3.706 0.582733C3.61491 0.746789 3.48553 0.87617 3.32148 0.967255C3.15483 1.05834 2.95766 1.10336 2.72995 1.10699C2.50223 1.10336 2.30299 1.05834 2.13634 0.967255C1.96867 0.87617 1.83721 0.746789 1.74717 0.582733C1.65608 0.41609 1.60847 0.221501 1.60847 0H0C0.010868 0.533051 0.131451 0.993131 0.364855 1.37972C0.599812 1.76683 0.919642 2.06493 1.33004 2.27401C1.73837 2.48516 2.20932 2.59125 2.74444 2.59332Z" transform="translate(193.21 3.75879)" fill="white"/>
<path d="M2.01783 7.56932V2.89762L3.88351 5.24874H4.73277L6.61397 2.89762V7.56932H8.63025V0H6.52289L4.30788 2.82103L2.10892 0H0V7.56932H2.01783Z" transform="translate(64.0857 24.7149)" fill="white"/>
<path fill-rule="evenodd" clip-rule="evenodd" d="M5.87547 0.285675C6.37901 0.477676 6.82564 0.764904 7.21999 1.15201C8.01025 1.92571 8.40409 2.86657 8.40358 3.97408C8.40358 4.54232 8.3037 5.06347 8.10807 5.53545C7.91089 6.00847 7.61487 6.43801 7.21947 6.82512C6.82513 7.20343 6.3785 7.48704 5.87495 7.67697C5.37502 7.8669 4.8166 7.96316 4.20179 7.96316C3.58697 7.96316 3.02856 7.8669 2.52863 7.67697C2.02456 7.48704 1.57793 7.20343 1.18255 6.82512C0.788193 6.43853 0.493721 6.00899 0.295509 5.53545C0.0983276 5.06295 0 4.54232 0 3.97408C0 2.85053 0.394356 1.91019 1.18306 1.15201C1.57897 0.765419 2.02508 0.478195 2.52914 0.285675C3.02908 0.0962601 3.58801 0 4.20231 0C4.8166 0 5.37502 0.0957413 5.87547 0.285675ZM5.70365 5.49043C5.90083 5.286 6.04935 5.05829 6.14924 4.80522C6.24809 4.55422 6.2957 4.27683 6.29518 3.97408C6.29518 3.36702 6.098 2.86709 5.70365 2.47273C5.50647 2.26728 5.28342 2.11616 5.03294 2.01524C4.78349 1.91433 4.50454 1.86568 4.20179 1.86568C3.89904 1.86568 3.62268 1.91433 3.37323 2.01524C3.12275 2.11616 2.89763 2.26728 2.70045 2.47273C2.30609 2.86657 2.10892 3.36702 2.10892 3.97408C2.10892 4.27683 2.15653 4.55474 2.25486 4.80522C2.35371 5.05829 2.50327 5.286 2.70045 5.49043C2.89763 5.69485 3.12223 5.847 3.37323 5.94792C3.62268 6.04625 3.89904 6.09748 4.20179 6.09748C4.50454 6.09748 4.78349 6.04676 5.03294 5.94792C5.28394 5.847 5.50647 5.69485 5.70365 5.49043Z" transform="translate(74.3083 24.5183)" fill="white"/>
<path fill-rule="evenodd" clip-rule="evenodd" d="M7.17393 1.15201C7.51447 1.53188 7.77013 1.95676 7.93677 2.42875C8.106 2.89969 8.18983 3.42033 8.19087 3.98909C8.19087 4.55008 8.10703 5.06606 7.93781 5.53804C7.77116 6.00899 7.5155 6.43853 7.17497 6.82564C6.50684 7.5833 5.65759 7.96316 4.62668 7.96316C4.08742 7.96316 3.61285 7.86949 3.20038 7.67956C2.78791 7.49221 2.43496 7.21223 2.13789 6.84013V10.7997H0V0.197178H2.13789V1.12199C2.41891 0.750412 2.76824 0.469395 3.18175 0.282051C3.59939 0.0936737 4.07965 0 4.62616 0C5.14213 0 5.61153 0.0957413 6.03642 0.285675C6.46078 0.477676 6.84065 0.764904 7.17393 1.15201ZM5.48991 5.48991C5.67984 5.28548 5.82475 5.05829 5.91946 4.80729C6.01778 4.55785 6.06644 4.28407 6.06644 3.98805C6.06644 3.68478 6.01778 3.40635 5.91946 3.1569C5.82475 2.90384 5.67984 2.67612 5.48991 2.4717C5.29998 2.26624 5.08107 2.11512 4.83524 2.01421C4.58683 1.91329 4.31409 1.86464 4.01859 1.86464C3.73705 1.86723 3.47829 1.91588 3.23712 2.01421C2.99751 2.11306 2.78222 2.24658 2.59591 2.4184C2.40857 2.58763 2.25434 2.78222 2.13738 3.00268V4.97393C2.25382 5.1944 2.40857 5.3864 2.59591 5.55563C2.78222 5.72227 2.99751 5.85373 3.23712 5.94999C3.48036 6.04573 3.7412 6.09334 4.01859 6.09697C4.31461 6.09697 4.58683 6.04625 4.83524 5.9474C5.08107 5.84648 5.29998 5.69433 5.48991 5.48991Z" transform="translate(84.2904 24.5183)" fill="white"/>
<path d="M4.1107 7.96471C4.55836 7.96471 4.97963 7.91865 5.37761 7.82498C5.77455 7.73493 6.15027 7.59261 6.50685 7.40372V5.58306C6.21134 5.75695 5.89254 5.88582 5.55149 5.97224C5.20941 6.05505 4.84559 6.09852 4.45848 6.09852C4.13347 6.09852 3.82917 6.04987 3.55178 5.95154C3.27076 5.85321 3.01769 5.70468 2.78998 5.50595C2.56227 5.31033 2.39097 5.08106 2.27763 4.82696C2.16326 4.56923 2.1084 4.28563 2.1084 3.97511C2.1084 3.66356 2.16326 3.37996 2.27763 3.12585C2.38838 2.8702 2.55502 2.64766 2.77549 2.45773C3.23039 2.06337 3.79139 1.8662 4.45848 1.8662C4.77003 1.8662 5.08883 1.90398 5.40866 1.98057C5.73366 2.05613 6.05867 2.16947 6.38471 2.3211V0.500447C6.05142 0.333804 5.69744 0.20701 5.32585 0.124206C4.95116 0.040367 4.55785 0 4.14072 0C3.57144 0 3.04305 0.0910845 2.55761 0.272736C2.06958 0.455422 1.62296 0.727641 1.21308 1.09198C0.81148 1.44855 0.507175 1.86568 0.30534 2.34387C0.100917 2.82103 0 3.35977 0 3.95855C0 4.55836 0.100917 5.09866 0.30534 5.58669C0.507175 6.07212 0.81148 6.49908 1.21308 6.87067C1.61468 7.23449 2.05768 7.50826 2.54312 7.68991C3.02545 7.87363 3.54971 7.96471 4.1107 7.96471Z" transform="translate(93.5572 24.5162)" fill="white"/>
<path d="M2.13841 7.56932V4.30788L5.12712 7.56932H7.88812L4.08069 3.4136L7.37215 0H4.74726L2.13841 2.75996V0H0V7.56932H2.13841Z" transform="translate(101.884 24.7149)" fill="white"/>
<path fill-rule="evenodd" clip-rule="evenodd" d="M5.87443 0.285675C6.37695 0.477676 6.82461 0.764904 7.21896 1.15201C8.00716 1.92571 8.4015 2.86657 8.40202 3.97408C8.40202 4.54232 8.30318 5.06347 8.106 5.53545C7.90883 6.00847 7.61331 6.43801 7.21896 6.82512C6.82461 7.20343 6.37695 7.48704 5.87443 7.67697C5.37295 7.8669 4.81454 7.96316 4.20127 7.96316C3.58697 7.96316 3.02856 7.8669 2.52708 7.67697C2.02456 7.48704 1.5769 7.20343 1.18255 6.82512C0.788193 6.43853 0.492683 6.00899 0.295509 5.53545C0.0983276 5.06295 0 4.54232 0 3.97408C0 2.85053 0.393837 1.91019 1.18255 1.15201C1.5769 0.765419 2.02456 0.478195 2.52708 0.285675C3.02804 0.0962601 3.58697 0 4.20127 0C4.81454 0 5.37295 0.0957413 5.87443 0.285675ZM5.70261 5.49043C5.89979 5.286 6.04832 5.05829 6.14664 4.80522C6.24549 4.55422 6.29414 4.27683 6.29414 3.97408C6.29414 3.36702 6.09696 2.86709 5.70261 2.47273C5.50543 2.26728 5.28238 2.11616 5.0319 2.01524C4.78245 1.91433 4.50402 1.86568 4.20075 1.86568C3.89645 1.86568 3.62112 1.91433 3.37064 2.01524C3.12119 2.11616 2.89607 2.26728 2.69889 2.47273C2.30453 2.86657 2.10736 3.36702 2.10736 3.97408C2.10736 4.27683 2.15446 4.55474 2.2533 4.80522C2.35215 5.05829 2.50172 5.286 2.69889 5.49043C2.89607 5.69485 3.12119 5.847 3.37064 5.94792C3.62164 6.04625 3.89645 6.09748 4.20075 6.09748C4.50402 6.09748 4.78245 6.04676 5.0319 5.94792C5.2829 5.847 5.50543 5.69485 5.70261 5.49043Z" transform="translate(110.47 24.5183)" fill="white"/>
<path d="M2.00179 7.56932L5.42936 3.10929V7.56932H7.53827V0H5.53545L2.10736 4.45848V0H0V7.56932H2.00179Z" transform="translate(120.45 24.7149)" fill="white"/>
<path d="M2.74392 2.59332C3.13103 2.59332 3.4876 2.53587 3.81106 2.4215C4.1371 2.30454 4.42691 2.13065 4.68619 1.8957C4.94288 1.66074 5.13747 1.38852 5.26685 1.07179C5.39831 0.757657 5.46662 0.401082 5.47387 0H3.85194C3.84728 0.222536 3.79605 0.417125 3.70496 0.584286C3.61388 0.748342 3.4845 0.877723 3.32148 0.968807C3.1538 1.05886 2.95662 1.10492 2.72891 1.1075C2.50275 1.10492 2.30195 1.05886 2.13531 0.968807C1.96867 0.877723 1.83721 0.748342 1.74613 0.584286C1.65608 0.417643 1.60743 0.223053 1.60743 0H0C0.00983298 0.533051 0.131451 0.993131 0.36382 1.37972C0.598777 1.76683 0.92016 2.06493 1.329 2.27556C1.73733 2.48516 2.20725 2.59073 2.74392 2.59332Z" transform="translate(121.468 21.2868)" fill="white"/>
<path d="M4.50506 7.56881V1.79012H6.90068V0H0V1.79012H2.36664V7.56881H4.50506Z" transform="translate(63.267 42.243)" fill="white"/>
<path fill-rule="evenodd" clip-rule="evenodd" d="M5.87495 0.286194C6.37746 0.478195 6.82513 0.766457 7.21947 1.15356C8.00819 1.92623 8.40254 2.86709 8.40202 3.97408C8.40202 4.54232 8.3037 5.06295 8.10651 5.53648C7.90934 6.00847 7.61383 6.43957 7.21947 6.82513C6.82513 7.20499 6.37746 7.48808 5.87495 7.67697C5.37399 7.86691 4.81506 7.96317 4.20075 7.96317C3.58645 7.96317 3.02804 7.86691 2.5276 7.67697C2.02508 7.48808 1.57742 7.20499 1.18306 6.82513C0.788712 6.43957 0.493202 6.00847 0.296028 5.53648C0.0988464 5.06295 0 4.54232 0 3.97408C0 2.85208 0.394356 1.91174 1.18306 1.15356C1.57742 0.766975 2.02508 0.478195 2.5276 0.286194C3.02752 0.0962601 3.58645 0 4.20075 0C4.81506 0 5.37347 0.0962601 5.87495 0.286194ZM5.7021 5.49094C5.89927 5.28652 6.04884 5.05881 6.14768 4.80574C6.24601 4.55629 6.29466 4.27734 6.29466 3.97459C6.29466 3.36754 6.09644 2.86761 5.7021 2.47325C5.50491 2.26883 5.28238 2.11668 5.03294 2.01576C4.78245 1.91484 4.50506 1.8662 4.20075 1.8662C3.898 1.8662 3.62267 1.91484 3.37219 2.01576C3.12171 2.11668 2.89659 2.26883 2.69941 2.47325C2.30505 2.86709 2.10788 3.36754 2.10788 3.97459C2.10788 4.27734 2.15704 4.55629 2.25537 4.80574C2.35371 5.05881 2.50224 5.28652 2.69941 5.49094C2.89659 5.6964 3.12171 5.847 3.37219 5.94947C3.62267 6.04677 3.898 6.098 4.20075 6.098C4.50454 6.098 4.78245 6.04677 5.03294 5.94947C5.28238 5.84752 5.50491 5.6964 5.7021 5.49094Z" transform="translate(70.9274 42.0458)" fill="white"/>
<path fill-rule="evenodd" clip-rule="evenodd" d="M7.17445 1.15356C7.51654 1.53239 7.77065 1.95676 7.93729 2.4303C8.10755 2.8997 8.19035 3.42085 8.19139 3.98908C8.19139 4.55164 8.10859 5.06606 7.93832 5.53959C7.77168 6.00899 7.51757 6.44009 7.17549 6.82564C6.5084 7.58485 5.65914 7.96317 4.6272 7.96317C4.08897 7.96317 3.61337 7.86949 3.2009 7.67956C2.78946 7.49325 2.43547 7.21223 2.13945 6.84116V10.7997H0V0.197174H2.13945V1.12303C2.41891 0.750931 2.76824 0.470947 3.1833 0.283607C3.60094 0.0936737 4.08017 0 4.62668 0C5.14213 0 5.61205 0.0962601 6.03693 0.286194C6.4613 0.478195 6.84116 0.766457 7.17445 1.15356ZM5.49094 5.49043C5.67984 5.286 5.82423 5.0583 5.92049 4.80782C6.01933 4.55836 6.06695 4.28459 6.06643 3.98805C6.06643 3.68478 6.01881 3.40739 5.92049 3.15691C5.82423 2.90384 5.67984 2.67612 5.49094 2.4717C5.30101 2.26728 5.08106 2.11513 4.83627 2.01421C4.58786 1.91329 4.31564 1.86465 4.01859 1.86465C3.7386 1.86723 3.47829 1.91588 3.23867 2.01421C2.99751 2.11306 2.78325 2.24658 2.5959 2.4184C2.40856 2.58763 2.25382 2.78222 2.13841 3.00269V4.97549C2.25382 5.19492 2.40856 5.38692 2.5959 5.55615C2.78377 5.72383 2.99751 5.85529 3.23867 5.95155C3.48087 6.04625 3.74119 6.0949 4.01859 6.09749C4.31564 6.09749 4.58786 6.04625 4.83627 5.94896C5.08106 5.84701 5.30101 5.69588 5.49094 5.49043Z" transform="translate(80.9073 42.0458)" fill="white"/>
<path d="M2.13841 7.56881V1.79012H6.00692V0H0V7.56881H2.13841Z" transform="translate(90.6756 42.243)" fill="white"/>
<path fill-rule="evenodd" clip-rule="evenodd" d="M5.87495 0.286194C6.37746 0.478195 6.82513 0.766457 7.21947 1.15356C8.00767 1.92623 8.40202 2.86709 8.4015 3.97408C8.4015 4.54232 8.30318 5.06295 8.106 5.53648C7.90882 6.00847 7.61331 6.43957 7.21896 6.82513C6.82461 7.20499 6.37695 7.48808 5.87443 7.67697C5.3745 7.86691 4.81454 7.96317 4.20127 7.96317C3.58697 7.96317 3.02856 7.86691 2.52708 7.67697C2.02456 7.48808 1.5769 7.20499 1.18255 6.82513C0.788193 6.43957 0.492683 6.00847 0.295509 5.53648C0.0983276 5.06295 0 4.54232 0 3.97408C0 2.85208 0.394356 1.91174 1.18306 1.15356C1.57742 0.766975 2.02508 0.478195 2.5276 0.286194C3.02856 0.0962601 3.58697 0 4.20179 0C4.81506 0 5.3745 0.0962601 5.87495 0.286194ZM5.70312 5.49094C5.90031 5.28652 6.04884 5.05881 6.14716 4.80574C6.24601 4.55629 6.29466 4.27734 6.29466 3.97459C6.29466 3.36754 6.09748 2.86761 5.70312 2.47325C5.50595 2.26883 5.2829 2.11668 5.03242 2.01576C4.78194 1.91484 4.50402 1.8662 4.20127 1.8662C3.89697 1.8662 3.62164 1.91484 3.37116 2.01576C3.12171 2.11668 2.89659 2.26883 2.69941 2.47325C2.30505 2.86709 2.10788 3.36754 2.10788 3.97459C2.10788 4.27734 2.15549 4.55629 2.25382 4.80574C2.35267 5.05881 2.50224 5.28652 2.69941 5.49094C2.89659 5.6964 3.12171 5.847 3.37116 5.94947C3.62216 6.04677 3.89697 6.098 4.20127 6.098C4.50402 6.098 4.78194 6.04677 5.03242 5.94947C5.28342 5.84752 5.50595 5.6964 5.70312 5.49094Z" transform="translate(97.5163 42.0458)" fill="white"/>
<path fill-rule="evenodd" clip-rule="evenodd" d="M6.85825 4.28822C6.61501 3.96217 6.25584 3.71635 5.77921 3.54971C6.08972 3.3903 6.32209 3.17864 6.47424 2.90953C6.62898 2.64404 6.70403 2.32059 6.70403 1.94228C6.70403 1.57018 6.61035 1.23637 6.42559 0.945518C6.24187 0.654671 5.96914 0.424889 5.60635 0.257729C5.24874 0.0884933 4.80315 0.00206757 4.27734 0H0V7.56881H4.46003C5.04794 7.56622 5.54684 7.47979 5.95775 7.31315C6.36763 7.14392 6.68073 6.90689 6.89603 6.59534C7.11028 6.28741 7.21741 5.91894 7.21947 5.49043C7.21947 5.01379 7.09786 4.61063 6.85825 4.28822ZM2.10736 1.47132H3.59421C3.93475 1.47132 4.1904 1.53446 4.35704 1.66332C4.52628 1.79219 4.61012 1.9873 4.61012 2.24502C4.61012 2.50275 4.52628 2.69527 4.35704 2.82413C4.1904 2.95558 3.93475 3.01872 3.59421 3.01872H2.10736V1.47132ZM3.92802 6.06747C4.29908 6.06747 4.57751 5.99657 4.76019 5.85321C4.94392 5.71089 5.03552 5.49922 5.035 5.21821C5.035 4.93822 4.94392 4.72552 4.76019 4.58424C4.57803 4.43933 4.29908 4.36895 3.92802 4.36895H2.10736V6.06747H3.92802Z" transform="translate(107.497 42.243)" fill="white"/>
<path d="M0 0H2.10892V7.56881H0V0Z" transform="translate(124.09 42.243)" fill="white"/>
<path fill-rule="evenodd" clip-rule="evenodd" d="M5.33828 2.54571C5.80404 2.76359 6.16424 3.07151 6.4199 3.47156C6.67556 3.8685 6.80701 4.34048 6.80959 4.88389C6.80959 5.271 6.74387 5.62395 6.61501 5.94274C6.48408 6.26413 6.2869 6.55239 6.0214 6.81063C5.75591 7.06111 5.43713 7.2495 5.06605 7.37629C4.69344 7.50567 4.2701 7.56881 3.79191 7.56881H0V0H2.1379V2.21449H3.68581C4.31979 2.21708 4.87095 2.32938 5.33828 2.54571ZM3.35098 5.91531C3.7707 5.91273 4.09466 5.82268 4.32444 5.64258C4.55216 5.46404 4.66912 5.20579 4.67118 4.86888C4.66912 4.533 4.55216 4.27217 4.32444 4.08742C4.09466 3.90369 3.7707 3.81002 3.35098 3.80743H2.1379V5.91531H3.35098Z" transform="translate(116.37 42.243)" fill="white"/>
<path d="M2.00179 7.56881L5.42936 3.11033V7.56881H7.53827V0H5.53545L2.10736 4.46003V0H0V7.56881H2.00179Z" transform="translate(128.292 42.243)" fill="white"/>
<path d="M2.74547 2.59435C3.13258 2.59435 3.48916 2.53587 3.81261 2.4215C4.13865 2.30609 4.42846 2.13169 4.68619 1.8957C4.94392 1.66074 5.13903 1.38852 5.26789 1.07179C5.39934 0.75921 5.46765 0.402635 5.47593 0H3.85246C3.8478 0.222536 3.79657 0.417643 3.70496 0.584286C3.61491 0.748342 3.48605 0.877723 3.32148 0.968807C3.1538 1.05989 2.95662 1.10492 2.72891 1.1075C2.50275 1.10492 2.30195 1.05989 2.13531 0.968807C1.96867 0.877723 1.83721 0.748342 1.74613 0.584286C1.65505 0.417643 1.60743 0.223053 1.60743 0H0C0.00983298 0.534086 0.131451 0.994166 0.36382 1.38127C0.598777 1.76683 0.92016 2.06648 1.33004 2.27556C1.73888 2.48516 2.2088 2.59228 2.74547 2.59435Z" transform="translate(129.308 38.8149)" fill="white"/>
<path d="M2.1379 7.56881V1.79012H5.15714V7.56881H7.29504V0H0V7.56881H2.1379Z" transform="translate(141.807 42.243)" fill="white"/>
<path fill-rule="evenodd" clip-rule="evenodd" d="M5.87444 0.286194C6.37695 0.478195 6.8246 0.766457 7.21896 1.15356C8.00768 1.92623 8.40202 2.86709 8.4015 3.97408C8.4015 4.54232 8.30318 5.06295 8.106 5.53648C7.90883 6.00847 7.61331 6.43957 7.21896 6.82513C6.8246 7.20499 6.37695 7.48808 5.87444 7.67697C5.3745 7.86691 4.81609 7.96317 4.20126 7.96317C3.58698 7.96317 3.02856 7.86691 2.52707 7.67697C2.02455 7.48808 1.5769 7.20499 1.18254 6.82513C0.788193 6.43957 0.492691 6.00847 0.295502 5.53648C0.0983276 5.06295 0 4.54232 0 3.97408C0 2.85208 0.393829 1.91174 1.18254 1.15356C1.5769 0.766975 2.02455 0.478195 2.52707 0.286194C3.02805 0.0962601 3.58698 0 4.20126 0C4.81557 0 5.3745 0.0962601 5.87444 0.286194ZM5.70312 5.49094C5.9003 5.28652 6.04884 5.05881 6.14717 4.80574C6.2455 4.55629 6.29414 4.27734 6.29466 3.97459C6.29466 3.36754 6.09749 2.86761 5.70312 2.47325C5.50647 2.26883 5.28342 2.11668 5.03293 2.01576C4.78246 1.91484 4.50505 1.8662 4.20178 1.8662C3.89748 1.8662 3.62268 1.91484 3.37167 2.01576C3.12068 2.11668 2.89711 2.26883 2.69994 2.47325C2.30557 2.86709 2.1084 3.36754 2.1084 3.97459C2.1084 4.27734 2.15601 4.55629 2.25433 4.80574C2.3532 5.05881 2.50275 5.28652 2.69994 5.49094C2.89711 5.6964 3.1212 5.847 3.37167 5.94947C3.62268 6.04677 3.89748 6.098 4.20178 6.098C4.50455 6.098 4.78246 6.04677 5.03293 5.94947C5.28342 5.84752 5.50595 5.6964 5.70312 5.49094Z" transform="translate(150.695 42.0458)" fill="white"/>
<path fill-rule="evenodd" clip-rule="evenodd" d="M4.62616 0C4.07965 0 3.5994 0.0936737 3.18175 0.283607C2.76825 0.470947 2.41891 0.750931 2.13789 1.12303V0.197174H0V10.7997H2.13789V6.84116C2.43341 7.21223 2.7879 7.49325 3.20038 7.67956C3.61284 7.86949 4.08742 7.96317 4.62668 7.96317C5.65759 7.96317 6.50685 7.5833 7.17497 6.82513C7.5155 6.43801 7.77116 6.00847 7.93781 5.53907C8.10704 5.06554 8.19087 4.55112 8.19087 3.98857C8.19087 3.42033 8.10704 2.8997 7.93781 2.42978C7.77116 1.95625 7.5155 1.53188 7.17497 1.15201C6.84013 0.766457 6.46182 0.477676 6.03745 0.285675C5.61153 0.0962601 5.14058 0 4.62616 0ZM4.01859 1.86568C4.31409 1.86568 4.58682 1.91432 4.83524 2.01524C5.08002 2.11616 5.29997 2.26831 5.4899 2.47273C5.67984 2.67715 5.82318 2.90487 5.91945 3.15794C6.01778 3.40739 6.06694 3.68633 6.06694 3.98908C6.06694 4.28459 6.0183 4.55836 5.91945 4.80781C5.82318 5.05829 5.67984 5.286 5.4899 5.49043C5.29997 5.69588 5.08002 5.847 4.83524 5.94791C4.58682 6.04625 4.31461 6.09748 4.01859 6.09748C3.74118 6.09489 3.47931 6.04625 3.23712 5.9505C2.9975 5.85424 2.78221 5.72434 2.59435 5.55615C2.40804 5.38692 2.25381 5.19492 2.13686 4.97549V3.0032C2.25381 2.78273 2.40804 2.58814 2.59435 2.41891C2.78169 2.24709 2.99698 2.11357 3.23712 2.01472C3.47725 1.91691 3.73756 1.86826 4.01859 1.86568ZM13.4531 1.9873V7.76598H11.3141V1.9873H8.94853V0.197174H15.8492V1.9873H13.4531Z" transform="translate(160.676 42.0458)" fill="white"/>
</svg>
