<svg id="Слой_1" data-name="Слой 1" xmlns="http://www.w3.org/2000/svg" viewBox="0 0 521.45 99.65"><title>logo</title><path d="M144.18,379.23v48.19a83.61,83.61,0,0,1-31.67,6.42c-27.17,0-53-15.15-53-49.83,0-35.63,26.07-49.83,52.69-49.83a77,77,0,0,1,29.62,6v23.89c-7.1-4.91-16.79-7.64-26.35-7.64-15.42,0-30,7.92-30,27.57,0,23.62,17.34,28.12,28.26,28.12a27.47,27.47,0,0,0,6.55-.68V379.23Zm83,52.56-5.46-15H182.13l-5.46,15H150.73l37.54-95.56h27.3l37.54,95.56Zm-22.8-63.07a48,48,0,0,1-2.46-9.69,47.73,47.73,0,0,1-2.46,9.69l-9.83,27.58h24.57l-9.83-27.58Zm119,28.39,26.35,34.67H321.23l-22.8-31.12H287.51v31.12H262.26V336.23h40.27c19.38,0,39.18,7,39.18,32.22,0,15.83-7.78,24.43-18.29,28.67Zm-19.79-39H287.51v22.11h16.11c7.23,0,12.15-3.69,12.15-11.06s-4.91-11.06-12.15-11.06Zm93.51,43.68H384.57v30H359.31V336.23h37.81c23.62,0,41.64,7.64,41.64,32.76s-18,32.63-41.64,32.76Zm1.23-43.68H384.57v21.84h13.79c7.64,0,14.47-2.32,14.47-10.92s-6.82-10.92-14.47-10.92Zm52.14,73.71V336.23h25.25v95.56Zm101,0-19.39-32.08-19.39,32.08H483.26L516,382.1l-30.72-45.87h33.43l29.5,45.87L581,431.79Z" transform="translate(-59.55 -334.18)" style="fill:#000;fill-rule:evenodd"/><polygon points="489.7 1.13 518.9 1.13 518.9 30.32 489.7 30.32 489.7 1.13 489.7 1.13" style="fill:#febf01;fill-rule:evenodd"/></svg>