<svg width="26" height="26" viewBox="0 0 26 26" fill="none" xmlns="http://www.w3.org/2000/svg">
<path d="M16.1 0C10.8 0 6.5 4.29998 6.5 9.59998C6.5 11.8 7.3 13.9 8.5 15.5L0.399963 23.6C0.199963 23.8 0 24.1 0 24.4C0 24.7 0.0999634 25 0.399963 25.3C0.599963 25.5 0.899951 25.7 1.19995 25.7C1.49995 25.7 1.8 25.6 2 25.3L10.1 17.2C11.7 18.5 13.8 19.2 16 19.2C21.3 19.2 25.6 14.9 25.6 9.59998C25.7 4.29998 21.4 0 16.1 0ZM16.1 16.8C12.1 16.8 8.89996 13.6 8.89996 9.59998C8.89996 5.59998 12.1 2.40002 16.1 2.40002C20.1 2.40002 23.3 5.59998 23.3 9.59998C23.3 13.6 20.1 16.8 16.1 16.8Z" fill="white"/>
</svg>
