<svg width="94" height="60" viewBox="0 0 94 60" fill="none" xmlns="http://www.w3.org/2000/svg">
<path fill-rule="evenodd" clip-rule="evenodd" d="M4.83984 25.1875L26.2469 30.6936L14.0829 50.1723L4.83984 25.1875ZM66.0468 30.9492L44.1318 24.0747L56.7999 5.96094L66.0468 30.9492ZM36.0782 33.2205C36.2517 33.2645 36.4271 33.2875 36.5984 33.2875C37.271 33.2875 37.9144 32.9616 38.3112 32.3955L41.6181 27.6641L63.0228 34.3786L18.6084 50.8098L30.49 31.7831L36.0782 33.2205ZM35.7174 28.8149L8.48438 21.8109L51.8348 5.77344L35.7174 28.8149ZM70.7146 31.5339L60.0585 2.7303C59.6715 1.68368 58.8999 0.850606 57.8861 0.384466C56.8721 -0.081856 55.7377 -0.125443 54.6911 0.261731L2.73038 19.4849C1.68375 19.8721 0.850684 20.6437 0.384362 21.6573C-0.0819604 22.6713 -0.125365 23.8058 0.261809 24.8522L10.9179 53.6561C11.3049 54.7027 12.0765 55.5356 13.0903 56.0021C13.6466 56.258 14.2391 56.3864 14.8336 56.3864C15.3227 56.3864 15.8129 56.2995 16.2855 56.1246L68.2462 36.9017H68.2464C70.4064 36.102 71.5137 33.6943 70.7146 31.5339V31.5339Z" transform="translate(22.3994 0.0449219)" fill="#5da689"/>
<path fill-rule="evenodd" clip-rule="evenodd" d="M9.23587 0.130206L1.36456 3.0423C0.282559 3.44279 -0.269842 4.64407 0.130279 5.72607C0.442133 6.56917 1.24019 7.09075 2.08949 7.09075C2.33022 7.09075 2.57514 7.04863 2.81405 6.96036L10.6854 4.04826C11.7672 3.64796 12.3198 2.44632 11.9195 1.36449C11.5193 0.282485 10.3173 -0.269733 9.23587 0.130206" transform="translate(12.416 52.9102)" fill="#5da689"/>
<path fill-rule="evenodd" clip-rule="evenodd" d="M2.08956 5.97621C2.33011 5.97621 2.57522 5.93408 2.81412 5.84582L7.67285 4.04819C8.75485 3.64807 9.30744 2.44642 8.90713 1.36442C8.50683 0.282412 7.305 -0.269624 6.22336 0.130132L1.36446 1.92776C0.282634 2.32825 -0.26995 3.52952 0.130354 4.61153C0.442208 5.45463 1.24045 5.97621 2.08956 5.97621" transform="translate(4.77441 33.5176)" fill="#5da689"/>
<path fill-rule="evenodd" clip-rule="evenodd" d="M4.97487 0.130279L1.36448 1.46596C0.282472 1.86645 -0.269929 3.06791 0.130375 4.14991C0.442229 4.99283 1.24028 5.51441 2.08958 5.51441C2.33013 5.51441 2.57524 5.47247 2.81414 5.38402L6.42454 4.04833C7.50636 3.64785 8.05895 2.44639 7.65864 1.36456C7.25834 0.282559 6.0567 -0.269842 4.97487 0.130279" transform="translate(0 49.3398)" fill="#5da689"/>
</svg>
