<svg width="70" height="70" viewBox="0 0 70 70" fill="none" xmlns="http://www.w3.org/2000/svg">
<path fill-rule="evenodd" clip-rule="evenodd" d="M68.8319 53.6681H60.6696V17.5C60.6696 16.8 60.2015 16.3319 59.5015 16.3319H39.6652V11.6667H49.0029C49.6971 11.6667 50.1637 11.2 50.1637 10.4985V1.16813C50.1637 0.466667 49.6971 0 49.0029 0H20.9971C20.3029 0 19.8363 0.466667 19.8363 1.16813V10.4985C19.8363 11.2 20.3029 11.6667 20.9971 11.6667H30.3348V16.3319H10.4985C9.79854 16.3319 9.33042 16.8 9.33042 17.5V53.6681H1.16813C0.466667 53.6681 0 54.1348 0 54.8363V60.6696C0 62.0652 0.934792 62.9985 2.33625 62.9985H11.6667V67.6637H7.00146V70H62.9985V67.6637H58.3333V62.9985H67.6637C69.0652 62.9985 70 62.0652 70 60.6696V54.8363C70 54.1348 69.5333 53.6681 68.8319 53.6681ZM26.832 9.33042H43.1712V7.00146H26.832V9.33042ZM22.1641 2.33624H47.8336V9.33041H45.4974V5.83333C45.4974 5.13333 45.0307 4.6652 44.3293 4.6652H25.6684C24.967 4.6652 24.5003 5.13333 24.5003 5.83333V9.33041H22.1641V2.33624ZM32.6641 16.3319H37.3366V11.6667H32.6641V16.3319ZM31.5042 18.6682H40.8346V35H29.168V18.6682H31.5042ZM11.668 18.6682H26.8317V36.1682C26.8317 36.8682 27.2998 37.3363 27.9998 37.3363H42.0028C42.7028 37.3363 43.1709 36.8682 43.1709 36.1682V18.6682H58.3346V53.6682H11.668V18.6682ZM14.0039 67.6637H55.9981V62.9985H14.0039V67.6637ZM2.33594 60.6696H67.6634V55.9971H2.33594V60.6696Z" fill="#45d2c9"/>
<path fill-rule="evenodd" clip-rule="evenodd" d="M0 2.33042H4.67104V0H0V2.33042Z" transform="translate(15.1641 43.1696)" fill="white"/>
<path fill-rule="evenodd" clip-rule="evenodd" d="M0 2.33042H11.6667V0H0V2.33042Z" transform="translate(15.1641 49.0029)" fill="white"/>
<path fill-rule="evenodd" clip-rule="evenodd" d="M7.00146 3.49708H2.33625V0H0V4.66521C0 5.36521 0.466667 5.83333 1.16813 5.83333H3.49708V8.16229H5.83333V5.83333H8.16958C8.86375 5.83333 9.33042 5.36521 9.33042 4.66521V0H7.00146V3.49708Z" transform="translate(35 43.1696)" fill="white"/>
<path fill-rule="evenodd" clip-rule="evenodd" d="M0 8.16375H2.33042V0H0V8.16375Z" transform="translate(47.8359 43.1696)" fill="white"/>
<path fill-rule="evenodd" clip-rule="evenodd" d="M0 8.16375H2.33625V0H0V8.16375Z" transform="translate(52.5 43.1696)" fill="white"/>
<path fill-rule="evenodd" clip-rule="evenodd" d="M0 2.33625H2.33625V0H0V2.33625Z" transform="translate(33.832 64.1666)" fill="white"/>
<path fill-rule="evenodd" clip-rule="evenodd" d="M0 2.33625H2.33625V0H0V2.33625Z" transform="translate(29.168 64.1666)" fill="white"/>
<path fill-rule="evenodd" clip-rule="evenodd" d="M0 2.33625H2.33042V0H0V2.33625Z" transform="translate(24.5 64.1666)" fill="white"/>
<path fill-rule="evenodd" clip-rule="evenodd" d="M0 2.33625H2.33625V0H0V2.33625Z" transform="translate(38.4961 64.1666)" fill="white"/>
<path fill-rule="evenodd" clip-rule="evenodd" d="M0 2.33625H2.33042V0H0V2.33625Z" transform="translate(43.168 64.1666)" fill="white"/>
</svg>
