<svg width="84" height="70" viewBox="0 0 84 70" fill="none" xmlns="http://www.w3.org/2000/svg">
<path fill-rule="evenodd" clip-rule="evenodd" d="M3.85908 0H1.23173C0.551327 0 0 0.544624 0 1.2163C0 1.88798 0.551327 2.43341 1.23173 2.43341H3.85908C4.53928 2.43341 5.09163 1.88798 5.09163 1.2163C5.09163 0.544624 4.53928 0 3.85908 0Z" transform="translate(26.2773 15.6487)" fill="white"/>
<path fill-rule="evenodd" clip-rule="evenodd" d="M80.381 39.1822L76.0354 37.7519V23.2705C76.0354 20.4542 73.7145 18.1622 70.8622 18.1622H55.0145V1.2163C55.0145 0.544422 54.464 0 53.7829 0H9.11461C8.4336 0 7.88309 0.544422 7.88309 1.2163V44.1087H1.23173C0.551327 44.1087 0 44.6541 0 45.3258V58.2991C0 58.9708 0.551327 59.5154 1.23173 59.5154H7.88453C7.88453 59.5423 7.88309 59.569 7.88309 59.5959C7.88309 65.2742 12.5609 69.8942 18.311 69.8942C24.0611 69.8942 28.7389 65.2742 28.7389 59.5959C28.7389 59.569 28.7374 59.5423 28.7366 59.5154H35.4447C36.1249 59.5154 36.6764 58.9708 36.6764 58.2991C36.6764 57.6274 36.1249 57.082 35.4447 57.082H28.4236C27.2848 52.6153 23.1832 49.2986 18.311 49.2986C13.4388 49.2986 9.33711 52.6153 8.1984 57.082H2.46325V46.5421H52.5512V57.082H41.3022C40.6218 57.082 40.0705 57.6274 40.0705 58.2991C40.0705 58.9708 40.6218 59.5154 41.3022 59.5154H57.8092C57.8084 59.5423 57.8059 59.569 57.8059 59.5959C57.8059 65.2742 62.4845 69.8942 68.2348 69.8942C73.9849 69.8942 78.6627 65.2742 78.6627 59.5959C78.6627 59.569 78.6611 59.5423 78.6611 59.5154H82.6859C83.3669 59.5154 83.9185 58.9708 83.9185 58.2991V44.0282C83.9185 41.8264 82.497 39.8784 80.381 39.1822ZM18.3123 51.731C22.7036 51.731 26.2769 55.2597 26.2769 59.5958C26.2769 63.933 22.7036 67.4607 18.3123 67.4607C13.9203 67.4607 10.3477 63.933 10.3477 59.5958C10.3477 55.2597 13.9203 51.731 18.3123 51.731ZM34.1581 2.43237V8.61018L31.8371 7.84665C31.5867 7.7637 31.3097 7.7637 31.0593 7.84665L28.7383 8.61018V2.43237H34.1581ZM10.3477 25.9466H28.9043V23.1901H10.3477V25.9466ZM10.3477 28.3789H30.136C30.8162 28.3789 31.3686 27.8345 31.3686 27.1628V21.9737C31.3686 21.3012 30.8162 20.7576 30.136 20.7576H10.3477V18.0011H23.567C24.2474 18.0011 24.7995 17.4557 24.7995 16.784C24.7995 16.1123 24.2474 15.5677 23.567 15.5677H10.3477V2.43237H26.2769V10.2973C26.2769 11.113 27.1132 11.7096 27.8983 11.4512L31.4501 10.2823L35.0019 11.4512C35.787 11.7104 36.6233 11.113 36.6233 10.2973V2.43237H52.5525V44.1087H44.5064V39.1806L46.3445 40.9959C46.8457 41.4914 47.6914 41.4574 48.1524 40.9263C48.5646 40.4505 48.5351 39.7187 48.0868 39.2762L44.1445 35.384C43.6643 34.9099 42.8841 34.9099 42.4031 35.384L38.4625 39.2762C37.9806 39.7511 37.9806 40.5209 38.4625 40.9959C38.9425 41.4715 39.7229 41.4715 40.2039 40.9959L42.0421 39.1806V44.1087H32.6818V39.1806L34.5208 40.9959C35.0211 41.4914 35.8671 41.4574 36.328 40.9263C36.74 40.4505 36.7114 39.7187 36.2623 39.2762L32.3208 35.384C31.8398 34.9091 31.0604 34.9091 30.5794 35.384L26.6379 39.2762C26.1569 39.7511 26.1569 40.5209 26.6379 40.9959C27.1188 41.4715 27.8983 41.4715 28.3794 40.9959L30.2184 39.1806V44.1087H20.8581V39.1806L22.6963 40.9959C23.1974 41.4914 24.0433 41.4574 24.5035 40.9263C24.9163 40.4505 24.8868 39.7187 24.4377 39.2762L20.4971 35.384C20.0161 34.9091 19.2359 34.9091 18.7556 35.384L14.8142 39.2762C14.3323 39.7511 14.3323 40.5209 14.8142 40.9959C15.2951 41.4715 16.0746 41.4715 16.5557 40.9959L18.3938 39.1806V44.1087H10.3477V28.3789ZM68.2342 67.4607C63.8428 67.4607 60.2695 63.933 60.2695 59.5958C60.2695 55.2597 63.8428 51.731 68.2342 51.731C72.6261 51.731 76.1988 55.2597 76.1988 59.5958C76.1988 63.933 72.6261 67.4607 68.2342 67.4607ZM78.3486 57.082C77.2099 52.6153 73.1082 49.2986 68.236 49.2986C63.3638 49.2986 59.2621 52.6153 58.1232 57.082H55.0156V20.5956H70.8633C72.3575 20.5956 73.5733 21.7951 73.5733 23.2706V38.6283C73.5733 39.1521 73.9126 39.6168 74.4151 39.7821L79.6034 41.4898C80.7118 41.8549 81.4553 42.8752 81.4553 44.0282V44.3681C81.0224 44.2012 80.5518 44.1087 80.0597 44.1087C77.9316 44.1087 76.2006 45.819 76.2006 47.9203C76.2006 50.0217 77.9316 51.731 80.0597 51.731C80.5518 51.731 81.0224 51.6386 81.4553 51.4719V57.082H78.3486ZM81.4555 47.9203C81.4555 48.6797 80.8298 49.2986 80.0599 49.2986C79.2908 49.2986 78.6641 48.6797 78.6641 47.9203C78.6641 47.16 79.2908 46.5421 80.0599 46.5421C80.8298 46.5421 81.4555 47.16 81.4555 47.9203Z" transform="translate(0 0.0809326)" fill="#45d2c9"/>
<path fill-rule="evenodd" clip-rule="evenodd" d="M11.7422 0H1.23255C0.551532 0 0 0.544422 0 1.2161V15.4872C0 16.1556 0.566693 16.7033 1.24136 16.7033L11.7518 16.6307C12.4281 16.6258 12.9747 16.083 12.9747 15.4144V1.2161C12.9747 0.544422 12.4232 0 11.7422 0ZM10.511 14.2067L2.46484 14.2622V2.43237H10.511V14.2067Z" transform="translate(57.8047 23.433)" fill="white"/>
<path fill-rule="evenodd" clip-rule="evenodd" d="M5.17317 0H1.23255C0.551532 0 0 0.545434 0 1.2163C0 1.88798 0.551532 2.43341 1.23255 2.43341H5.17317C5.85439 2.43341 6.40572 1.88798 6.40572 1.2163C6.40572 0.545434 5.85439 0 5.17317 0Z" transform="translate(57.8047 41.5952)" fill="white"/>
<path fill-rule="evenodd" clip-rule="evenodd" d="M5.17317 0C2.32086 0 0 2.29179 0 5.10838C0 7.92497 2.32086 10.2168 5.17317 10.2168C8.02548 10.2168 10.3463 7.92497 10.3463 5.10838C10.3463 2.29179 8.02548 0 5.17317 0ZM5.17477 7.7843C3.68059 7.7843 2.46484 6.58378 2.46484 5.10832C2.46484 3.63286 3.68059 2.43335 5.17477 2.43335C6.66894 2.43335 7.88366 3.63286 7.88366 5.10832C7.88366 6.58378 6.66894 7.7843 5.17477 7.7843Z" transform="translate(63.0625 54.5685)" fill="white"/>
<path fill-rule="evenodd" clip-rule="evenodd" d="M5.17317 10.2168C8.02548 10.2168 10.3463 7.92497 10.3463 5.10838C10.3463 2.29179 8.02548 0 5.17317 0C2.32086 0 0 2.29179 0 5.10838C0 7.92497 2.32086 10.2168 5.17317 10.2168ZM5.17477 2.43335C6.66894 2.43335 7.88469 3.63286 7.88469 5.10832C7.88469 6.58378 6.66894 7.7843 5.17477 7.7843C3.68059 7.7843 2.46484 6.58378 2.46484 5.10832C2.46484 3.63286 3.68059 2.43335 5.17477 2.43335Z" transform="translate(13.1367 54.5685)" fill="white"/>
<path fill-rule="evenodd" clip-rule="evenodd" d="M20.9383 2.43321C21.6187 2.43321 22.1701 1.88798 22.1701 1.21711C22.1701 0.545231 21.6187 0 20.9383 0H1.23173C0.550712 0 0 0.545231 0 1.21711C0 1.88798 0.550712 2.43321 1.23173 2.43321H20.9383Z" transform="translate(27.5898 50.6764)" fill="white"/>
</svg>
