<svg width="85" height="80" viewBox="0 0 85 80" fill="none" xmlns="http://www.w3.org/2000/svg">
<path fill-rule="evenodd" clip-rule="evenodd" d="M81.2123 42.1052H76.8184C76.0592 39.1147 73.0249 37.3075 70.0416 38.0686C68.0629 38.5735 66.518 40.1221 66.0144 42.1052H61.6094V11.228H72.8782L81.2123 24.4814V42.1052ZM68.6094 43.5088C68.6094 41.9585 69.8631 40.7018 71.4098 40.7018C72.9565 40.7018 74.2102 41.9585 74.2102 43.5088C74.2102 45.059 72.9565 46.3158 71.4098 46.3158C69.8631 46.3158 68.6094 45.059 68.6094 43.5088ZM33.0703 47.7192C33.9183 46.9807 34.5237 46.0021 34.8066 44.9122H66.0144C66.2972 46.0021 66.9026 46.9807 67.7506 47.7192H33.0703ZM32.2063 43.5088C32.2063 45.059 30.9526 46.3158 29.4059 46.3158C27.8592 46.3158 26.6055 45.059 26.6055 43.5088C26.6055 41.9585 27.8592 40.7018 29.4059 40.7018C30.9526 40.7018 32.2063 41.9585 32.2063 43.5088ZM24.0066 42.1053H19.6016V2.80701H58.8073V42.1053H34.8106C34.0513 39.1147 31.0171 37.3075 28.0338 38.0686C26.0551 38.5735 24.5102 40.1221 24.0066 42.1053ZM74.8396 9.07649C74.5825 8.66737 74.1332 8.41965 73.6509 8.42105H61.6091V1.40351C61.6091 0.628421 60.9821 0 60.2089 0H18.2027C17.4294 0 16.8025 0.628421 16.8025 1.40351V5.61404H11.2017C10.4284 5.61404 9.80145 6.24246 9.80145 7.01754C9.80145 7.79263 10.4284 8.42105 11.2017 8.42105H16.8025V21.0526H1.40021C0.626942 21.0526 0 21.6811 0 22.4561C0 23.2312 0.626942 23.8596 1.40021 23.8596H16.8025V37.8947H4.20062C3.42736 37.8947 2.80041 38.5232 2.80041 39.2982C2.80041 40.0733 3.42736 40.7018 4.20062 40.7018H16.8025V43.5088C16.8025 44.2839 17.4294 44.9123 18.2027 44.9123H24.0023C24.2852 46.0021 24.8906 46.9807 25.7386 47.7193H1.40021C0.626942 47.7193 0 48.3477 0 49.1228C0 49.8979 0.626942 50.5263 1.40021 50.5263H82.6122C83.3854 50.5263 84.0124 49.8979 84.0124 49.1228C84.0124 48.3477 83.3854 47.7193 82.6122 47.7193H75.0819C75.9299 46.9807 76.5353 46.0021 76.8181 44.9123H82.6122C83.3854 44.9123 84.0124 44.2839 84.0124 43.5088V24.0758C84.0124 23.8111 83.9376 23.5518 83.7968 23.3277L74.8396 9.07649Z" transform="translate(0 29.4736)" fill="#45d2c9"/>
<path fill-rule="evenodd" clip-rule="evenodd" d="M1.40021 8.42325H13.428L10.2215 11.6415C9.66528 12.1801 9.64987 13.0685 10.1872 13.6261C10.7245 14.1836 11.6109 14.1989 12.1671 13.6604C12.1788 13.6492 12.1902 13.6376 12.2014 13.6261L17.8022 8.01202C18.3497 7.46465 18.3509 6.57588 17.8047 6.02711C17.804 6.02623 17.8031 6.02553 17.8022 6.02465L12.2014 0.410614C11.6539 -0.137456 10.7669 -0.136754 10.2201 0.412018C9.67333 0.96079 9.67403 1.84991 10.2215 2.39798L13.428 5.61623H1.40021C0.626942 5.61623 0 6.24465 0 7.01974C0 7.79483 0.626942 8.42325 1.40021 8.42325Z" transform="translate(32.2031 39.296)" fill="white"/>
<path fill-rule="evenodd" clip-rule="evenodd" d="M0.411377 7.96246L6.0122 13.5765C6.56844 14.1149 7.45494 14.0995 7.99209 13.5421C8.51612 12.9981 8.51612 12.1358 7.99209 11.5919L4.77722 8.37228H16.7938C17.5671 8.37228 18.194 7.74386 18.194 6.96877C18.194 6.19369 17.5671 5.56526 16.7938 5.56526H4.77722L7.98789 2.34702C8.50772 1.77316 8.46501 0.885615 7.89251 0.364387C7.35955 -0.120701 6.54621 -0.121578 6.0122 0.362457L0.411377 5.97649C-0.136103 6.52386 -0.137328 7.41246 0.408927 7.9614C0.409627 7.96211 0.410502 7.96298 0.411377 7.96386V7.96246Z" transform="translate(26.6133 50.5751)" fill="white"/>
<path fill-rule="evenodd" clip-rule="evenodd" d="M1.40021 2.80702H2.80041C3.57368 2.80702 4.20062 2.1786 4.20062 1.40351C4.20062 0.628421 3.57368 0 2.80041 0H1.40021C0.626942 0 0 0.628421 0 1.40351C0 2.1786 0.626942 2.80702 1.40021 2.80702Z" transform="translate(2.80078 35.0876)" fill="white"/>
<path fill-rule="evenodd" clip-rule="evenodd" d="M4.20062 0H1.40021C0.626942 0 0 0.628421 0 1.40351C0 2.1786 0.626942 2.80702 1.40021 2.80702H4.20062C4.97388 2.80702 5.60083 2.1786 5.60083 1.40351C5.60083 0.628421 4.97388 0 4.20062 0Z" transform="translate(64.4102 57.5438)" fill="white"/>
<path fill-rule="evenodd" clip-rule="evenodd" d="M2.80078 8.42104V2.80701H5.50318L8.76986 8.42104H2.80078ZM6.30093 0H1.40021C0.626942 0 0 0.628421 0 1.40351V9.82456C0 10.5996 0.626942 11.2281 1.40021 11.2281H11.2017C11.9749 11.2265 12.6006 10.5968 12.5991 9.82175C12.5985 9.57632 12.5338 9.33526 12.4114 9.12281L7.51071 0.701754C7.26112 0.268421 6.8001 0.00105263 6.30093 0Z" transform="translate(64.4102 43.5088)" fill="white"/>
<path fill-rule="evenodd" clip-rule="evenodd" d="M19.6082 17.5067C19.6073 18.9892 19.2072 20.4437 18.4502 21.7172C17.5763 23.1932 16.2573 24.353 14.6837 25.0295L12.6016 25.9264V3.74951C14.7934 4.74811 17.2025 5.17179 19.6026 4.98039L19.6082 17.5067ZM3.96266 21.7172C3.20567 20.4437 2.80556 18.9892 2.80469 17.5067V4.98039C5.20482 5.17179 7.61387 4.74828 9.80572 3.74951V25.9249L7.72921 25.0281C6.15573 24.352 4.83691 23.1927 3.96266 21.7172ZM20.7329 1.99228C17.9216 2.56053 15.0001 2.0507 12.5458 0.563509L11.9312 0.191579C11.8925 0.172281 11.8527 0.154912 11.8121 0.139649C11.7715 0.12 11.7309 0.103158 11.6889 0.0863158C11.3781 -0.0287719 11.0364 -0.0287719 10.7256 0.0863158C10.6836 0.103158 10.643 0.12 10.6024 0.139649C10.5618 0.154912 10.522 0.172281 10.4833 0.191579L9.86865 0.563509C7.41462 2.05228 4.49186 2.56228 1.68025 1.99228C0.922561 1.83719 0.182902 2.32719 0.0283542 3.08667C0.00945139 3.17912 0 3.27333 0 3.36772V17.5011C0 19.4919 0.536979 21.4458 1.55423 23.1558C2.729 25.1397 4.50201 26.6986 6.61738 27.6077L10.6472 29.3481C10.9984 29.4996 11.3965 29.4996 11.7477 29.3481L15.7789 27.6077C17.8943 26.6986 19.6673 25.1397 20.8421 23.1558C21.8618 21.4465 22.4012 19.4926 22.4033 17.5011V3.36772C22.4035 2.59263 21.7767 1.96404 21.0034 1.96386C20.9093 1.96386 20.8153 1.97333 20.7231 1.99228H20.7329Z" transform="translate(61.6094 0.010498)" fill="white"/>
</svg>
