<svg width="70" height="70" viewBox="0 0 70 70" fill="none" xmlns="http://www.w3.org/2000/svg">
<path fill-rule="evenodd" clip-rule="evenodd" d="M3.5 2.33333C4.144 2.33333 4.66667 2.85717 4.66667 3.5H7C7 1.57033 5.42967 0 3.5 0C1.57033 0 0 1.57033 0 3.5H2.33333C2.33333 2.85717 2.856 2.33333 3.5 2.33333Z" transform="translate(26.832 22.1666)" fill="white"/>
<path fill-rule="evenodd" clip-rule="evenodd" d="M3.5 2.33333C4.144 2.33333 4.66667 2.85717 4.66667 3.5H7C7 1.57033 5.42967 0 3.5 0C1.57033 0 0 1.57033 0 3.5H2.33333C2.33333 2.85717 2.856 2.33333 3.5 2.33333Z" transform="translate(36.168 22.1666)" fill="white"/>
<path fill-rule="evenodd" clip-rule="evenodd" d="M4.66536 6.99998C3.37853 6.99998 2.33203 5.95348 2.33203 4.66665C2.33203 3.37981 3.37853 2.33331 4.66536 2.33331C5.9522 2.33331 6.9987 3.37981 6.9987 4.66665C6.9987 5.95348 5.9522 6.99998 4.66536 6.99998ZM4.66667 0C2.093 0 0 2.093 0 4.66667C0 7.24033 2.093 9.33333 4.66667 9.33333C7.24033 9.33333 9.33333 7.24033 9.33333 4.66667C9.33333 2.093 7.24033 0 4.66667 0Z" transform="translate(30.332 53.6666)" fill="white"/>
<path fill-rule="evenodd" clip-rule="evenodd" d="M57.167 67.6667V52.5C57.167 49.2835 54.5502 46.6667 51.3337 46.6667H41.5547L46.2039 37.3695C54.2387 37.7405 60.667 44.3742 60.667 52.5V67.6667H57.167ZM15.168 67.6667V52.5C15.168 50.5703 16.7383 49 18.668 49H51.3346C53.2643 49 54.8346 50.5703 54.8346 52.5V67.6667H15.168ZM9.33203 52.5C9.33203 44.3742 15.7604 37.7405 23.7952 37.3695L28.4444 46.6667H18.6654C15.4489 46.6667 12.832 49.2835 12.832 52.5V67.6667H9.33203V52.5ZM33.1114 46.6666H31.0534L26.3867 37.3333H28.4447L33.1114 46.6666ZM23.332 24.5V19.768C26.9755 19.4518 30.0672 17.6948 31.6107 15.2343C34.0514 18.4683 39.7552 20.7445 46.6654 20.9766V24.5C46.6654 27.1285 45.781 29.547 44.3099 31.5H34.9987V33.8333H41.9684C41.2987 34.335 40.5765 34.7666 39.8065 35.1166C36.7452 36.5073 33.251 36.5073 30.1885 35.1166C26.1519 33.2803 23.332 29.218 23.332 24.5ZM20.4167 24.5C18.8078 24.5 17.5 23.191 17.5 21.5834C17.5 19.9757 18.8078 18.6667 20.4167 18.6667H21V24.5H20.4167ZM46.6668 18.6375C38.247 18.3412 32.668 14.8983 32.668 11.6667C32.668 11.0227 32.1465 10.5 31.5013 10.5C30.8562 10.5 30.3347 11.0227 30.3347 11.6667C30.3347 14.5822 27.32 16.9983 23.4023 17.4265C24.0242 11.5745 28.9883 7 35.0013 7C41.4238 7 46.6505 12.2185 46.6668 18.6375ZM35.0013 2.33331C42.9883 2.33331 49.538 8.54348 50.112 16.387C49.9358 16.3683 49.7655 16.3333 49.5846 16.3333H48.7901C47.6748 9.72298 41.9243 4.66665 35.0013 4.66665C28.0783 4.66665 22.3278 9.72298 21.2125 16.3333H20.418C20.2371 16.3333 20.0668 16.3683 19.8906 16.387C20.4646 8.54348 27.0143 2.33331 35.0013 2.33331ZM49.5833 24.5H49V18.6667H49.5833C51.1922 18.6667 52.5 19.9757 52.5 21.5834C52.5 23.191 51.1922 24.5 49.5833 24.5ZM50.165 28C50.165 29.7698 48.8396 31.2211 47.1328 31.4521C47.9413 30.0463 48.5083 28.4888 48.7871 26.8333H49.5816C49.7811 26.8333 49.9713 26.796 50.165 26.7738V28ZM43.6114 37.3333L38.9447 46.6666H36.8867L41.5534 37.3333H43.6114ZM35.0007 38.5C36.249 38.5 37.4542 38.3203 38.6069 38.0123L35.0007 45.2247L31.3945 38.0123C32.5472 38.3203 33.7524 38.5 35.0007 38.5ZM63 52.5C63 42.8505 55.1495 35 45.5 35H44.2295C44.6448 34.6348 45.0357 34.2452 45.4055 33.8333H46.6667C49.8832 33.8333 52.5 31.2165 52.5 28V25.9443C53.9058 25.0017 54.8333 23.3987 54.8333 21.5833C54.8333 19.761 53.8988 18.1557 52.486 17.2142C52.3308 7.69767 44.5538 0 35 0C25.4462 0 17.6692 7.69767 17.514 17.2142C16.1012 18.1557 15.1667 19.761 15.1667 21.5833C15.1667 24.4778 17.5222 26.8333 20.4167 26.8333H21.2112C21.7572 30.0662 23.4092 32.921 25.7717 35H24.5C14.8505 35 7 42.8505 7 52.5V67.6667H0V70H70V67.6667H63V52.5Z" fill="#5da689"/>
<path fill-rule="evenodd" clip-rule="evenodd" d="M0 8.16667H2.33333V0H0V8.16667Z" transform="translate(50.168 57.1666)" fill="white"/>
<path fill-rule="evenodd" clip-rule="evenodd" d="M0 2.33333H2.33333V0H0V2.33333Z" transform="translate(50.168 52.5)" fill="white"/>
<path fill-rule="evenodd" clip-rule="evenodd" d="M0 2.33333H2.33333V0H0V2.33333Z" transform="translate(60.668 10.5)" fill="white"/>
<path fill-rule="evenodd" clip-rule="evenodd" d="M0 2.33333H2.33333V0H0V2.33333Z" transform="translate(60.668 15.1666)" fill="white"/>
<path fill-rule="evenodd" clip-rule="evenodd" d="M0 2.33333H2.33333V0H0V2.33333Z" transform="translate(60.668 19.8334)" fill="white"/>
<path fill-rule="evenodd" clip-rule="evenodd" d="M0 2.33333H2.33333V0H0V2.33333Z" transform="translate(7 24.5)" fill="white"/>
<path fill-rule="evenodd" clip-rule="evenodd" d="M0 2.33333H2.33333V0H0V2.33333Z" transform="translate(7 29.1666)" fill="white"/>
<path fill-rule="evenodd" clip-rule="evenodd" d="M0 2.33333H2.33333V0H0V2.33333Z" transform="translate(7 33.8334)" fill="white"/>
</svg>
