<svg width="48" height="50" viewBox="0 0 48 50" fill="none" xmlns="http://www.w3.org/2000/svg">
<path fill-rule="evenodd" clip-rule="evenodd" d="M42.9758 44.8632C41.8112 46.2518 40.1038 47.0481 38.2915 47.0481H9.06802C7.25571 47.0481 5.54829 46.2518 4.38364 44.8632C3.2189 43.4747 2.73169 41.6547 3.04702 39.8701L6.75093 18.9048C7.26792 15.9784 9.80014 13.8542 12.7719 13.8542H34.5876C37.5594 13.8542 40.0917 15.9783 40.6086 18.9047L44.3125 39.8701C44.6278 41.6547 44.1405 43.4747 42.9758 44.8632ZM19.7031 6.9272C19.7031 4.7352 21.4864 2.9519 23.6784 2.9519C25.8704 2.9519 27.6537 4.7352 27.6537 6.9272C27.6537 9.11909 25.8704 10.9025 23.6784 10.9025C21.4864 10.9025 19.7031 9.11909 19.7031 6.9272ZM47.2186 39.3565L43.5147 18.3913C42.748 14.052 38.9932 10.9024 34.5867 10.9024H29.3467C30.139 9.77627 30.6061 8.40566 30.6061 6.92715C30.6061 3.10752 27.4985 0 23.6788 0C19.8592 0 16.7517 3.10752 16.7517 6.92715C16.7517 8.40566 17.2188 9.77627 18.0111 10.9024H12.771C8.36457 10.9024 4.60978 14.052 3.84309 18.3913L0.139179 39.3565C-0.328302 42.0029 0.394159 44.7014 2.12121 46.7604C3.84816 48.8192 6.3798 50 9.06721 50H38.2906C40.978 50 43.5096 48.8191 45.2366 46.7604C46.9637 44.7015 47.6859 42.0029 47.2186 39.3565V39.3565Z" fill="#B2BFD1"/>
<path fill-rule="evenodd" clip-rule="evenodd" d="M6.5311 12.5907V10.8662H1.79322C1.19548 10.8662 0.747177 10.7333 0.448305 10.4675C0.149434 10.2018 0 9.84018 0 9.38278C0 9.26534 0.0220218 9.14636 0.0660661 9.02583C0.11011 8.9053 0.176176 8.77859 0.264264 8.6457C0.352353 8.5128 0.443586 8.38455 0.537967 8.26093C0.632347 8.13731 0.748748 7.98587 0.887173 7.80662L5.88932 1.23311C6.2165 0.800439 6.48548 0.486756 6.69627 0.292053C6.90705 0.09735 7.1603 0 7.45603 0C8.41242 0 8.8906 0.537743 8.8906 1.61325V8.7894H9.29644C9.78093 8.7894 10.1695 8.8543 10.462 8.98411C10.7546 9.11391 10.9009 9.39823 10.9009 9.83709C10.9009 10.1956 10.7814 10.4567 10.5423 10.6205C10.3032 10.7843 9.94452 10.8662 9.46632 10.8662H8.8906V12.5907C8.8906 13.0667 8.78364 13.4205 8.56971 13.6523C8.35578 13.8841 8.0695 14 7.71085 14C7.3585 14 7.07379 13.881 6.85671 13.643C6.63964 13.4051 6.5311 13.0543 6.5311 12.5907ZM2.47266 8.78934H6.531V3.40259L2.47266 8.78934ZM20.1978 2.46628H15.7147L15.1768 5.47026C16.0702 5.0005 16.8945 4.76562 17.6495 4.76562C18.2536 4.76562 18.8183 4.87688 19.3436 5.0994C19.869 5.32191 20.3299 5.62942 20.7263 6.02191C21.1227 6.41441 21.4342 6.87953 21.6607 7.41728C21.8872 7.95503 22.0004 8.53295 22.0004 9.15105C22.0004 10.0473 21.796 10.8632 21.387 11.5987C20.978 12.3343 20.3881 12.9184 19.6173 13.3511C18.8466 13.7837 17.9578 14.0001 16.9511 14.0001C15.8248 14.0001 14.9109 13.7961 14.2094 13.3881C13.5078 12.9802 13.0107 12.512 12.7182 11.9835C12.4256 11.455 12.2793 10.993 12.2793 10.5974C12.2793 10.3563 12.3815 10.1277 12.586 9.91132C12.7905 9.69498 13.0469 9.58681 13.3552 9.58681C13.8838 9.58681 14.277 9.88659 14.535 10.4862C14.7867 11.0363 15.1264 11.4643 15.5543 11.7703C15.9821 12.0762 16.4603 12.2292 16.9889 12.2292C17.4734 12.2292 17.8981 12.1056 18.263 11.8583C18.6279 11.6111 18.9095 11.2711 19.1077 10.8385C19.3059 10.4058 19.405 9.91441 19.405 9.3643C19.405 8.77092 19.298 8.26408 19.0841 7.84377C18.8702 7.42346 18.5839 7.10977 18.2252 6.90271C17.8666 6.69564 17.4671 6.59211 17.0266 6.59211C16.4855 6.59211 16.0985 6.65701 15.8657 6.78681C15.6329 6.91662 15.2979 7.14377 14.8606 7.46827C14.4233 7.79278 14.0631 7.95503 13.7799 7.95503C13.4716 7.95503 13.1979 7.84531 12.9588 7.62589C12.7197 7.40646 12.6002 7.15768 12.6002 6.87953C12.6002 6.84862 12.6348 6.63847 12.704 6.24906L13.4968 1.80801C13.5849 1.27644 13.7485 0.890126 13.9876 0.649065C14.2267 0.408004 14.6168 0.287476 15.1579 0.287476H20.1412C21.1227 0.287476 21.6135 0.655242 21.6135 1.39079C21.6135 1.7122 21.4939 1.9718 21.2548 2.16959C21.0157 2.36739 20.6634 2.46628 20.1978 2.46628Z" transform="translate(12 23)" fill="#45d2c9"/>
</svg>
