<svg width="54" height="38" viewBox="0 0 54 38" fill="none" xmlns="http://www.w3.org/2000/svg">
<path fill-rule="evenodd" clip-rule="evenodd" d="M1.76758 25.6279H51.256V1.76746H1.76758V25.6279ZM52.1395 0H0.883721C0.395686 0 0 0.395686 0 0.883721V26.5116C0 26.9997 0.395686 27.3953 0.883721 27.3953H52.1395C52.6276 27.3953 53.0233 26.9997 53.0233 26.5116V0.883721C53.0233 0.395686 52.6276 0 52.1395 0Z" fill="#B2BFD1"/>
<path fill-rule="evenodd" clip-rule="evenodd" d="M4.41874 7.06978C2.95453 7.06978 1.76758 5.88283 1.76758 4.41862C1.76758 2.9544 2.95453 1.76746 4.41874 1.76746C5.88296 1.76746 7.0699 2.9544 7.0699 4.41862C7.0699 5.88283 5.88296 7.06978 4.41874 7.06978ZM4.4186 0C1.97832 0 0 1.97832 0 4.4186C0 6.85889 1.97832 8.83721 4.4186 8.83721C6.85889 8.83721 8.83721 6.85889 8.83721 4.4186C8.83434 1.97954 6.85767 0.00287209 4.4186 0Z" transform="translate(13.2559 29.1628)" fill="#B2BFD1"/>
<path fill-rule="evenodd" clip-rule="evenodd" d="M0 1.76744H1.76744V0H0V1.76744Z" transform="translate(16.791 32.6977)" fill="#B2BFD1"/>
<path fill-rule="evenodd" clip-rule="evenodd" d="M4.41874 7.06978C2.95453 7.06978 1.76758 5.88283 1.76758 4.41862C1.76758 2.9544 2.95453 1.76746 4.41874 1.76746C5.88296 1.76746 7.0699 2.9544 7.0699 4.41862C7.0699 5.88283 5.88296 7.06978 4.41874 7.06978ZM4.4186 0C1.97832 0 0 1.97832 0 4.4186C0 6.85889 1.97832 8.83721 4.4186 8.83721C6.85889 8.83721 8.83721 6.85889 8.83721 4.4186C8.83434 1.97954 6.85767 0.00287209 4.4186 0Z" transform="translate(4.41797 29.1628)" fill="#B2BFD1"/>
<path fill-rule="evenodd" clip-rule="evenodd" d="M0 1.76744H1.76744V0H0V1.76744Z" transform="translate(7.95312 32.6977)" fill="#B2BFD1"/>
<path fill-rule="evenodd" clip-rule="evenodd" d="M4.41874 7.06978C2.95453 7.06978 1.76758 5.88283 1.76758 4.41862C1.76758 2.9544 2.95453 1.76746 4.41874 1.76746C5.88296 1.76746 7.0699 2.9544 7.0699 4.41862C7.0699 5.88283 5.88296 7.06978 4.41874 7.06978ZM4.4186 0C1.97832 0 0 1.97832 0 4.4186C0 6.85889 1.97832 8.83721 4.4186 8.83721C6.85889 8.83721 8.83721 6.85889 8.83721 4.4186C8.83434 1.97954 6.85767 0.00287209 4.4186 0Z" transform="translate(30.9297 29.1628)" fill="#B2BFD1"/>
<path fill-rule="evenodd" clip-rule="evenodd" d="M0 1.76744H1.76744V0H0V1.76744Z" transform="translate(34.4648 32.6977)" fill="#B2BFD1"/>
<path fill-rule="evenodd" clip-rule="evenodd" d="M4.41874 7.06978C2.95453 7.06978 1.76758 5.88283 1.76758 4.41862C1.76758 2.9544 2.95453 1.76746 4.41874 1.76746C5.88296 1.76746 7.0699 2.9544 7.0699 4.41862C7.0699 5.88283 5.88296 7.06978 4.41874 7.06978ZM4.4186 0C1.97832 0 0 1.97832 0 4.4186C0 6.85889 1.97832 8.83721 4.4186 8.83721C6.85889 8.83721 8.83721 6.85889 8.83721 4.4186C8.83434 1.97954 6.85767 0.00287209 4.4186 0Z" transform="translate(39.7676 29.1628)" fill="#B2BFD1"/>
<path fill-rule="evenodd" clip-rule="evenodd" d="M0 1.76744H1.76744V0H0V1.76744Z" transform="translate(43.3027 32.6977)" fill="#B2BFD1"/>
<path fill-rule="evenodd" clip-rule="evenodd" d="M1.76744 0V2.65116H0V4.4186H5.30233V2.65116H3.53488V0H1.76744Z" transform="translate(23.8613 30.0465)" fill="#5da689"/>
<path fill-rule="evenodd" clip-rule="evenodd" d="M0 1.76744H3.53488V0H0V1.76744Z" transform="translate(49.4883 29.1628)" fill="#5da689"/>
<path fill-rule="evenodd" clip-rule="evenodd" d="M0 1.76744H3.53488V0H0V1.76744Z" transform="translate(0 29.1628)" fill="#5da689"/>
<path fill-rule="evenodd" clip-rule="evenodd" d="M0 20.3256H1.76744V0H0V20.3256Z" transform="translate(4.41797 3.53491)" fill="#5da689"/>
<path fill-rule="evenodd" clip-rule="evenodd" d="M0 20.3256H1.76744V0H0V20.3256Z" transform="translate(7.95312 3.53491)" fill="#5da689"/>
<path fill-rule="evenodd" clip-rule="evenodd" d="M0 20.3256H1.76744V0H0V20.3256Z" transform="translate(11.4883 3.53491)" fill="#5da689"/>
<path fill-rule="evenodd" clip-rule="evenodd" d="M0 20.3256H1.76744V0H0V20.3256Z" transform="translate(15.0234 3.53491)" fill="#5da689"/>
<path fill-rule="evenodd" clip-rule="evenodd" d="M0 20.3256H1.76744V0H0V20.3256Z" transform="translate(18.5586 3.53491)" fill="#5da689"/>
<path fill-rule="evenodd" clip-rule="evenodd" d="M0 20.3256H1.76744V0H0V20.3256Z" transform="translate(22.0938 3.53491)" fill="#5da689"/>
<path fill-rule="evenodd" clip-rule="evenodd" d="M0 20.3256H1.76744V0H0V20.3256Z" transform="translate(25.627 3.53491)" fill="#5da689"/>
<path fill-rule="evenodd" clip-rule="evenodd" d="M0 20.3256H1.76744V0H0V20.3256Z" transform="translate(29.1621 3.53491)" fill="#5da689"/>
<path fill-rule="evenodd" clip-rule="evenodd" d="M0 20.3256H1.76744V0H0V20.3256Z" transform="translate(32.6973 3.53491)" fill="#5da689"/>
<path fill-rule="evenodd" clip-rule="evenodd" d="M0 20.3256H1.76744V0H0V20.3256Z" transform="translate(36.2324 3.53491)" fill="#5da689"/>
<path fill-rule="evenodd" clip-rule="evenodd" d="M0 20.3256H1.76744V0H0V20.3256Z" transform="translate(39.7676 3.53491)" fill="#5da689"/>
<path fill-rule="evenodd" clip-rule="evenodd" d="M0 20.3256H1.76744V0H0V20.3256Z" transform="translate(43.3027 3.53491)" fill="#5da689"/>
<path fill-rule="evenodd" clip-rule="evenodd" d="M0 20.3256H1.76744V0H0V20.3256Z" transform="translate(46.8379 3.53491)" fill="#5da689"/>
</svg>
