<svg width="55" height="50" viewBox="0 0 55 50" fill="none" xmlns="http://www.w3.org/2000/svg">
<path fill-rule="evenodd" clip-rule="evenodd" d="M51.3023 21.5796C52.0858 21.5796 52.7478 22.261 52.7478 23.0676V46.3131C52.7478 47.1102 52.0994 47.7586 51.3023 47.7586H3.63495C2.83784 47.7586 2.18945 47.1102 2.18945 46.3131V23.0676C2.18945 22.2609 2.85136 21.5796 3.63495 21.5796H51.3023ZM7.55078 19.0414C7.55078 18.5587 7.94349 18.166 8.42621 18.166C8.90894 18.166 9.30164 18.5586 9.30164 19.0414V19.3911H7.55078V19.0414ZM45.6348 19.0414C45.6348 18.5587 46.0275 18.166 46.5102 18.166C46.9929 18.166 47.3857 18.5586 47.3857 19.0414V19.3911H45.6348V19.0414ZM51.3015 19.391H49.5734V19.0413C49.5734 17.3518 48.1988 15.9771 46.5092 15.9771C44.8197 15.9771 43.4451 17.3518 43.4451 19.0413V19.391H11.4906V19.0413C11.4906 18.6845 11.4285 18.3422 11.3161 18.0235L24.6092 13.1001C25.4009 13.8001 26.44 14.2263 27.5774 14.2263C28.9582 14.2263 30.1948 13.5988 31.0186 12.6145L37.5372 15.4487C37.6794 15.5104 37.8274 15.5398 37.973 15.5398C38.3954 15.5398 38.7979 15.2937 38.9771 14.8815C39.2181 14.3273 38.9642 13.6826 38.4099 13.4416L31.9727 10.6428C32.0326 10.351 32.0642 10.0488 32.0642 9.73959C32.0642 7.64292 30.6186 5.87747 28.6717 5.38777V1.09431C28.6717 0.489914 28.1817 0 27.5774 0C26.973 0 26.483 0.489914 26.483 1.09431V6.3471C26.483 6.9515 26.973 7.44152 27.5774 7.44152C28.8415 7.44152 29.8702 8.4676 29.875 9.73079L28.342 9.06427C27.7878 8.82339 27.143 9.07736 26.902 9.63155C26.6611 10.1858 26.915 10.8305 27.4693 11.0715L28.8307 11.6634C28.4699 11.8994 28.0398 12.0378 27.5775 12.0378C26.3102 12.0378 25.2794 11.007 25.2794 9.7397C25.2794 9.1353 24.7894 8.64539 24.185 8.64539C23.5806 8.64539 23.0907 9.1353 23.0907 9.7397C23.0907 10.2634 23.1818 10.7661 23.3474 11.2337L9.73948 16.2735C9.3412 16.0839 8.89603 15.9773 8.42639 15.9773C6.7368 15.9773 5.36223 17.3519 5.36223 19.0414V19.3911H3.63412C1.63026 19.391 0 21.0403 0 23.0676V46.3131C0 48.317 1.63026 49.9472 3.63412 49.9472H51.3016C53.3054 49.9472 54.9356 48.317 54.9356 46.3131V23.0676C54.9356 21.0403 53.3054 19.391 51.3015 19.391Z" transform="translate(0 0.0527344)" fill="#B2BFD1"/>
<path fill-rule="evenodd" clip-rule="evenodd" d="M1.09431 0C0.489914 0 0 0.489914 0 1.09431V18.932C0 19.5364 0.489914 20.0263 1.09431 20.0263C1.69871 20.0263 2.18863 19.5364 2.18863 18.932V1.09431C2.18863 0.489914 1.69871 0 1.09431 0Z" transform="translate(8.91797 24.7301)" fill="#5da689"/>
<path fill-rule="evenodd" clip-rule="evenodd" d="M1.09431 0C0.489914 0 0 0.489914 0 1.09431V18.932C0 19.5364 0.489914 20.0263 1.09431 20.0263C1.69871 20.0263 2.18873 19.5364 2.18873 18.932V1.09431C2.18873 0.489914 1.69871 0 1.09431 0Z" transform="translate(17.5645 24.7301)" fill="#5da689"/>
<path fill-rule="evenodd" clip-rule="evenodd" d="M1.09431 0C0.489914 0 0 0.489914 0 1.09431V18.932C0 19.5364 0.489914 20.0263 1.09431 20.0263C1.69861 20.0263 2.18863 19.5364 2.18863 18.932V1.09431C2.18863 0.489914 1.69861 0 1.09431 0Z" transform="translate(26.3184 24.7301)" fill="#5da689"/>
<path fill-rule="evenodd" clip-rule="evenodd" d="M1.09442 0C0.490129 0 0 0.489914 0 1.09431V18.932C0 19.5364 0.490129 20.0263 1.09442 20.0263C1.69871 20.0263 2.18873 19.5364 2.18873 18.932V1.09431C2.18873 0.489914 1.69871 0 1.09442 0Z" transform="translate(35.0742 24.7301)" fill="#5da689"/>
<path fill-rule="evenodd" clip-rule="evenodd" d="M1.09431 0C0.490021 0 0 0.489914 0 1.09431V18.932C0 19.5364 0.490021 20.0263 1.09431 20.0263C1.69861 20.0263 2.18863 19.5364 2.18863 18.932V1.09431C2.18863 0.489914 1.69861 0 1.09431 0Z" transform="translate(43.8281 24.7301)" fill="#5da689"/>
<path fill-rule="evenodd" clip-rule="evenodd" d="M0.659695 2.09877L1.41806 2.4272C1.5598 2.48857 1.70723 2.51765 1.8524 2.51765C2.27536 2.51765 2.67826 2.27087 2.85723 1.85789C3.09736 1.30338 2.84242 0.65896 2.28781 0.418939L1.52944 0.0905055C0.975038 -0.149838 0.330725 0.10499 0.0903812 0.659711C-0.149748 1.21433 0.105081 1.85875 0.659695 2.09877Z" transform="translate(40.0527 14.7166)" fill="#B2BFD1"/>
</svg>
