<svg width="60" height="60" viewBox="0 0 60 60" fill="none" xmlns="http://www.w3.org/2000/svg">
<path fill-rule="evenodd" clip-rule="evenodd" d="M9.50837 59.6886C9.02398 59.6886 8.63105 59.2953 8.63105 58.8109V55.6982H4.33227V58.8109C4.33227 59.2953 3.93934 59.6886 3.45459 59.6886C2.96873 59.6886 2.57581 59.2953 2.57581 58.8109V55.6982H1.11532C0.630929 55.6982 0.237636 55.3053 0.237636 54.8209C0.237636 54.3351 0.630929 53.9418 1.11532 53.9418H2.57581V49.3686H1.11532C0.630929 49.3686 0.237636 48.9757 0.237636 48.4913C0.237636 48.0054 0.630929 47.6125 1.11532 47.6125H2.57581V43.0393H1.11532C0.630929 43.0393 0.237636 42.646 0.237636 42.1616C0.237636 41.6758 0.630929 41.2829 1.11532 41.2829H2.57581V36.7097H1.11532C0.630929 36.7097 0.237636 36.3168 0.237636 35.832C0.237636 35.3462 0.630929 34.9532 1.11532 34.9532H2.57581V30.6358L0.84788 30.5743C0.362027 30.5575 -0.0166319 30.1514 0.000563185 29.667C0.0177583 29.1826 0.42788 28.8051 0.909344 28.8197L2.57581 28.8782V26.6915C2.57581 26.0099 2.60434 25.3368 2.65886 24.6694L1.04654 24.4448C0.566539 24.3779 0.232149 23.9348 0.298002 23.4544C0.364953 22.9744 0.809466 22.6371 1.28837 22.7059L2.863 22.9243C3.0902 21.4412 3.45056 20.0019 3.93203 18.6171L2.49861 18.0983C2.04276 17.9326 1.80715 17.4296 1.97142 16.9737C2.13715 16.5179 2.64166 16.2833 3.09605 16.4476L4.56678 16.9792C5.24105 15.4115 6.073 13.9254 7.04325 12.5432L5.90837 11.7259C5.51544 11.4427 5.4269 10.894 5.70971 10.4996C5.99434 10.1066 6.54312 10.0181 6.93605 10.3009L8.10239 11.1427C9.18971 9.80518 10.4146 8.58323 11.7536 7.49847L10.8562 6.27103C10.5704 5.8792 10.6546 5.33042 11.0461 5.04323C11.4379 4.75749 11.9867 4.8431 12.2739 5.23493L13.157 6.44225C14.6746 5.38347 16.3154 4.48896 18.0547 3.78725L17.6658 2.47932C17.5271 2.01359 17.7917 1.52481 18.2574 1.38615C18.722 1.24896 19.2108 1.51347 19.3495 1.97774L19.7095 3.18981C21.2186 2.70396 22.7892 2.35932 24.41 2.17237L24.2812 0.970178C24.23 0.488715 24.5786 0.0555439 25.0601 0.00432438C25.5404 -0.0428707 25.9747 0.301398 26.0263 0.78469L26.1606 2.03225C26.525 2.01652 26.8923 2.0092 27.2596 2.0092C27.744 2.0092 28.1369 2.40213 28.1369 2.88689C28.1369 3.37128 27.744 3.7642 27.2596 3.7642C26.9537 3.7642 26.6508 3.77152 26.3479 3.78286L26.8864 8.81335C27.0093 8.81042 27.1352 8.81042 27.2596 8.81042C27.744 8.81042 28.1369 9.20335 28.1369 9.6881C28.1369 10.1725 27.744 10.5654 27.2596 10.5654C27.1981 10.5654 27.1352 10.5669 27.0737 10.5669L27.2124 11.866C27.264 12.3475 26.915 12.7807 26.4335 12.8333C25.952 12.8791 25.5174 12.5348 25.4658 12.053L25.3187 10.677C24.2241 10.8025 23.1609 11.0341 22.1391 11.3601L22.5262 12.6618C22.6648 13.1264 22.3992 13.6152 21.9346 13.7538C21.4689 13.891 20.9815 13.6265 20.8429 13.1623L20.4928 11.9831C19.6711 12.3431 18.8834 12.769 18.1359 13.2508L18.8534 14.2313C19.1406 14.6227 19.055 15.173 18.6635 15.4587C18.2717 15.7444 17.7229 15.6588 17.4371 15.2674L16.7128 14.2781C16.0509 14.8086 15.4308 15.3888 14.8561 16.0119L15.9781 16.8208C16.3711 17.1051 16.4596 17.6538 16.1768 18.0468C15.8925 18.4397 15.3437 18.5286 14.9504 18.2454L13.7314 17.3666C13.1698 18.1185 12.6697 18.9201 12.238 19.7604L13.5756 20.2463C14.0318 20.4105 14.2674 20.9151 14.1017 21.3709C13.9374 21.8268 13.4343 22.0613 12.977 21.897L11.5165 21.368C11.1862 22.2197 10.9246 23.1058 10.7362 24.0179L12.3295 24.2377C12.8098 24.3051 13.1442 24.7481 13.0784 25.2281C13.0114 25.7099 12.5654 26.0429 12.088 25.9785L10.4702 25.7542C10.4161 26.3085 10.3875 26.8701 10.3875 27.439V29.1526L12.0481 29.2112C12.5325 29.2283 12.9112 29.6341 12.8954 30.1199C12.8782 30.6043 12.4681 30.9804 11.9867 30.9662L10.3875 30.9102V34.9547H12.2611C12.7469 34.9547 13.1398 35.3476 13.1398 35.832C13.1398 36.3168 12.7469 36.7097 12.2611 36.7097H10.3875V41.2843H12.2611C12.7469 41.2843 13.1398 41.6772 13.1398 42.1616C13.1398 42.646 12.7469 43.0393 12.2611 43.0393H10.3875V47.614H12.2611C12.7469 47.614 13.1398 48.0069 13.1398 48.4913C13.1398 48.9757 12.7469 49.3701 12.2611 49.3701H10.3875V53.9432H12.2611C12.7469 53.9432 13.1398 54.3365 13.1398 54.8209C13.1398 55.3068 12.7469 55.6997 12.2611 55.6997H10.3875V58.8109C10.3875 59.2953 9.99422 59.6886 9.50837 59.6886ZM4.33203 53.9418H8.63081V49.3686H4.33203V53.9418ZM4.33203 47.6125H8.63081V43.0393H4.33203V47.6125ZM4.33203 41.2829H8.63081V36.7097H4.33203V41.2829ZM4.33203 34.9532H8.63081V30.8487L4.33203 30.6973V34.9532ZM4.33203 28.9411L8.63081 29.0911V27.4389C8.63081 26.7888 8.66374 26.1456 8.72923 25.5124L4.40045 24.9109C4.35471 25.4981 4.33203 26.0926 4.33203 26.6915V28.9411ZM4.60352 23.1658L8.9923 23.7745C9.19974 22.7399 9.49242 21.7353 9.86413 20.7694L5.58254 19.2171C5.14388 20.4862 4.81352 21.807 4.60352 23.1658ZM6.2207 17.581L10.5736 19.1571C11.0683 18.1642 11.6485 17.2221 12.3059 16.339L8.46595 13.5709C7.58973 14.8229 6.83534 16.1648 6.2207 17.581ZM9.5293 12.1719L13.4238 14.9783C14.1138 14.2126 14.8671 13.5036 15.676 12.8604L12.7934 8.9176C11.6 9.89077 10.5054 10.9814 9.5293 12.1719ZM14.1953 7.85992L17.0991 11.8316C18.0097 11.2357 18.977 10.7183 19.989 10.2881L18.5585 5.47931C17.012 6.11663 15.5501 6.91675 14.1953 7.85992ZM20.209 4.87309L21.6369 9.67638C22.7601 9.32077 23.929 9.0676 25.1308 8.93041L24.5952 3.91858C23.0846 4.09419 21.6168 4.41724 20.209 4.87309Z" transform="translate(30.9902 0.311035)" fill="#B2BFD1"/>
<path fill-rule="evenodd" clip-rule="evenodd" d="M24.6823 46.6177C24.1979 46.6177 23.8046 46.2248 23.8046 45.7404V43.0408H19.5073V45.7404C19.5073 46.2248 19.1129 46.6177 18.6285 46.6177C18.1441 46.6177 17.7512 46.2248 17.7512 45.7404V43.0408H15.8762C15.3915 43.0408 14.9985 42.6478 14.9985 42.1631C14.9985 41.6772 15.3915 41.2843 15.8762 41.2843H17.7512V36.7111H15.8762C15.3915 36.7111 14.9985 36.3182 14.9985 35.8338C14.9985 35.348 15.3915 34.9547 15.8762 34.9547H17.7512V30.3815H15.8762C15.3915 30.3815 14.9985 29.9886 14.9985 29.5027C14.9985 29.0183 15.3915 28.6254 15.8762 28.6254H17.7512V27.4389C17.7512 26.7716 17.711 26.1127 17.6352 25.467L16.0504 25.6869C15.5704 25.7542 15.1259 25.4169 15.06 24.9365C14.9927 24.4565 15.3285 24.0135 15.8089 23.9461L17.3407 23.7347C17.1465 22.8716 16.8863 22.0342 16.5662 21.2267L15.1313 21.8154C14.6828 21.9998 14.1695 21.7854 13.9855 21.3369C13.8011 20.888 14.0155 20.375 14.464 20.1907L15.8316 19.6291C15.416 18.8359 14.9385 18.0797 14.407 17.3666L13.1865 18.2469C12.7935 18.53 12.2448 18.4415 11.9616 18.0467C11.6773 17.6538 11.7673 17.105 12.1602 16.8222L13.2823 16.0133C12.7076 15.3903 12.086 14.81 11.4256 14.2785L10.7012 15.2688C10.4155 15.6617 9.86524 15.7459 9.47378 15.4602C9.08342 15.173 8.99781 14.6242 9.28354 14.2327L10.001 13.2508C9.25354 12.7693 8.46768 12.3449 7.64561 11.9831L7.29439 13.1637C7.15683 13.628 6.66841 13.891 6.20378 13.7538C5.73805 13.6166 5.47354 13.1278 5.6122 12.6621L5.99817 11.3615C4.97744 11.0355 3.91281 10.8043 2.81817 10.6785L2.6711 12.0548C2.61951 12.5363 2.18524 12.8835 1.70488 12.8333C1.22341 12.7821 0.873293 12.3489 0.924512 11.8675L1.06463 10.5683C1.00171 10.5669 0.940244 10.5669 0.877317 10.5669C0.392927 10.5669 0 10.1739 0 9.68955C0 9.2037 0.392927 8.81041 0.877317 8.81041C1.00317 8.81041 1.12756 8.81187 1.25195 8.8148L1.78939 3.78431C1.48756 3.7715 1.18317 3.76565 0.877317 3.76565C0.392927 3.76565 0 3.37272 0 2.88833C0 2.40248 0.392927 2.00955 0.877317 2.00955C1.2461 2.00955 1.61341 2.01797 1.97634 2.0337L2.11098 0.784675C2.16219 0.302845 2.59683 -0.0428863 3.07683 0.00430885C3.55976 0.0573576 3.90878 0.488699 3.8572 0.971992L3.72841 2.17382C5.34768 2.35967 6.91829 2.70394 8.4289 3.1898L8.7889 1.97919C8.9261 1.51492 9.41488 1.25041 9.88098 1.3876C10.3452 1.52626 10.6098 2.01504 10.4726 2.47967L10.0826 3.7887C11.8215 4.49041 13.4623 5.38492 14.9799 6.44407L15.863 5.23638C16.1491 4.84346 16.6994 4.75894 17.0909 5.04467C17.4809 5.33224 17.5668 5.88102 17.2807 6.27248L16.3818 7.49992C17.7223 8.58467 18.9472 9.80663 20.0349 11.1442L21.2009 10.3024C21.5938 10.0196 22.1426 10.1081 22.4272 10.501C22.71 10.8958 22.6215 11.4446 22.2285 11.7274L21.0937 12.5447C21.9713 13.7937 22.736 15.1287 23.3718 16.5336L24.7738 15.9577C25.2223 15.7733 25.7356 15.9877 25.92 16.4363C26.1044 16.8852 25.89 17.3981 25.4411 17.5825L24.0391 18.1569C24.5707 19.5947 24.9724 21.0925 25.2282 22.6386L26.8489 22.4143C27.3274 22.347 27.7719 22.6828 27.8393 23.1632C27.9062 23.6432 27.5704 24.0877 27.0904 24.1536L25.4539 24.3808C25.5241 25.1425 25.5611 25.9126 25.5611 26.6915V28.6239H27.0216C27.5078 28.6239 27.9007 29.0169 27.9007 29.5027C27.9007 29.9871 27.5078 30.38 27.0216 30.38H25.5611V34.9547H27.0216C27.5078 34.9547 27.9007 35.348 27.9007 35.8324C27.9007 36.3167 27.5078 36.7097 27.0216 36.7097H25.5611V41.2843H27.0216C27.5078 41.2843 27.9007 41.6772 27.9007 42.162C27.9007 42.6464 27.5078 43.0393 27.0216 43.0393H25.5611V45.7389C25.5611 46.2248 25.1682 46.6177 24.6823 46.6177Z" transform="translate(0 13.0815)" fill="#5da689"/>
<path fill-rule="evenodd" clip-rule="evenodd" d="M0 4.57317H4.29732V0H0V4.57317Z" transform="translate(19.5078 49.7927)" fill="#112D57"/>
<path fill-rule="evenodd" clip-rule="evenodd" d="M0 4.57317H4.29732V0H0V4.57317Z" transform="translate(19.5078 43.4631)" fill="#112D57"/>
<path fill-rule="evenodd" clip-rule="evenodd" d="M0.131341 4.00171H4.42866V2.06927C4.42866 1.37195 4.39719 0.681585 4.33573 0L0 0.601829C0.0870732 1.32768 0.131341 2.06634 0.131341 2.81524V4.00171Z" transform="translate(19.375 37.7053)" fill="#112D57"/>
<path fill-rule="evenodd" clip-rule="evenodd" d="M0 1.73378C0.375732 2.67695 0.677195 3.65707 0.895976 4.6661L5.29756 4.05585C5.06342 2.65683 4.70159 1.30207 4.22451 0L0 1.73378Z" transform="translate(18.1895 31.9072)" fill="#112D57"/>
<path fill-rule="evenodd" clip-rule="evenodd" d="M0 2.76805C0.612805 3.59122 1.16012 4.46744 1.63171 5.38793L5.91622 3.62854C5.33342 2.35244 4.6372 1.1389 3.84 0L0 2.76805Z" transform="translate(15.8301 26.6539)" fill="#112D57"/>
<path fill-rule="evenodd" clip-rule="evenodd" d="M0 3.94171C0.807439 4.58451 1.56073 5.29354 2.25256 6.0611L6.14524 3.25427C5.16915 2.06378 4.07451 0.973171 2.88256 0L0 3.94171Z" transform="translate(12.4629 22.0006)" fill="#112D57"/>
<path fill-rule="evenodd" clip-rule="evenodd" d="M0 4.80732C1.01195 5.23902 1.97817 5.75634 2.88988 6.35232L5.7922 2.38098C4.43744 1.43744 2.97549 0.637317 1.42939 0L0 4.80732Z" transform="translate(8.15039 18.5623)" fill="#112D57"/>
<path fill-rule="evenodd" clip-rule="evenodd" d="M0 5.01183C1.20183 5.14902 2.37073 5.40073 3.49427 5.7578L4.92183 0.954878C3.51402 0.498659 2.04768 0.175976 0.535976 0L0 5.01183Z" transform="translate(3.00586 17.0016)" fill="#112D57"/>
</svg>
