<svg width="42" height="50" viewBox="0 0 42 50" fill="none" xmlns="http://www.w3.org/2000/svg">
<path fill-rule="evenodd" clip-rule="evenodd" d="M0.976562 1.95312C1.51562 1.95312 1.95312 1.51562 1.95312 0.976562C1.95312 0.4375 1.51562 0 0.976562 0C0.4375 0 0 0.4375 0 0.976562C0 1.51562 0.4375 1.95312 0.976562 1.95312Z" transform="translate(27.4297 3.90625)" fill="#546F97"/>
<path fill-rule="evenodd" clip-rule="evenodd" d="M0.976562 1.95312C1.51562 1.95312 1.95312 1.51562 1.95312 0.976562C1.95312 0.4375 1.51562 0 0.976562 0C0.4375 0 0 0.4375 0 0.976562C0 1.51562 0.4375 1.95312 0.976562 1.95312Z" transform="translate(11.8047 3.90625)" fill="#546F97"/>
<path fill-rule="evenodd" clip-rule="evenodd" d="M33.8123 48.0469L29.1426 41.6016H31.7427L37.9121 48.0469H33.8123ZM13.127 43.5547L14.5421 41.6016H26.7299L28.1449 43.5547H13.127ZM7.46143 48.0469H3.2832L9.52764 41.6016H12.1313L7.46143 48.0469ZM3.99219 36.7188V7.7334C3.99219 5.41377 5.64287 3.3999 7.91699 2.94482C11.1048 2.30771 14.4732 1.95312 17.9355 1.95312H23.0947C26.5003 1.95312 29.921 2.28916 33.2625 2.95205C34.3674 3.1707 35.3703 3.77109 36.0859 4.64209C36.8013 5.51348 37.1952 6.61406 37.1952 7.74111V36.7188C37.1952 38.3342 35.881 39.6484 34.2655 39.6484H6.92178C5.30645 39.6484 3.99219 38.3342 3.99219 36.7188ZM34.4416 41.5971C37.0522 41.5035 39.1475 39.3519 39.1475 36.7188V7.74121C39.1475 6.16338 38.5961 4.62256 37.5945 3.40254C36.5922 2.18281 35.1881 1.34229 33.6414 1.03633C30.1754 0.348633 26.6267 0 23.0939 0H17.9347C14.5747 0 11.0748 0.321875 7.53317 1.02969C4.34908 1.6667 2.03815 4.48613 2.03815 7.7334V36.7188C2.03815 39.374 4.16901 41.5396 6.81031 41.5987L0.275256 48.3439C0.00230688 48.6256 -0.0756228 49.0432 0.0774045 49.4042C0.230237 49.7653 0.584436 50 0.976623 50H7.95904C8.27213 50 8.56617 49.8499 8.74987 49.5964L11.7122 45.5078H29.5604L32.5227 49.5965C32.7064 49.8499 33.0005 50 33.3135 50H40.1983C40.5894 50 40.9427 49.7666 41.0964 49.407C41.25 49.0473 41.1742 48.6308 40.9037 48.3481L34.4416 41.5971Z" fill="#B2BFD1"/>
<path fill-rule="evenodd" clip-rule="evenodd" d="M1.95312 16.2109H13.6719V1.95312H1.95312V16.2109ZM15.625 16.2109H27.3438V1.95312H15.625V16.2109ZM0.976562 18.1641H28.3203C28.8596 18.1641 29.2969 17.7268 29.2969 17.1875V0.976562C29.2969 0.437305 28.8596 0 28.3203 0H0.976562C0.437305 0 0 0.437305 0 0.976562V17.1875C0 17.7268 0.437305 18.1641 0.976562 18.1641Z" transform="translate(5.94531 7.8125)" fill="#45d2c9"/>
<path fill-rule="evenodd" clip-rule="evenodd" d="M0.976562 1.95312H8.78906C9.32832 1.95312 9.76562 1.51582 9.76562 0.976562C9.76562 0.437305 9.32832 0 8.78906 0H0.976562C0.437305 0 0 0.437305 0 0.976562C0 1.51582 0.437305 1.95312 0.976562 1.95312Z" transform="translate(15.7109 3.90625)" fill="#45d2c9"/>
<path fill-rule="evenodd" clip-rule="evenodd" d="M3.90625 5.85938C2.8293 5.85938 1.95312 4.9832 1.95312 3.90625C1.95312 2.8293 2.8293 1.95312 3.90625 1.95312C4.9832 1.95312 5.85938 2.8293 5.85938 3.90625C5.85938 4.9832 4.9832 5.85938 3.90625 5.85938ZM3.90625 0C1.75234 0 0 1.75234 0 3.90625C0 6.06016 1.75234 7.8125 3.90625 7.8125C6.06016 7.8125 7.8125 6.06016 7.8125 3.90625C7.8125 1.75234 6.06016 0 3.90625 0Z" transform="translate(27.4297 28.9062)" fill="#45d2c9"/>
<path fill-rule="evenodd" clip-rule="evenodd" d="M3.90625 1.95312C4.9832 1.95312 5.85938 2.8293 5.85938 3.90625C5.85938 4.9832 4.9832 5.85938 3.90625 5.85938C2.8293 5.85938 1.95312 4.9832 1.95312 3.90625C1.95312 2.8293 2.8293 1.95312 3.90625 1.95312ZM3.90625 7.8125C6.06016 7.8125 7.8125 6.06016 7.8125 3.90625C7.8125 1.75234 6.06016 0 3.90625 0C1.75234 0 0 1.75234 0 3.90625C0 6.06016 1.75244 7.8125 3.90625 7.8125Z" transform="translate(5.94531 28.9062)" fill="#45d2c9"/>
<path fill-rule="evenodd" clip-rule="evenodd" d="M8.78906 0H0.976562C0.437305 0 0 0.437305 0 0.976562C0 1.51582 0.437305 1.95312 0.976562 1.95312H8.78906C9.32832 1.95312 9.76562 1.51582 9.76562 0.976562C9.76562 0.437305 9.32842 0 8.78906 0Z" transform="translate(15.7109 29.8828)" fill="#B2BFD1"/>
<path fill-rule="evenodd" clip-rule="evenodd" d="M8.78906 0H0.976562C0.437305 0 0 0.437305 0 0.976562C0 1.51582 0.437305 1.95312 0.976562 1.95312H8.78906C9.32832 1.95312 9.76562 1.51582 9.76562 0.976562C9.76562 0.437305 9.32842 0 8.78906 0Z" transform="translate(15.7109 33.7891)" fill="#B2BFD1"/>
</svg>
