<svg width="80" height="80" viewBox="0 0 80 80" fill="none" xmlns="http://www.w3.org/2000/svg">
<path fill-rule="evenodd" clip-rule="evenodd" d="M26.627 51.2328C26.2159 51.2328 25.8129 51.3986 25.5223 51.689C25.2316 51.9812 25.0645 52.3844 25.0645 52.7937C25.0645 53.2062 25.2315 53.6078 25.5223 53.8984C25.8129 54.1904 26.2159 54.3562 26.627 54.3562C27.0379 54.3562 27.441 54.1904 27.7315 53.8984C28.0221 53.6078 28.1895 53.2061 28.1895 52.7937C28.1895 52.3844 28.0223 51.9812 27.7315 51.689C27.441 51.3984 27.0379 51.2328 26.627 51.2328Z" fill="#B2BFD1"/>
<path fill-rule="evenodd" clip-rule="evenodd" d="M73.372 56.6132H57.3009C56.4381 56.6132 55.7384 57.3129 55.7384 58.1757C55.7384 59.0385 56.4381 59.7382 57.3009 59.7382H69.7114C71.643 59.7382 73.2144 61.3096 73.2144 63.2411C73.2144 65.1727 71.643 66.7441 69.7114 66.7441H57.3011C56.4383 66.7441 55.7386 67.4438 55.7386 68.3066C55.7386 69.1694 56.4383 69.8691 57.3011 69.8691H65.7738C67.7053 69.8691 69.2767 71.4405 69.2767 73.3721C69.2767 75.3036 67.7053 76.875 65.7738 76.875H38.4714C35.8498 76.875 33.283 76.3897 30.842 75.4325L28.1891 74.3921V59.0625C28.1891 58.1997 27.4894 57.5 26.6266 57.5C25.7638 57.5 25.0641 58.1997 25.0641 59.0625V74.9194C25.0641 75.9975 24.187 76.8747 23.1087 76.8747H3.125V39.476H23.1087C24.1869 39.476 25.0641 40.353 25.0641 41.4313V46.7368C25.0641 47.5996 25.7638 48.2993 26.6266 48.2993C27.4894 48.2993 28.1891 47.5996 28.1891 46.7368V41.45L33.0011 38.8296C36.8278 36.746 39.7517 33.3419 41.2344 29.2443L45.0375 18.7336L46.3597 19.1355C48.2955 19.7241 49.8714 21.0388 50.7973 22.8377C51.7234 24.6366 51.8777 26.6832 51.2319 28.6005L48.2631 37.4144C48.1025 37.8913 48.1814 38.4161 48.4747 38.8247C48.7683 39.2333 49.2406 39.4757 49.7438 39.4757H69.3063C71.2378 39.4757 72.8092 41.0471 72.8092 42.9786C72.8092 44.9102 71.2378 46.4816 69.3063 46.4816H57.3009C56.4381 46.4816 55.7384 47.1813 55.7384 48.0441C55.7384 48.9069 56.4381 49.6066 57.3009 49.6066H62.5264C62.5295 49.6066 62.5325 49.6071 62.5355 49.6071H73.372C75.3036 49.6071 76.875 51.1785 76.875 53.1101C76.875 55.0419 75.3036 56.6132 73.372 56.6132ZM80 53.1103C80 49.9549 77.7827 47.3091 74.8247 46.6447C75.525 45.5941 75.9342 44.3335 75.9342 42.9789C75.9342 39.3242 72.9609 36.351 69.3063 36.351H51.9188L54.1933 29.5983C55.1113 26.8732 54.8919 23.9642 53.5758 21.4075C52.2597 18.851 50.0197 16.9822 47.2687 16.1458L44.5273 15.3125C43.7306 15.0702 42.8863 15.4942 42.6034 16.2758L38.2958 28.1811C37.0731 31.56 34.662 34.3671 31.5066 36.0852L27.2033 38.4286C26.2777 37.1699 24.7873 36.3511 23.1087 36.3511H1.5625C0.699687 36.3511 0 37.0508 0 37.9136V78.4374C0 79.3002 0.699687 79.9999 1.5625 79.9999H23.1087C24.978 79.9999 26.6134 78.9844 27.4956 77.4769L29.7011 78.3419C32.507 79.4422 35.4578 80 38.4714 80H65.7738C69.4284 80 72.4017 77.0267 72.4017 73.3721C72.4017 72.0066 71.9864 70.7366 71.2759 69.6808C74.1778 68.9757 76.3394 66.3567 76.3394 63.2411C76.3394 61.8488 75.9069 60.556 75.1705 59.4882C77.9536 58.7022 80 56.1416 80 53.1103Z" fill="#5da689"/>
<path fill-rule="evenodd" clip-rule="evenodd" d="M17.0584 70.5549C16.3682 70.5549 15.8066 69.9933 15.8066 69.3031C15.8066 68.613 16.3682 68.0516 17.0584 68.0516C17.7485 68.0516 18.3101 68.613 18.3101 69.3031C18.3101 69.9933 17.7485 70.5549 17.0584 70.5549ZM17.0584 64.9266C14.6451 64.9266 12.6816 66.8899 12.6816 69.3031C12.6816 71.7164 14.6449 73.6799 17.0584 73.6799C19.4718 73.6799 21.4351 71.7166 21.4351 69.3031C21.4351 66.89 19.4716 64.9266 17.0584 64.9266Z" fill="#B2BFD1"/>
<path fill-rule="evenodd" clip-rule="evenodd" d="M46.6914 3.125C47.1025 3.125 47.5055 2.95781 47.7961 2.66703C48.0867 2.37656 48.2539 1.97344 48.2539 1.5625C48.2539 1.15156 48.0869 0.748438 47.7961 0.457812C47.5053 0.167187 47.1025 0 46.6914 0C46.2805 0 45.8773 0.167031 45.5869 0.457812C45.2962 0.748438 45.1289 1.15156 45.1289 1.5625C45.1289 1.97344 45.2961 2.37656 45.5869 2.66703C45.8773 2.95781 46.2805 3.125 46.6914 3.125Z" fill="#B2BFD1"/>
<path fill-rule="evenodd" clip-rule="evenodd" d="M46.6914 5.83325C45.8286 5.83325 45.1289 6.53294 45.1289 7.39575V11.1979C45.1289 12.0608 45.8286 12.7604 46.6914 12.7604C47.5542 12.7604 48.2539 12.0608 48.2539 11.1979V7.39575C48.2539 6.53294 47.5544 5.83325 46.6914 5.83325Z" fill="#B2BFD1"/>
<path fill-rule="evenodd" clip-rule="evenodd" d="M55.998 22.0728C55.998 22.9356 56.6977 23.6353 57.5605 23.6353H67.1959C68.0587 23.6353 68.7584 22.9356 68.7584 22.0728C68.7584 21.21 68.0587 20.5103 67.1959 20.5103H57.5605C56.6976 20.5103 55.998 21.2098 55.998 22.0728Z" fill="#B2BFD1"/>
<path fill-rule="evenodd" clip-rule="evenodd" d="M26.1797 23.6311H35.8152C36.678 23.6311 37.3777 22.9314 37.3777 22.0686C37.3777 21.2058 36.678 20.5061 35.8152 20.5061H26.1797C25.3169 20.5061 24.6172 21.2058 24.6172 22.0686C24.6172 22.9314 25.3167 23.6311 26.1797 23.6311Z" fill="#B2BFD1"/>
<path fill-rule="evenodd" clip-rule="evenodd" d="M36.7511 14.34C37.0563 14.645 37.4561 14.7976 37.856 14.7976C38.2558 14.7976 38.6557 14.645 38.9608 14.34C39.571 13.7298 39.571 12.7404 38.9608 12.1301L34.4116 7.58091C33.8013 6.97091 32.8122 6.97091 32.2018 7.58091C31.5916 8.19107 31.5916 9.18044 32.2018 9.79076L36.7511 14.34Z" fill="#B2BFD1"/>
<path fill-rule="evenodd" clip-rule="evenodd" d="M55.5236 14.8006C55.9236 14.8006 56.3232 14.648 56.6284 14.343L61.1776 9.79375C61.7878 9.18359 61.7878 8.19422 61.1776 7.5839C60.5673 6.9739 59.5782 6.9739 58.9678 7.5839L54.4186 12.1331C53.8084 12.7433 53.8084 13.7327 54.4186 14.343C54.7237 14.648 55.1236 14.8006 55.5236 14.8006Z" fill="#B2BFD1"/>
</svg>
