<svg width="80" height="80" viewBox="0 0 80 80" fill="none" xmlns="http://www.w3.org/2000/svg">
<path fill-rule="evenodd" clip-rule="evenodd" d="M57.4216 15.488C58.3037 16.1417 59.1588 16.852 59.9642 17.5995C60.2704 17.884 60.6598 18.0244 61.0477 18.0244C61.4745 18.0244 61.9004 17.8546 62.2138 17.5182C62.813 16.876 62.7766 15.8719 62.1328 15.274C61.2429 14.4482 60.2969 13.6627 59.3212 12.9383C58.6156 12.4158 57.6182 12.5615 57.0935 13.2657C56.5695 13.9698 56.7158 14.9645 57.4216 15.488Z" fill="#B2BFD1"/>
<path fill-rule="evenodd" clip-rule="evenodd" d="M13.6905 34.259C9.06226 34.259 5.29688 38.0152 5.29688 42.632C5.29688 47.2482 9.06226 51.0044 13.6905 51.0044C18.3179 51.0044 22.0833 47.2482 22.0833 42.632C22.0833 38.0152 18.3179 34.259 13.6905 34.259ZM13.6902 47.8282C10.8179 47.8282 8.48047 45.4973 8.48047 42.6312C8.48047 39.7661 10.8179 37.4352 13.6902 37.4352C16.5623 37.4352 18.899 39.7661 18.899 42.6312C18.899 45.4973 16.5623 47.8282 13.6902 47.8282Z" fill="#B2BFD1"/>
<path fill-rule="evenodd" clip-rule="evenodd" d="M48.0247 13.7371C48.0247 9.12015 44.2593 5.36392 39.6311 5.36392C35.0037 5.36392 31.2383 9.12015 31.2383 13.7371C31.2383 18.3533 35.0037 22.1095 39.6311 22.1095C44.2593 22.1095 48.0247 18.3533 48.0247 13.7371ZM34.4219 13.7371C34.4219 10.8718 36.7587 8.5401 39.6308 8.5401C42.5031 8.5401 44.8405 10.8718 44.8405 13.7371C44.8405 16.6022 42.5031 18.9334 39.6308 18.9334C36.7587 18.9334 34.4219 16.6022 34.4219 13.7371Z" fill="#B2BFD1"/>
<path fill-rule="evenodd" clip-rule="evenodd" d="M72.3844 44.0039C72.5912 42.5057 72.6968 40.9836 72.6968 39.4636C72.6968 32.1591 70.3549 25.2367 65.924 19.4435C65.3907 18.7463 64.392 18.6122 63.6931 19.1442C62.9937 19.677 62.8599 20.6733 63.393 21.3705C67.3972 26.6046 69.5129 32.8617 69.5129 39.4636C69.5129 40.5407 69.4538 41.6202 69.3396 42.688C68.1138 42.3281 66.8187 42.1312 65.4771 42.1312C57.9284 42.1312 51.7868 48.2578 51.7868 55.7889C51.7868 57.9725 52.8596 61.0828 54.9825 65.0693C50.3412 67.853 45.0451 69.3202 39.5845 69.3202C31.6768 69.3202 24.3031 66.3146 18.6846 60.8331C19.444 59.7226 20.2625 58.4905 21.0857 57.1924C25.263 50.6004 27.3813 45.7012 27.3813 42.632C27.3813 35.1011 21.2395 28.9744 13.6911 28.9744C12.9408 28.9744 12.2064 29.0372 11.4888 29.1535C14.0835 22.1343 19.2902 16.286 25.9712 12.8708C25.9533 13.1579 25.9408 13.4455 25.9408 13.7371C25.9408 16.8063 28.0591 21.7054 32.2364 28.2973C35.2641 33.0757 38.2421 36.9637 38.3672 37.1273C38.6687 37.5195 39.1359 37.7492 39.631 37.7492C40.1269 37.7492 40.5942 37.5195 40.8951 37.1273C41.0202 36.9637 43.9982 33.0757 47.0265 28.2973C51.2038 21.7054 53.3221 16.8063 53.3221 13.7371C53.3221 6.206 47.1805 0.0793457 39.631 0.0793457C33.7553 0.0793457 28.7331 3.7921 26.7951 8.98992C17.5792 12.8446 10.5187 20.7547 7.75921 30.3235C3.17218 32.532 0 37.2196 0 42.632C0 45.7012 2.1183 50.6004 6.2956 57.1924C9.32391 61.9706 12.3019 65.8586 12.427 66.0222C12.7279 66.4146 13.1952 66.6441 13.6911 66.6441C14.1862 66.6441 14.6534 66.4146 14.9549 66.0222C15.0156 65.9424 15.7509 64.9816 16.8376 63.4679C19.6034 66.0803 22.764 68.178 26.2588 69.7125C30.4671 71.5596 34.9501 72.4964 39.5845 72.4964C45.5947 72.4964 51.4255 70.8897 56.5434 67.8391C57.0206 68.6463 57.5336 69.483 58.0825 70.3491C61.111 75.1275 64.0881 79.0155 64.2139 79.1791C64.5148 79.5714 64.982 79.8018 65.4771 79.8018C65.973 79.8018 66.4402 79.5714 66.7411 79.1791C66.8669 79.0155 69.8441 75.1275 72.8726 70.3491C77.0499 63.7572 79.1682 58.8581 79.1682 55.7889C79.1682 50.7702 76.4389 46.3781 72.3844 44.0039ZM39.6313 3.25552C45.4249 3.25552 50.1385 7.95766 50.1385 13.7371C50.1385 18.2028 43.4224 28.3176 39.6313 33.5045C35.8403 28.3176 29.125 18.2028 29.125 13.7371C29.125 7.95766 33.838 3.25552 39.6313 3.25552ZM13.6907 62.3993C9.89967 57.2126 3.18359 47.0971 3.18359 42.632C3.18359 36.8519 7.89739 32.1506 13.6907 32.1506C19.4841 32.1506 24.1971 36.8519 24.1971 42.632C24.1971 47.0971 17.481 57.2126 13.6907 62.3993ZM65.477 75.5571C61.6868 70.3694 54.9707 60.2546 54.9707 55.7889C54.9707 50.0095 59.6837 45.3073 65.477 45.3073C71.2712 45.3073 75.9842 50.0095 75.9842 55.7889C75.9842 60.2546 69.2681 70.3694 65.477 75.5571Z" fill="#45d2c9"/>
<path fill-rule="evenodd" clip-rule="evenodd" d="M65.4768 47.4165C60.8494 47.4165 57.084 51.1719 57.084 55.7889C57.084 60.4059 60.8494 64.1611 65.4768 64.1611C70.105 64.1611 73.8704 60.4059 73.8704 55.7889C73.8704 51.1719 70.105 47.4165 65.4768 47.4165ZM65.4765 60.9849C62.6042 60.9849 60.2676 58.654 60.2676 55.7889C60.2676 52.9236 62.6042 50.5927 65.4765 50.5927C68.3488 50.5927 70.6862 52.9236 70.6862 55.7889C70.6862 58.654 68.3488 60.9849 65.4765 60.9849Z" fill="#B2BFD1"/>
</svg>
