<svg width="50" height="80" viewBox="0 0 50 80" fill="none" xmlns="http://www.w3.org/2000/svg">
<path fill-rule="evenodd" clip-rule="evenodd" d="M31.5592 63.5852H18.0312L18.777 59.1105C18.8955 58.3994 19.5047 57.8833 20.2256 57.8833H29.3645C30.0855 57.8833 30.6947 58.3994 30.8133 59.1105L31.5592 63.5852ZM2.5918 60.7342V10.9718C2.5918 9.3998 3.8707 8.12089 5.44273 8.12089H31.7066C32.4223 8.12089 33.0026 7.54074 33.0026 6.82496C33.0026 6.10933 32.4223 5.52902 31.7066 5.52902H8.92195L9.60273 4.16777C10.0887 3.19558 11.0659 2.59167 12.1527 2.59167H37.4371C38.524 2.59167 39.501 3.19558 39.9871 4.16777L40.6679 5.52902H37.2359C36.5201 5.52902 35.9399 6.10933 35.9399 6.82496C35.9399 7.54074 36.5201 8.12089 37.2359 8.12089H44.1468C45.7187 8.12089 46.9977 9.3998 46.9977 10.9718V60.7342C46.9977 62.3062 45.7187 63.5851 44.1468 63.5851H34.1862L33.3695 58.6843C33.0418 56.7182 31.3573 55.2914 29.3641 55.2914H20.2252C18.2321 55.2914 16.5476 56.7182 16.2201 58.6843L15.4032 63.5851H5.44273C3.8707 63.5851 2.5918 62.3062 2.5918 60.7342ZM49.5897 60.7342V10.9719C49.5897 7.97078 47.1483 5.52906 44.1471 5.52906H43.5655L42.3054 3.00875C41.3776 1.15281 39.5122 0 37.4372 0H12.1527C10.078 0 8.21256 1.15281 7.28475 3.00875L6.02459 5.52906H5.44303C2.44193 5.52906 0.000214191 7.97078 0.000214191 10.9719V60.7342C0.000214191 63.7353 2.44193 66.177 5.44303 66.177H7.13756L0.178183 78.0486C-0.183848 78.6659 0.0233392 79.4598 0.640683 79.8219C0.846777 79.9427 1.0724 80 1.2949 80C1.73975 80 2.17287 79.7708 2.41412 79.3594L10.1419 66.177H39.4485L47.1762 79.3594C47.4174 79.7709 47.8504 80 48.2952 80C48.518 80 48.7435 79.9427 48.9494 79.8219C49.5668 79.4598 49.774 78.6659 49.4119 78.0486L42.4527 66.177H44.1472C47.1483 66.177 49.5897 63.7353 49.5897 60.7342Z" fill="#5da689"/>
<path fill-rule="evenodd" clip-rule="evenodd" d="M39.9992 74.6434H9.58891C8.87313 74.6434 8.29297 75.2237 8.29297 75.9394C8.29297 76.655 8.87313 77.2353 9.58891 77.2353H39.9992C40.7148 77.2353 41.295 76.655 41.295 75.9394C41.295 75.2237 40.715 74.6434 39.9992 74.6434Z" fill="white"/>
<path fill-rule="evenodd" clip-rule="evenodd" d="M37.2356 71.7061C37.9514 71.7061 38.5316 71.1259 38.5316 70.4102C38.5316 69.6945 37.9514 69.1144 37.2356 69.1144H12.3545C11.6389 69.1144 11.0586 69.6945 11.0586 70.4102C11.0586 71.1259 11.6389 71.7061 12.3545 71.7061H37.2356Z" fill="white"/>
<path fill-rule="evenodd" clip-rule="evenodd" d="M8.12109 19.2656C8.12109 19.2179 8.15984 19.1792 8.2075 19.1792H23.4991V33.1748H8.2075C8.15984 33.1748 8.12109 33.1361 8.12109 33.0884V19.2656ZM41.4678 19.2656V33.0884C41.4678 33.1361 41.4291 33.1748 41.3814 33.1748H26.0898V19.1792H41.3814C41.4291 19.1792 41.4678 19.2179 41.4678 19.2656ZM8.20742 35.7667H41.3823C42.8591 35.7667 44.0605 34.5653 44.0605 33.0885V19.2656C44.0605 17.7888 42.8591 16.5875 41.3823 16.5875H8.20742C6.7307 16.5875 5.5293 17.7888 5.5293 19.2656V33.0885C5.5293 34.5653 6.73086 35.7667 8.20742 35.7667Z" fill="#5da689"/>
<path fill-rule="evenodd" clip-rule="evenodd" d="M20.6475 13.6499H28.9412C29.6569 13.6499 30.237 13.0698 30.237 12.3542C30.237 11.6384 29.6569 11.0582 28.9412 11.0582H20.6475C19.9317 11.0582 19.3516 11.6384 19.3516 12.3542C19.3516 13.0698 19.9317 13.6499 20.6475 13.6499Z" fill="white"/>
<path fill-rule="evenodd" clip-rule="evenodd" d="M9.58891 13.6499H9.60266C10.3183 13.6499 10.8917 13.0698 10.8917 12.3542C10.8917 11.6384 10.3045 11.0582 9.58891 11.0582C8.87313 11.0582 8.29297 11.6384 8.29297 12.3542C8.29297 13.0698 8.87313 13.6499 9.58891 13.6499Z" fill="white"/>
<path fill-rule="evenodd" clip-rule="evenodd" d="M40.001 13.6499H40.0148C40.7304 13.6499 41.3038 13.0698 41.3038 12.3542C41.3038 11.6384 40.7166 11.0582 40.001 11.0582C39.2852 11.0582 38.7051 11.6384 38.7051 12.3542C38.7051 13.0698 39.2852 13.6499 40.001 13.6499Z" fill="white"/>
<path fill-rule="evenodd" clip-rule="evenodd" d="M8.12109 48.2937C8.12109 47.4838 8.78 46.8251 9.58984 46.8251C10.3997 46.8251 11.0584 47.4838 11.0584 48.2937C11.0584 49.1035 10.3997 49.7624 9.58984 49.7624C8.78 49.7624 8.12109 49.1035 8.12109 48.2937ZM13.6502 48.2936C13.6502 46.0547 11.8287 44.2332 9.58977 44.2332C7.3507 44.2332 5.5293 46.0547 5.5293 48.2936C5.5293 50.5327 7.3507 52.3541 9.58977 52.3541C11.8287 52.3541 13.6502 50.5327 13.6502 48.2936Z" fill="white"/>
<path fill-rule="evenodd" clip-rule="evenodd" d="M9.59039 60.6478C11.0671 60.6478 12.2685 59.4464 12.2685 57.9697C12.2685 56.4928 11.0671 55.2914 9.59039 55.2914C8.11352 55.2914 6.91211 56.4928 6.91211 57.9697C6.91211 59.4464 8.11367 60.6478 9.59039 60.6478Z" fill="white"/>
<path fill-rule="evenodd" clip-rule="evenodd" d="M40 49.7624C39.1902 49.7624 38.5312 49.1035 38.5312 48.2937C38.5312 47.4838 39.1902 46.8251 40 46.8251C40.8098 46.8251 41.4686 47.4838 41.4686 48.2937C41.4686 49.1035 40.81 49.7624 40 49.7624ZM39.9999 44.2332C37.7609 44.2332 35.9395 46.0547 35.9395 48.2936C35.9395 50.5327 37.7609 52.3541 39.9999 52.3541C42.2388 52.3541 44.0604 50.5327 44.0604 48.2936C44.0604 46.0547 42.2388 44.2332 39.9999 44.2332Z" fill="white"/>
<path fill-rule="evenodd" clip-rule="evenodd" d="M40.0005 55.2914C38.5237 55.2914 37.3223 56.4928 37.3223 57.9697C37.3223 59.4464 38.5237 60.6478 40.0005 60.6478C41.4773 60.6478 42.6787 59.4464 42.6787 57.9697C42.6787 56.4928 41.4773 55.2914 40.0005 55.2914Z" fill="white"/>
<path fill-rule="evenodd" clip-rule="evenodd" d="M31.7066 49.7623H17.8838C17.168 49.7623 16.5879 50.3425 16.5879 51.0581C16.5879 51.7739 17.168 52.354 17.8838 52.354H31.7066C32.4223 52.354 33.0026 51.7739 33.0026 51.0581C33.0026 50.3425 32.4224 49.7623 31.7066 49.7623Z" fill="white"/>
<path fill-rule="evenodd" clip-rule="evenodd" d="M26.1777 59.4382H23.4131C22.6975 59.4382 22.1172 60.0185 22.1172 60.7342C22.1172 61.4498 22.6975 62.0301 23.4131 62.0301H26.1777C26.8934 62.0301 27.4736 61.4498 27.4736 60.7342C27.4736 60.0185 26.8936 59.4382 26.1777 59.4382Z" fill="white"/>
<path fill-rule="evenodd" clip-rule="evenodd" d="M31.7068 44.2332H17.8838C17.168 44.2332 16.5879 44.8135 16.5879 45.5291C16.5879 46.2447 17.168 46.825 17.8838 46.825H31.7068C32.4224 46.825 33.0027 46.2447 33.0027 45.5291C33.0027 44.8135 32.4226 44.2332 31.7068 44.2332Z" fill="white"/>
</svg>
