<svg width="70" height="80" viewBox="0 0 70 80" fill="none" xmlns="http://www.w3.org/2000/svg">
<path fill-rule="evenodd" clip-rule="evenodd" d="M47.4043 31.8638L48.597 29.4786L51.2635 30.8118L50.071 33.197L47.4043 31.8638Z" fill="white"/>
<path fill-rule="evenodd" clip-rule="evenodd" d="M42.0703 29.1922L43.2628 26.807L45.9295 28.1403L44.7368 30.5255L42.0703 29.1922Z" fill="white"/>
<path fill-rule="evenodd" clip-rule="evenodd" d="M18.0703 30.8028L20.7368 29.4695L21.9295 31.8546L19.2628 33.188L18.0703 30.8028Z" fill="white"/>
<path fill-rule="evenodd" clip-rule="evenodd" d="M23.4043 28.1405L26.071 26.8074L27.2635 29.1924L24.5968 30.5257L23.4043 28.1405Z" fill="white"/>
<rect x="39" y="58" width="9" height="2" fill="white"/>
<rect x="23" y="66" width="9" height="2" fill="white"/>
<path fill-rule="evenodd" clip-rule="evenodd" d="M65.3327 61.3334H49.3327C47.1235 61.3334 45.3327 63.1242 45.3327 65.3334C45.3327 67.5425 47.1235 69.3334 49.3327 69.3334H58.666C59.4023 69.3334 59.9993 69.9304 59.9993 70.6667C59.9993 71.403 59.4023 72 58.666 72H47.754C47.0177 72.0005 46.421 72.5977 46.4215 73.3342C46.4215 73.4855 46.4473 73.6359 46.498 73.7787C46.6047 74.0629 46.6615 74.3632 46.666 74.6667C46.666 76.1395 45.4722 77.3334 43.9993 77.3334H26.666C25.1932 77.3334 23.9993 76.1395 23.9993 74.6667C24.0038 74.3632 24.0607 74.0629 24.1673 73.7787C24.4133 73.0845 24.05 72.3225 23.3558 72.0765C23.2132 72.026 23.0628 72.0002 22.9113 72H16.1793C15.3438 71.9994 14.6667 71.3222 14.666 70.4867V68C14.666 67.2637 14.069 66.6667 13.3327 66.6667H3.99935C3.26302 66.6667 2.66602 66.0697 2.66602 65.3334C2.66602 64.597 3.26302 64 3.99935 64H18.666C20.8752 64 22.666 62.2092 22.666 60C22.666 57.7909 20.8752 56 18.666 56H6.66602C5.92968 56 5.33268 55.403 5.33268 54.6667C5.33268 53.9304 5.92968 53.3334 6.66602 53.3334H19.9353L20.062 53.7334C20.2365 54.2884 20.7508 54.6662 21.3327 54.6667H47.9993C48.5812 54.6662 49.0955 54.2884 49.27 53.7334L49.3967 53.3334H59.9993C60.7357 53.3334 61.3327 53.9304 61.3327 54.6667C61.3327 55.403 60.7357 56 59.9993 56C59.263 56 58.666 56.597 58.666 57.3334C58.666 58.0697 59.263 58.6667 59.9993 58.6667H65.3327C66.069 58.6667 66.666 59.2637 66.666 60C66.666 60.7364 66.069 61.3334 65.3327 61.3334ZM48.3552 47.7813L47.0219 52H22.3099L20.9766 47.7813L34.6672 44.048L48.3552 47.7813ZM34.6663 14.952L54.4303 28.5334L49.1583 45.2374L35.017 41.38C34.7873 41.3174 34.5453 41.3174 34.3157 41.38L20.1743 45.2374L14.9023 28.5334L34.6663 14.952ZM20 18.6666H24.556L20 21.7986V18.6666ZM20 7.99996H25.3333V2.66663H20V7.99996ZM28 7.99996H33.3333V2.66663H28V7.99996ZM36 7.99996H41.3333V2.66663H36V7.99996ZM44 7.99996H49.3333V2.66663H44V7.99996ZM44 16H49.3333V10.6666H44V16ZM36 10.6666H41.3333V16H40.8987L36 12.632V10.6666ZM28.4347 16H28V10.6666H33.3333V12.632L28.4347 16ZM20 16H25.3333V10.6666H20V16ZM44.7773 18.6666H49.3333V21.7986L44.7773 18.6666ZM65.3333 56H63.772C64.5083 53.9172 63.4168 51.6318 61.3342 50.8955C60.9057 50.744 60.4545 50.6665 60 50.6667H50.24L57.2707 28.4C57.4472 27.841 57.2377 27.2322 56.7547 26.9L52 23.632V1.33333C52 0.597 51.403 0 50.6667 0H18.6667C17.9303 0 17.3333 0.597 17.3333 1.33333V23.632L12.5787 26.9013C12.0957 27.2335 11.8862 27.8423 12.0627 28.4013L19.0933 50.6667H6.66667C4.4575 50.6667 2.66667 52.4575 2.66667 54.6667C2.66667 56.8758 4.4575 58.6667 6.66667 58.6667H18.6667C19.403 58.6667 20 59.2637 20 60C20 60.7363 19.403 61.3333 18.6667 61.3333H4C1.79083 61.3333 0 63.1242 0 65.3333C0 67.5425 1.79083 69.3333 4 69.3333H12V70.4867C12.0022 72.7943 13.8723 74.6645 16.18 74.6667H21.3333C21.3333 77.6122 23.7212 80 26.6667 80H44C46.9455 80 49.3333 77.6122 49.3333 74.6667H58.6667C60.8758 74.6667 62.6667 72.8758 62.6667 70.6667C62.6667 68.4575 60.8758 66.6667 58.6667 66.6667H49.3333C48.597 66.6667 48 66.0697 48 65.3333C48 64.597 48.597 64 49.3333 64H65.3333C67.5425 64 69.3333 62.2092 69.3333 60C69.3333 57.7908 67.5425 56 65.3333 56Z" fill="#5da689"/>
</svg>
