<svg width="80" height="80" viewBox="0 0 80 80" fill="none" xmlns="http://www.w3.org/2000/svg">
<path fill-rule="evenodd" clip-rule="evenodd" d="M71.9983 48.0017V29.3367H76.0033C76.7967 29.3367 77.33 28.8017 77.33 28.0017V1.335C77.33 0.533333 76.7967 0 76.0033 0H54.6683C53.8667 0 53.3333 0.533333 53.3333 1.335V2.67H1.335C0.533333 2.67 0 3.20333 0 3.99667V17.33C0 18.1317 0.533333 18.665 1.335 18.665H8.00167V38.665H5.33167C4.53167 38.665 3.99667 39.2 3.99667 40V49.3367C3.99667 50.13 4.53167 50.6633 5.33167 50.6633H8.00167V53.3333H5.33167V56.0033H13.3333V53.3333H10.6633V50.6633H13.3333C14.1333 50.6633 14.6683 50.13 14.6683 49.3367V40C14.6683 39.2 14.1333 38.665 13.3333 38.665H10.6633V18.665H45.3317V28.0017C45.3317 28.8017 45.8667 29.3367 46.6667 29.3367H50.6633V48.0017H42.67C41.8683 48.0017 41.335 48.535 41.335 49.3367V63.9967H0V66.6667H41.335V80H43.9967V50.6633H80V48.0017H71.9983ZM6.66602 48.0016H11.9977V41.335H6.66602V48.0016ZM53.334 41.335H60.0007V36.0033H53.334V41.335ZM62.6699 41.335H69.3366V36.0033H62.6699V41.335ZM62.6699 33.3333H69.3366V29.3367H62.6699V33.3333ZM2.66992 10.6633H53.3333V5.33167H2.66992V10.6633ZM2.66992 16.0034H45.3316V13.3334H2.66992V16.0034ZM48.002 17.33V13.3334H70.6636V10.6634H56.0036V2.67004H74.6686V26.6667H48.002V17.33ZM53.334 33.3333H60.0007V29.3367H53.334V33.3333ZM53.334 48.0017H60.0007V43.9967H53.334V48.0017ZM62.6699 48.0017H69.3366V43.9967H62.6699V48.0017Z" fill="#45d2c9"/>
<path fill-rule="evenodd" clip-rule="evenodd" d="M48.002 57.3317H50.6653V54.6683H48.002V57.3317Z" fill="white"/>
<path fill-rule="evenodd" clip-rule="evenodd" d="M53.334 57.3317H56.004V54.6683H53.334V57.3317Z" fill="white"/>
<path fill-rule="evenodd" clip-rule="evenodd" d="M58.6641 57.3317H61.3341V54.6683H58.6641V57.3317Z" fill="white"/>
<path fill-rule="evenodd" clip-rule="evenodd" d="M63.9961 57.3317H66.6661V54.6683H63.9961V57.3317Z" fill="white"/>
<path fill-rule="evenodd" clip-rule="evenodd" d="M69.3359 57.3317H71.9993V54.6683H69.3359V57.3317Z" fill="white"/>
<path fill-rule="evenodd" clip-rule="evenodd" d="M74.668 57.3317H77.3313V54.6683H74.668V57.3317Z" fill="white"/>
<path fill-rule="evenodd" clip-rule="evenodd" d="M5.33203 9.33663H8.00203V6.66663H5.33203V9.33663Z" fill="white"/>
<path fill-rule="evenodd" clip-rule="evenodd" d="M10.6641 9.33663H13.3341V6.66663H10.6641V9.33663Z" fill="white"/>
<path fill-rule="evenodd" clip-rule="evenodd" d="M16.0039 9.33663H18.6672V6.66663H16.0039V9.33663Z" fill="white"/>
<path fill-rule="evenodd" clip-rule="evenodd" d="M21.3359 9.33663H23.9993V6.66663H21.3359V9.33663Z" fill="white"/>
<path fill-rule="evenodd" clip-rule="evenodd" d="M26.666 9.33663H29.336V6.66663H26.666V9.33663Z" fill="white"/>
<path fill-rule="evenodd" clip-rule="evenodd" d="M31.998 9.33663H34.668V6.66663H31.998V9.33663Z" fill="white"/>
<path fill-rule="evenodd" clip-rule="evenodd" d="M37.3301 9.33663H40.0001V6.66663H37.3301V9.33663Z" fill="white"/>
<path fill-rule="evenodd" clip-rule="evenodd" d="M42.6699 9.33663H45.3333V6.66663H42.6699V9.33663Z" fill="white"/>
<path fill-rule="evenodd" clip-rule="evenodd" d="M48.002 9.33663H50.6653V6.66663H48.002V9.33663Z" fill="white"/>
<path fill-rule="evenodd" clip-rule="evenodd" d="M57.3307 23.9966C58.1324 23.9966 58.6657 23.4633 58.6657 22.67V17.33C58.6657 16.5366 58.1324 16.0033 57.3307 16.0033H51.9991C51.1991 16.0033 50.6641 16.5366 50.6641 17.33V22.67C50.6641 23.4633 51.1991 23.9966 51.9991 23.9966H57.3307ZM53.334 21.3349H56.004V18.6649H53.334V21.3349Z" fill="white"/>
<path fill-rule="evenodd" clip-rule="evenodd" d="M65.3311 23.9966H70.6628C71.4644 23.9966 71.9978 23.4633 71.9978 22.67V17.33C71.9978 16.5366 71.4644 16.0033 70.6628 16.0033H65.3311C64.5311 16.0033 63.9961 16.5366 63.9961 17.33V22.67C63.9961 23.4633 64.5311 23.9966 65.3311 23.9966ZM66.666 21.3349H69.336V18.6649H66.666V21.3349Z" fill="white"/>
<path fill-rule="evenodd" clip-rule="evenodd" d="M58.6641 8.00167H71.9974V5.33167H58.6641V8.00167Z" fill="white"/>
<path fill-rule="evenodd" clip-rule="evenodd" d="M54.6676 63.9967C51.7309 63.9967 49.3359 66.4 49.3359 69.3367C49.3359 72.265 51.7309 74.6684 54.6676 74.6684C57.5976 74.6684 59.9993 72.265 59.9993 69.3367C59.9993 66.4 57.5976 63.9967 54.6676 63.9967ZM54.668 71.9984C53.203 71.9984 51.998 70.8001 51.998 69.3367C51.998 67.8651 53.203 66.6667 54.668 66.6667C56.133 66.6667 57.3297 67.8651 57.3297 69.3367C57.3297 70.8001 56.133 71.9984 54.668 71.9984Z" fill="white"/>
<path fill-rule="evenodd" clip-rule="evenodd" d="M70.6637 63.9967C67.7354 63.9967 65.332 66.4 65.332 69.3367C65.332 72.265 67.7354 74.6684 70.6637 74.6684C73.6004 74.6684 76.0037 72.265 76.0037 69.3367C76.0037 66.4 73.6004 63.9967 70.6637 63.9967ZM70.6636 71.9984C69.2003 71.9984 68.002 70.8001 68.002 69.3367C68.002 67.8651 69.2003 66.6667 70.6636 66.6667C72.1353 66.6667 73.3336 67.8651 73.3336 69.3367C73.3336 70.8001 72.1353 71.9984 70.6636 71.9984Z" fill="white"/>
<path fill-rule="evenodd" clip-rule="evenodd" d="M30.6641 73.3333H38.6657V70.6633H30.6641V73.3333Z" fill="white"/>
<path fill-rule="evenodd" clip-rule="evenodd" d="M2.66992 73.3333H10.6649V70.6633H2.66992V73.3333Z" fill="white"/>
<path fill-rule="evenodd" clip-rule="evenodd" d="M17.3301 77.3317H25.3317V74.6683H17.3301V77.3317Z" fill="white"/>
</svg>
