<svg width="90" height="80" viewBox="0 0 90 80" fill="none" xmlns="http://www.w3.org/2000/svg">
<path fill-rule="evenodd" clip-rule="evenodd" d="M66.8348 76.5066H22.7656V71.4795H37.0463C38.0127 71.4795 38.7963 70.6973 38.7963 69.7328C38.7963 68.7682 38.0127 67.986 37.0463 67.986H22.8698C23.6432 61.494 28.8091 56.3308 35.31 55.5476L43.5628 63.785C43.9046 64.1259 44.3524 64.2966 44.8002 64.2966C45.248 64.2966 45.6959 64.1259 46.0376 63.785L54.2905 55.5476C61.347 56.3977 66.8348 62.4077 66.8348 69.6765V76.5066ZM36.084 43.2484V40.0496H49.2226C50.8076 40.0496 52.2825 39.5736 53.5142 38.7591V43.2482C53.5142 48.0447 49.6045 51.947 44.799 51.947C39.9935 51.947 36.084 48.0449 36.084 43.2484ZM36.084 33.8037C36.084 30.382 38.8731 27.5983 42.301 27.5983H53.5142V32.2727C53.5142 34.6346 51.589 36.5562 49.2226 36.5562H36.084V33.8037ZM49.4476 55.4405L44.8 60.0794L40.1523 55.4405H49.4476ZM54.173 52.0199C53.9277 51.9471 53.6698 51.9308 53.4179 51.9677C53.3885 51.9663 53.359 51.9656 53.3296 51.9644C55.6012 49.7492 57.0152 46.6611 57.0152 43.2484V25.8515C57.0152 24.887 56.2316 24.1048 55.2652 24.1048H42.3021C36.9441 24.1048 32.585 28.4557 32.585 33.8037V43.2482C32.585 46.661 33.9991 49.749 36.2707 51.9642C36.2413 51.9654 36.2118 51.9661 36.1824 51.9675C35.9307 51.9308 35.6726 51.9469 35.4272 52.0197C26.3804 52.8304 19.2656 60.4389 19.2656 69.6763V78.2533C19.2656 79.2178 20.0493 80 21.0156 80H68.5848C69.5512 80 70.3348 79.2178 70.3348 78.2533V69.6765C70.3345 60.4393 63.2198 52.8306 54.173 52.0199Z" fill="#45d2c9"/>
<path fill-rule="evenodd" clip-rule="evenodd" d="M44.8008 67.986C44.3405 67.986 43.889 68.1729 43.5635 68.4978C43.238 68.8227 43.0508 69.2734 43.0508 69.7327C43.0508 70.1921 43.2379 70.6428 43.5635 70.9677C43.889 71.2924 44.3405 71.4795 44.8008 71.4795C45.261 71.4795 45.7125 71.2926 46.0379 70.9677C46.3634 70.6428 46.5508 70.1921 46.5508 69.7327C46.5508 69.2734 46.3635 68.8227 46.0379 68.4978C45.7125 68.1729 45.261 67.986 44.8008 67.986Z" fill="#B2BFD1"/>
<path fill-rule="evenodd" clip-rule="evenodd" d="M44.8219 3.49347C46.5588 3.49347 47.9719 4.90395 47.9719 6.63757C47.9719 8.3712 46.5588 9.78168 44.8219 9.78168C43.085 9.78168 41.6719 8.3712 41.6719 6.63757C41.6719 4.90395 43.085 3.49347 44.8219 3.49347ZM43.0719 13.0402V17.3062C43.0719 18.2707 43.8555 19.0529 44.8219 19.0529C45.7882 19.0529 46.5719 18.2707 46.5719 17.3062V13.0402C49.3922 12.2713 51.4719 9.69293 51.4719 6.63755C51.4719 2.97764 48.4887 0 44.8219 0C41.1551 0 38.1719 2.97764 38.1719 6.63755C38.1719 9.69293 40.2516 12.2713 43.0719 13.0402Z" fill="#B2BFD1"/>
<path fill-rule="evenodd" clip-rule="evenodd" d="M73.0246 16.095C73.6387 15.4819 74.4453 15.1755 75.252 15.1755C76.0588 15.1755 76.8653 15.4819 77.4794 16.095C78.0744 16.6889 78.4022 17.4784 78.4022 18.3184C78.4022 19.1582 78.0744 19.9478 77.4794 20.5417C76.2513 21.7675 74.2528 21.7675 73.0248 20.5417C71.7965 19.3156 71.7965 17.3209 73.0246 16.095ZM67.6935 27.6089C68.1415 27.6089 68.5891 27.4383 68.9309 27.0973L71.9518 24.0821C72.9458 24.651 74.0747 24.9558 75.2514 24.9558C77.0276 24.9558 78.6975 24.2653 79.9535 23.0117C81.2098 21.7581 81.9016 20.0912 81.9016 18.3183C81.9016 16.5453 81.2098 14.8784 79.9536 13.6246C78.6975 12.371 77.0276 11.6805 75.2514 11.6805C73.4751 11.6805 71.8053 12.371 70.5491 13.6248C68.3847 15.7853 68.0288 19.0762 69.4781 21.6105L66.4559 24.6271C65.7725 25.3092 65.7725 26.4152 66.4559 27.0975C66.7978 27.4383 67.2457 27.6089 67.6935 27.6089Z" fill="#B2BFD1"/>
<path fill-rule="evenodd" clip-rule="evenodd" d="M82.9508 51.8486C81.2139 51.8486 79.8008 50.4381 79.8008 48.7045C79.8008 46.9708 81.2139 45.5604 82.9508 45.5604C84.6877 45.5604 86.1008 46.9708 86.1008 48.7045C86.1008 50.4381 84.6877 51.8486 82.9508 51.8486ZM82.9504 42.0669C79.8893 42.0669 77.3061 44.1427 76.5357 46.9577H72.2617C71.2954 46.9577 70.5117 47.7399 70.5117 48.7044C70.5117 49.669 71.2954 50.4512 72.2617 50.4512H76.5357C77.3061 53.2662 79.8893 55.342 82.9504 55.342C86.6171 55.342 89.6004 52.3644 89.6004 48.7044C89.6004 45.0445 86.6171 42.0669 82.9504 42.0669Z" fill="#B2BFD1"/>
<path fill-rule="evenodd" clip-rule="evenodd" d="M65.625 50.4507C66.0852 50.4507 66.5368 50.2653 66.8621 49.9387C67.1876 49.614 67.375 49.1633 67.375 48.7039C67.375 48.2446 67.1878 47.7956 66.8621 47.469C66.5368 47.1441 66.0852 46.9572 65.625 46.9572C65.1647 46.9572 64.7133 47.1439 64.3878 47.469C64.0623 47.7941 63.875 48.2446 63.875 48.7039C63.875 49.1651 64.0621 49.614 64.3878 49.9387C64.7133 50.2655 65.1647 50.4507 65.625 50.4507Z" fill="#B2BFD1"/>
<path fill-rule="evenodd" clip-rule="evenodd" d="M6.65 51.8042C4.91313 51.8042 3.5 50.3937 3.5 48.6601C3.5 46.9265 4.91313 45.516 6.65 45.516C8.38688 45.516 9.8 46.9265 9.8 48.6601C9.8 50.3937 8.38688 51.8042 6.65 51.8042ZM17.3386 46.9134H13.0646C12.2943 44.0983 9.7111 42.0225 6.65 42.0225C2.98323 42.0225 0 45.0002 0 48.6601C0 52.32 2.98323 55.2976 6.65 55.2976C9.7111 55.2976 12.2943 53.2218 13.0646 50.4068H17.3386C18.305 50.4068 19.0886 49.6246 19.0886 48.6601C19.0886 47.6955 18.3052 46.9134 17.3386 46.9134Z" fill="#B2BFD1"/>
<path fill-rule="evenodd" clip-rule="evenodd" d="M12.0148 15.9266C12.6289 15.3137 13.4355 15.0071 14.2422 15.0071C15.049 15.0071 15.8556 15.3137 16.4696 15.9266C17.0646 16.5205 17.3924 17.31 17.3924 18.15C17.3924 18.9893 17.0648 19.7787 16.4705 20.3724C16.4703 20.3727 16.47 20.3729 16.4696 20.3733C15.2415 21.5995 13.243 21.5995 12.015 20.3733C10.7867 19.1472 10.7867 17.1525 12.0148 15.9266ZM14.2426 24.7874C15.4193 24.7874 16.5484 24.4826 17.5424 23.9137L20.5632 26.9289C20.905 27.2699 21.3528 27.4405 21.8007 27.4405C22.2485 27.4405 22.6963 27.2699 23.0381 26.9289C23.7215 26.2468 23.7215 25.1408 23.0381 24.4585L20.0172 21.4435C20.5874 20.4514 20.8926 19.3244 20.8926 18.1499C20.8926 16.3769 20.2008 14.71 18.9447 13.4563C17.6885 12.2026 16.0187 11.5121 14.2424 11.5121C12.4662 11.5121 10.7963 12.2026 9.54017 13.4564C6.94755 16.0444 6.94755 20.2554 9.54017 22.8433C10.7963 24.0969 12.4662 24.7874 14.2426 24.7874Z" fill="#B2BFD1"/>
</svg>
