<svg width="85" height="80" viewBox="0 0 85 80" fill="none" xmlns="http://www.w3.org/2000/svg">
<path fill-rule="evenodd" clip-rule="evenodd" d="M25.2629 65.965H26.6664C27.4415 65.965 28.0699 66.5934 28.0699 67.3685V68.772C28.0699 69.5471 27.4415 70.1755 26.6664 70.1755H25.2629C24.4878 70.1755 23.8594 69.5471 23.8594 68.772V67.3685C23.8594 66.5934 24.4878 65.965 25.2629 65.965Z" fill="white"/>
<path fill-rule="evenodd" clip-rule="evenodd" d="M32.2805 65.965H33.684C34.4591 65.965 35.0875 66.5934 35.0875 67.3685V68.772C35.0875 69.5471 34.4591 70.1755 33.684 70.1755H32.2805C31.5054 70.1755 30.877 69.5471 30.877 68.772V67.3685C30.877 66.5934 31.5054 65.965 32.2805 65.965Z" fill="white"/>
<path fill-rule="evenodd" clip-rule="evenodd" d="M39.298 65.965H40.7015C41.4766 65.965 42.1051 66.5934 42.1051 67.3685V68.772C42.1051 69.5471 41.4766 70.1755 40.7015 70.1755H39.298C38.523 70.1755 37.8945 69.5471 37.8945 68.772V67.3685C37.8945 66.5934 38.523 65.965 39.298 65.965Z" fill="white"/>
<path fill-rule="evenodd" clip-rule="evenodd" d="M14.0352 43.5088H16.8422V37.8948H14.0352V43.5088Z" fill="white"/>
<path fill-rule="evenodd" clip-rule="evenodd" d="M19.6504 43.5088H22.4574V37.8948H19.6504V43.5088Z" fill="white"/>
<path fill-rule="evenodd" clip-rule="evenodd" d="M25.2637 43.5088H28.0707V37.8948H25.2637V43.5088Z" fill="white"/>
<path fill-rule="evenodd" clip-rule="evenodd" d="M30.877 43.5088H33.684V37.8948H30.877V43.5088Z" fill="white"/>
<path fill-rule="evenodd" clip-rule="evenodd" d="M28.0703 29.4737H30.8773V23.8596H28.0703V29.4737Z" fill="white"/>
<path fill-rule="evenodd" clip-rule="evenodd" d="M33.6855 29.4737H36.4926V23.8596H33.6855V29.4737Z" fill="white"/>
<path fill-rule="evenodd" clip-rule="evenodd" d="M39.2988 29.4737H42.1058V23.8596H39.2988V29.4737Z" fill="white"/>
<path fill-rule="evenodd" clip-rule="evenodd" d="M44.9121 29.4737H47.7191V23.8596H44.9121V29.4737Z" fill="white"/>
<path fill-rule="evenodd" clip-rule="evenodd" d="M25.2637 57.5438H28.0707V51.9298H25.2637V57.5438Z" fill="white"/>
<path fill-rule="evenodd" clip-rule="evenodd" d="M30.877 57.5438H33.684V51.9298H30.877V57.5438Z" fill="white"/>
<path fill-rule="evenodd" clip-rule="evenodd" d="M42.1055 57.5438H44.9125V51.9298H42.1055V57.5438Z" fill="white"/>
<path fill-rule="evenodd" clip-rule="evenodd" d="M47.7207 57.5438H50.5277V51.9298H47.7207V57.5438Z" fill="white"/>
<path fill-rule="evenodd" clip-rule="evenodd" d="M53.334 57.5438H56.141V51.9298H53.334V57.5438Z" fill="white"/>
<path fill-rule="evenodd" clip-rule="evenodd" d="M58.9473 57.5438H61.7543V51.9298H58.9473V57.5438Z" fill="white"/>
<path fill-rule="evenodd" clip-rule="evenodd" d="M42.1055 43.5088H44.9125V37.8948H42.1055V43.5088Z" fill="white"/>
<path fill-rule="evenodd" clip-rule="evenodd" d="M47.7207 43.5088H50.5277V37.8948H47.7207V43.5088Z" fill="white"/>
<path fill-rule="evenodd" clip-rule="evenodd" d="M53.334 43.5088H56.141V37.8948H53.334V43.5088Z" fill="white"/>
<path fill-rule="evenodd" clip-rule="evenodd" d="M58.9473 43.5088H61.7543V37.8948H58.9473V43.5088Z" fill="white"/>
<path fill-rule="evenodd" clip-rule="evenodd" d="M70.1758 35.0878H74.3863V32.2808H70.1758V35.0878Z" fill="white"/>
<path fill-rule="evenodd" clip-rule="evenodd" d="M70.1758 40.7018H74.3863V37.8948H70.1758V40.7018Z" fill="white"/>
<path fill-rule="evenodd" clip-rule="evenodd" d="M70.1758 46.3158H74.3863V43.5088H70.1758V46.3158Z" fill="white"/>
<path fill-rule="evenodd" clip-rule="evenodd" d="M81.4038 26.6666H63.1582V25.2631H71.5793V22.4561H63.1582V21.0526H81.4038V26.6666ZM67.3691 60.3508H77.1937V29.4736H67.3691V60.3508ZM81.4036 77.193H10.7748L3.47656 58.9474H20.3018L22.6878 62.5334C22.949 62.9249 23.389 63.1593 23.8597 63.1579H81.4036V77.193ZM11.2285 49.1228H36.4917V60.3509H24.611L22.4566 57.1228V51.9298H19.6496V56.1403H16.8426V51.9298H14.0355V56.1403H11.2285V49.1228ZM11.2285 46.3158H36.4917V35.0878H11.2285V46.3158ZM25.2637 32.2807H50.5268V21.0526H25.2637V32.2807ZM39.2988 46.3158H64.562V35.0878H39.2988V46.3158ZM39.2988 60.3509H64.562V49.1228H39.2988V60.3509ZM82.8075 18.2456H81.404V0H78.597V18.2456H74.3865V2.80702H71.5795V18.2456H67.3689V11.2281H64.5619V18.2456H61.7549C60.9798 18.2456 60.3514 18.874 60.3514 19.6491V28.0702C60.3514 28.8453 60.9798 29.4737 61.7549 29.4737H64.5619V32.2807H53.3339V19.6491C53.3339 18.874 52.7054 18.2456 51.9304 18.2456H23.8602C23.0851 18.2456 22.4567 18.874 22.4567 19.6491V32.2807H9.82509C9.05 32.2807 8.42158 32.9091 8.42158 33.6842V56.1404H1.40404C0.628947 56.14 0.000350877 56.7682 0 57.5433C0 57.7219 0.0338596 57.8988 0.100175 58.0646L8.52123 79.1172C8.73421 79.6505 9.2507 80.0002 9.82509 80H82.8075C83.5826 80 84.2111 79.3716 84.2111 78.5965V61.7544C84.2111 60.9793 83.5826 60.3509 82.8075 60.3509H80.0005V29.4737H82.8075C83.5826 29.4737 84.2111 28.8453 84.2111 28.0702V19.6491C84.2111 18.874 83.5826 18.2456 82.8075 18.2456Z" fill="#45d2c9"/>
</svg>
