<svg width="120" height="120" viewBox="0 0 120 120" fill="none" xmlns="http://www.w3.org/2000/svg">
<path fill-rule="evenodd" clip-rule="evenodd" d="M54.2721 34.5366C53.5537 34.7153 52.9629 35.2232 52.6793 35.9057L49.7738 42.9039C49.4902 43.5867 49.548 44.3635 49.9294 44.997L51.7404 48.0033L48.0963 51.6402L45.0839 49.8327C44.449 49.4519 43.6709 49.3944 42.987 49.6774L35.9752 52.5775C35.2913 52.8606 34.7824 53.4503 34.6034 54.1673L33.7533 57.5733H28.6015L27.7514 54.1673C27.5723 53.4503 27.0635 52.8606 26.3796 52.5775L19.3678 49.6774C18.6834 49.3944 17.9053 49.4522 17.2709 49.8327L14.2582 51.6402L10.6144 48.0033L12.4254 44.997C12.807 44.3635 12.8646 43.5867 12.581 42.9039L9.67547 35.9057C9.39188 35.2232 8.80102 34.7151 8.08266 34.5366L4.66992 33.6882V28.5464L8.08266 27.698C8.80102 27.5193 9.39188 27.0115 9.67547 26.3289L12.581 19.3308C12.8646 18.648 12.8067 17.8713 12.4254 17.2379L10.6144 14.2311L14.2582 10.5944L17.2709 12.4019C17.9055 12.7825 18.6839 12.8405 19.368 12.5572L26.3798 9.65708C27.0638 9.37404 27.5726 8.78433 27.7516 8.06737L28.6017 4.66152H33.7535L34.6036 8.06737C34.7827 8.78456 35.2915 9.37404 35.9754 9.65708L42.9872 12.5572C43.6716 12.8402 44.4495 12.7825 45.0844 12.4019L48.0968 10.5944L51.7409 14.2311L49.9298 17.2379C49.5483 17.8713 49.4906 18.648 49.774 19.3308L52.6798 26.3289C52.9631 27.0115 53.5542 27.5195 54.2726 27.698L57.6853 28.5464V33.6882L54.2721 34.5366ZM60.5852 37.7705C61.6256 37.5118 62.3557 36.5792 62.3557 35.5092V26.7251C62.3557 25.655 61.6256 24.7226 60.5852 24.4639L56.5437 23.4589L54.5393 18.6316L56.6838 15.0711C57.2362 14.1539 57.0919 12.9794 56.3337 12.2227L50.1091 6.01029C49.3509 5.25357 48.1739 5.10947 47.2549 5.66082L43.6877 7.80094L38.8509 5.8007L37.8443 1.76725C37.5851 0.728889 36.6506 0 35.5786 0H26.7773C25.7051 0 24.7706 0.728889 24.5116 1.76725L23.505 5.8007L18.6682 7.80094L15.101 5.66082C14.1818 5.10947 13.005 5.25357 12.2468 6.01029L6.02203 12.2229C5.26383 12.9796 5.11969 14.1544 5.67188 15.0713L7.81617 18.6318L5.81203 23.4592L1.77047 24.4641C0.730078 24.7226 0 25.6552 0 26.7254V35.5095C0 36.5794 0.730078 37.5118 1.77047 37.7708L5.81203 38.7757L7.81617 43.603L5.67188 47.1633C5.11945 48.0805 5.26383 49.2552 6.02203 50.0119L12.2468 56.2246C13.005 56.9808 14.1818 57.1251 15.1008 56.574L18.6682 54.4337L23.505 56.4342L24.5116 60.4678C24.7706 61.5062 25.7051 62.2349 26.7773 62.2349H35.5786C36.6506 62.2349 37.5851 61.5062 37.8443 60.4678L38.8509 56.4342L43.6877 54.4337L47.2552 56.574C48.1739 57.1251 49.3509 56.9811 50.1091 56.2246L56.3339 50.0119C57.0921 49.2552 57.2363 48.0805 56.6841 47.1633L54.5395 43.603L56.5439 38.7757L60.5852 37.7705Z" transform="translate(11.7852 11.9967)" fill="#3D5984"/>
<path fill-rule="evenodd" clip-rule="evenodd" d="M16.3451 0C15.0555 0 14.01 1.04351 14.01 2.33053C14.01 3.61754 15.0555 4.66105 16.3451 4.66105C22.7827 4.66105 28.02 9.88819 28.02 16.3132C28.02 22.7382 22.7827 27.9654 16.3451 27.9654C9.9075 27.9654 4.67016 22.7382 4.67016 16.3132C4.67016 15.1237 4.84852 13.9516 5.20031 12.829C5.58539 11.6005 4.89984 10.2933 3.66914 9.90901C2.43797 9.52444 1.12852 10.2089 0.743203 11.4372C0.250078 13.0105 0 14.6512 0 16.313C0 25.3081 7.33242 32.6262 16.3451 32.6262C25.3577 32.6262 32.6902 25.3081 32.6902 16.313C32.6902 7.31789 25.3577 0 16.3451 0Z" transform="translate(26.6191 26.8007)" fill="#3D5984"/>
<path fill-rule="evenodd" clip-rule="evenodd" d="M2.33674 4.66696C2.80736 4.66696 3.28174 4.52568 3.69236 4.23281C4.73744 3.49433 4.99244 2.05129 4.25979 1.00006C3.52314 -0.0565442 2.06791 -0.317597 1.00971 0.417608C0.991192 0.430473 0.965176 0.448953 0.947363 0.462286C-0.0897459 1.2272 -0.309121 2.68638 0.457285 3.72147C0.91502 4.33995 1.62119 4.66696 2.33674 4.66696Z" transform="translate(32.5938 29.3225)" fill="#45d2c9"/>
<path fill-rule="evenodd" clip-rule="evenodd" d="M0.000251755 2.33076L1.73798e-05 2.49637C-0.0049045 3.78363 1.03619 4.83111 2.32572 4.83602C2.329 4.83602 2.33181 4.83602 2.3351 4.83602C3.62041 4.83602 4.66502 3.79836 4.66994 2.51462L4.67017 2.33053C4.67017 1.04351 3.62486 0 2.3351 0C1.04556 0 0.000251755 1.04374 0.000251755 2.33076Z" transform="translate(81.2578 40.7832)" fill="#3D5984"/>
<path fill-rule="evenodd" clip-rule="evenodd" d="M113.843 113.66C112.915 114.586 111.679 115.099 110.363 115.105C110.355 115.105 110.347 115.105 110.339 115.105C109.04 115.105 107.829 114.61 106.927 113.709L88.0508 94.8697L95.0164 87.9177L113.892 106.757C115.785 108.646 115.763 111.743 113.843 113.66ZM100.405 114.677H97.6035V110.995L101.662 115.046C101.299 114.814 100.869 114.677 100.405 114.677ZM82.6582 114.677V105.128H91.5312C91.593 105.128 91.6537 105.123 91.7145 105.118L92.9325 106.334V114.677H82.6582V114.677ZM57.4414 114.677H67.7155V93.2372H57.4414V114.677ZM32.2227 114.677H42.4965V103.025H32.2227V114.677ZM7.00586 114.677H17.2799V88.4274H7.00586V114.677ZM75.3005 71.1282L83.0923 78.9048L79.1885 82.8009L71.4023 75.0302C72.7819 73.8164 74.0838 72.513 75.3005 71.1282ZM91.7149 84.622L84.7495 91.574L80.877 87.709L87.8423 80.757L91.7149 84.622ZM117.195 103.461L89.4928 75.8131C88.6502 74.9724 87.3253 74.9102 86.4089 75.6229L78.2046 67.4349C81.0544 63.3656 83.2263 58.7535 84.5379 53.7389C84.8637 52.4936 84.116 51.2203 82.8684 50.8957C81.6204 50.5701 80.3452 51.3167 80.0194 52.5619C75.6251 69.3647 60.3874 81.0996 42.964 81.0996C21.8487 81.0996 4.66992 63.9544 4.66992 42.8802C4.66992 21.8061 21.8487 4.66082 42.964 4.66082C60.252 4.66082 75.4594 16.2823 79.9458 32.9219C80.2809 34.1651 81.5623 34.9011 82.8073 34.5668C84.0525 34.2323 84.7903 32.9537 84.4552 31.7109C79.4215 13.04 62.3597 0 42.964 0C19.2736 0 0 19.236 0 42.8802C0 66.5244 19.2736 85.7605 42.964 85.7605C52.0734 85.7605 60.6497 82.8999 67.7112 77.9375L75.8883 86.0987C75.0129 87.0115 75.023 88.4589 75.9227 89.3567L87.0544 100.467H80.3238C79.0343 100.467 77.989 101.51 77.989 102.797V114.677H72.3848V90.9067C72.3848 89.6197 71.3395 88.5764 70.05 88.5764H55.106C53.8162 88.5764 52.7709 89.6197 52.7709 90.9067V114.677H47.167V100.695C47.167 99.4075 46.1215 98.3642 44.832 98.3642H29.888C28.5984 98.3642 27.5529 99.4075 27.5529 100.695V114.677H21.949V86.0968C21.949 84.8098 20.9037 83.7665 19.6139 83.7665H4.66992C3.38039 83.7665 2.33508 84.8098 2.33508 86.0968V114.677C1.04531 114.677 0 115.721 0 117.008C0 118.295 1.04531 119.338 2.33508 119.338H100.405C101.695 119.338 102.74 118.295 102.74 117.008C102.74 116.546 102.603 116.116 102.371 115.753L103.624 117.005C105.41 118.787 107.792 119.766 110.338 119.766C110.354 119.766 110.37 119.766 110.386 119.766C112.941 119.754 115.342 118.756 117.145 116.956C120.886 113.222 120.908 107.168 117.195 103.461Z" transform="translate(0 0.233685)" fill="#45d2c9"/>
</svg>
