<svg width="120" height="120" viewBox="0 0 120 120" fill="none" xmlns="http://www.w3.org/2000/svg">
<path fill-rule="evenodd" clip-rule="evenodd" d="M115.758 71.868C115.758 75.1749 113.077 77.8556 109.77 77.8556H101.787V41.9304H113.762C114.864 41.9304 115.758 42.824 115.758 43.9262V71.868ZM59.8757 8.00108C39.7257 8.00357 21.4014 19.6778 12.8836 37.9387H8.4668C20.6073 9.54636 53.4658 -3.62844 81.8581 8.51227C95.0878 14.1692 105.628 24.7088 111.285 37.9387H106.868C98.35 19.6778 80.0257 8.00357 59.8757 8.00108ZM19.9589 77.8556H9.97971C6.67285 77.8556 3.99219 75.1749 3.99219 71.868V43.9262C3.99219 42.824 4.88583 41.9304 5.98803 41.9304H19.9589V77.8556ZM67.8593 113.781C67.8593 114.883 66.9657 115.777 65.8635 115.777H53.8884C52.7862 115.777 51.8926 114.883 51.8926 113.781V109.789C51.8926 108.687 52.7862 107.793 53.8884 107.793H65.8635C66.9657 107.793 67.8593 108.687 67.8593 109.789V113.781ZM115.701 38.288C103.783 7.45621 69.1275 -7.87634 38.296 4.04183C22.5652 10.1224 10.1301 22.5575 4.04956 38.288C1.63684 39.1133 0.0114761 41.3763 0 43.9262V71.868C0.00673597 77.3768 4.47069 81.8408 9.97921 81.8472H21.9543C23.0565 81.8472 23.9501 80.9536 23.9501 79.8514V39.9346C23.9501 38.8323 23.0565 37.9387 21.9543 37.9387H17.3439C29.4314 14.4494 58.2721 5.20615 81.7617 17.2937C90.6267 21.8557 97.8447 29.0737 102.407 37.9387H99.7921C98.6899 37.9387 97.7963 38.8323 97.7963 39.9346V79.8514C97.7963 80.9536 98.6899 81.8472 99.7921 81.8472H106.883C100.124 96.1702 87.2437 106.663 71.8503 110.388V109.789C71.8503 106.482 69.1696 103.801 65.8628 103.801H53.8877C50.5809 103.801 47.9002 106.482 47.9002 109.789V113.781C47.9002 117.088 50.5809 119.768 53.8877 119.768H65.8628C68.8905 119.759 71.4327 117.487 71.7805 114.479C89.4594 110.541 104.165 98.3401 111.298 81.6916C116.15 80.9454 119.737 76.7773 119.751 71.868V43.9262C119.739 41.3763 118.114 39.1133 115.701 38.288Z" transform="translate(0 0.231768)" fill="#5da689"/>
<path fill-rule="evenodd" clip-rule="evenodd" d="M51.7559 28.5297L56.973 33.7468C57.7659 34.5127 59.0293 34.4907 59.7952 33.6979C60.5424 32.9245 60.5424 31.6981 59.7952 30.9247L51.3268 22.4563C50.5474 21.6772 49.2841 21.6772 48.5047 22.4563L40.0363 30.9247C39.2704 31.7175 39.2924 32.9809 40.0852 33.7468C40.8586 34.494 42.0851 34.494 42.8584 33.7468L47.6844 28.9208C45.9904 40.9213 34.8885 49.2764 22.8881 47.5822C10.8876 45.8882 2.53271 34.7866 4.22668 22.7861C5.65795 12.6482 13.9093 4.84725 24.1115 3.98679C25.2105 3.89473 26.0268 2.92924 25.9347 1.83028C25.8426 0.731322 24.8772 -0.0849773 23.7782 0.00708091C9.4987 1.20509 -1.10571 13.7522 0.0922939 28.0314C1.2903 42.3109 13.8374 52.9154 28.1167 51.7174C40.5455 50.6745 50.4736 40.9361 51.7559 28.5297Z" transform="translate(33.9102 34.2615)" fill="#3D5984"/>
<path fill-rule="evenodd" clip-rule="evenodd" d="M3.99219 13.9709C3.99219 8.45963 8.46013 3.99168 13.9714 3.99168C19.4827 3.99168 23.9506 8.45963 23.9506 13.9709C23.9506 19.4822 19.4827 23.9501 13.9714 23.9501C8.46287 23.9436 3.99867 19.4797 3.99219 13.9709ZM27.9418 13.9709C27.9418 6.25497 21.6868 0 13.9709 0C6.25497 0 0 6.25497 0 13.9709C0 21.6868 6.25497 27.9418 13.9709 27.9418C21.6831 27.9331 27.9331 21.6831 27.9418 13.9709Z" transform="translate(61.8711 28.1913)" fill="#5da689"/>
<path fill-rule="evenodd" clip-rule="evenodd" d="M0 1.99584V9.97921C0 11.0814 0.893638 11.9751 1.99584 11.9751H5.98753C7.08973 11.9751 7.98337 11.0814 7.98337 9.97921C7.98337 8.87701 7.08973 7.98337 5.98753 7.98337H3.99168V1.99584C3.99168 0.893638 3.09805 0 1.99584 0C0.893638 0 0 0.893638 0 1.99584Z" transform="translate(73.8457 32.183)" fill="#3D5984"/>
</svg>
