<svg width="120" height="120" viewBox="0 0 120 120" fill="none" xmlns="http://www.w3.org/2000/svg">
<path fill-rule="evenodd" clip-rule="evenodd" d="M26.914 0H2.34375C1.0493 0 0 1.04953 0 2.34375C0 3.63797 1.0493 4.6875 2.34375 4.6875H26.914C28.2084 4.6875 29.2577 3.63797 29.2577 2.34375C29.2577 1.04953 28.2084 0 26.914 0Z" transform="translate(78.0859 59.5312)" fill="#3D5984"/>
<path fill-rule="evenodd" clip-rule="evenodd" d="M26.914 0H2.34375C1.0493 0 0 1.04953 0 2.34375C0 3.63797 1.0493 4.6875 2.34375 4.6875H26.914C28.2084 4.6875 29.2577 3.63797 29.2577 2.34375C29.2577 1.04953 28.2084 0 26.914 0Z" transform="translate(78.0859 48.2812)" fill="#3D5984"/>
<path fill-rule="evenodd" clip-rule="evenodd" d="M17.3046 0H2.34375C1.0493 0 0 1.04953 0 2.34375C0 3.63797 1.0493 4.6875 2.34375 4.6875H17.3046C18.5991 4.6875 19.6484 3.63797 19.6484 2.34375C19.6484 1.04953 18.5991 0 17.3046 0Z" transform="translate(78.0859 70.7812)" fill="#3D5984"/>
<path fill-rule="evenodd" clip-rule="evenodd" d="M2.34375 0C1.72734 0 1.12266 0.250547 0.686719 0.686719C0.250781 1.12266 0 1.72734 0 2.34375C0 2.96016 0.250781 3.56484 0.686719 4.00055C1.12266 4.43648 1.72734 4.6875 2.34375 4.6875C2.96016 4.6875 3.56484 4.43672 4.00078 4.00055C4.43672 3.56484 4.6875 2.96016 4.6875 2.34375C4.6875 1.72734 4.43672 1.12266 4.00078 0.686719C3.56484 0.250781 2.96016 0 2.34375 0Z" transform="translate(102.656 70.7812)" fill="#3D5984"/>
<path fill-rule="evenodd" clip-rule="evenodd" d="M74.0009 83.4375V34.2188C74.0009 32.9245 72.9516 31.875 71.6571 31.875H62.3438V19.2188H87.9101C89.2045 19.2188 90.2538 18.1692 90.2538 16.875C90.2538 15.5808 89.2045 14.5312 87.9101 14.5312H60C58.7055 14.5312 57.6562 15.5808 57.6562 16.875V31.875H50.625V4.6875H96.8955V20.7605C96.8955 22.0547 97.9448 23.1042 99.2393 23.1042H102.656V37.0312H81.9532C80.6588 37.0312 79.6095 38.0808 79.6095 39.375C79.6095 40.6692 80.6588 41.7188 81.9532 41.7188H105C106.294 41.7188 107.344 40.6692 107.344 39.375V23.1042H115.312V83.4375H74.0009ZM57.5977 115.312V78.6523C60.6724 77.6658 62.9046 74.7802 62.9046 71.3822C62.9046 69.9373 62.501 68.5847 61.8007 67.4316L69.3134 59.9191V115.312H57.5977ZM4.6875 87.1336C4.71914 87.1052 4.75172 87.0785 4.78219 87.048L14.8268 77.0032C15.3033 77.2842 15.8123 77.5148 16.3474 77.688V115.312H4.6875V87.1336ZM58.2497 64.3535C57.3337 63.9637 56.3269 63.7479 55.2705 63.7479C51.0609 63.7479 47.6362 67.1726 47.6362 71.3822C47.6362 72.4388 47.8523 73.4454 48.2419 74.3613L40.5052 82.0983C39.4613 81.5616 38.2795 81.2566 37.0273 81.2566C35.7825 81.2566 34.6073 81.558 33.5679 82.0889L25.4487 73.9699C26.0077 72.9094 26.3257 71.703 26.3257 70.4231C26.3257 66.2138 22.901 62.7891 18.6914 62.7891C14.4818 62.7891 11.0571 66.2138 11.0571 70.4231C11.0571 71.516 11.2896 72.5548 11.7049 73.4958L4.6875 80.5132V53.4375H69.1659L58.2497 64.3535ZM39.3164 96.1741C42.4109 95.1994 44.6613 92.3032 44.6613 88.8912C44.6613 87.6389 44.3562 86.4572 43.8197 85.4133L51.3202 77.9128C51.8159 78.2137 52.3493 78.4587 52.9104 78.6415V115.312H39.3166V96.1741H39.3164ZM39.9737 88.8912C39.9737 90.5161 38.6518 91.8377 37.0269 91.8377C35.402 91.8377 34.0801 90.5159 34.0801 88.8912C34.0801 87.2665 35.402 85.9444 37.0269 85.9444C38.6518 85.9444 39.9737 87.2663 39.9737 88.8912ZM21.0352 77.6878C21.4034 77.5687 21.7591 77.422 22.1006 77.2509L30.2442 85.3943C29.7016 86.4429 29.393 87.6312 29.393 88.8909C29.393 92.2627 31.5912 95.1291 34.6291 96.1371V115.312H21.0354V77.6878H21.0352ZM18.6909 73.3699C17.066 73.3699 15.7441 72.0478 15.7441 70.4231C15.7441 68.7984 17.066 67.4766 18.6909 67.4766C20.3159 67.4766 21.6377 68.7984 21.6377 70.4231C21.6377 72.0478 20.3159 73.3699 18.6909 73.3699ZM58.2178 71.3822C58.2178 73.0071 56.8959 74.3288 55.271 74.3288C53.6461 74.3288 52.3242 73.0069 52.3242 71.3822C52.3242 69.7575 53.6461 68.4354 55.271 68.4354C55.8902 68.4354 56.4647 68.6283 56.9395 68.9559C56.9433 68.9599 56.9466 68.9641 56.9505 68.9681C57.0659 69.0834 57.1905 69.1842 57.3216 69.2705C57.8733 69.8063 58.2178 70.5544 58.2178 71.3822ZM69.3134 36.5625V48.7512C69.3047 48.7512 69.2962 48.75 69.2878 48.75H4.6875V36.5625H69.3134ZM101.584 18.4167V8.00203L111.999 18.4167H101.584ZM119.314 19.1032L100.897 0.686484C100.457 0.247031 99.8611 0 99.2393 0H48.2812C46.9868 0 45.9375 1.04953 45.9375 2.34375V31.875H2.34375C1.0493 31.875 0 32.9245 0 34.2188V117.656C0 118.95 1.0493 120 2.34375 120H71.6571C72.9516 120 74.0009 118.95 74.0009 117.656V88.125H117.656C118.951 88.125 120 87.0755 120 85.7812V20.7605C120 20.1389 119.753 19.5429 119.314 19.1032Z" fill="#45d2c9"/>
<path fill-rule="evenodd" clip-rule="evenodd" d="M2.34375 4.6875H19.9552C21.2496 4.6875 22.2989 3.63797 22.2989 2.34375C22.2989 1.04953 21.2496 0 19.9552 0H2.34375C1.0493 0 0 1.04953 0 2.34375C0 3.63797 1.0493 4.6875 2.34375 4.6875Z" transform="translate(40.0742 40.3125)" fill="#3D5984"/>
<path fill-rule="evenodd" clip-rule="evenodd" d="M2.34375 4.6875C2.96016 4.6875 3.56484 4.43672 4.00078 4.00055C4.43672 3.56484 4.6875 2.96016 4.6875 2.34375C4.6875 1.72734 4.43672 1.12266 4.00078 0.686719C3.56484 0.250781 2.96016 0 2.34375 0C1.72734 0 1.12266 0.250547 0.686719 0.686719C0.248438 1.12266 0 1.72734 0 2.34375C0 2.96016 0.248438 3.56484 0.686719 4.00055C1.12266 4.43672 1.72734 4.6875 2.34375 4.6875Z" transform="translate(21.9727 40.3125)" fill="#3D5984"/>
<path fill-rule="evenodd" clip-rule="evenodd" d="M2.34375 4.6875C2.96016 4.6875 3.56484 4.43672 4.00078 4.00055C4.43672 3.56484 4.6875 2.96016 4.6875 2.34375C4.6875 1.72734 4.43672 1.12266 4.00078 0.686719C3.56484 0.250781 2.96016 0 2.34375 0C1.72734 0 1.12266 0.250547 0.686719 0.686719C0.250781 1.12266 0 1.72734 0 2.34375C0 2.96016 0.250781 3.56484 0.686719 4.00055C1.12266 4.43672 1.72734 4.6875 2.34375 4.6875Z" transform="translate(13.3594 40.3125)" fill="#3D5984"/>
<path fill-rule="evenodd" clip-rule="evenodd" d="M2.34375 4.6875C2.96016 4.6875 3.5625 4.43672 4.00078 4.00055C4.43672 3.56484 4.6875 2.96016 4.6875 2.34375C4.6875 1.72734 4.43672 1.12266 4.00078 0.686719C3.5625 0.250781 2.96016 0 2.34375 0C1.725 0 1.12266 0.250547 0.684375 0.686719C0.248437 1.12266 0 1.72734 0 2.34375C0 2.96016 0.248437 3.56484 0.684375 4.00055C1.12266 4.43672 1.725 4.6875 2.34375 4.6875Z" transform="translate(30.5859 40.3125)" fill="#3D5984"/>
</svg>
