<svg width="80" height="60" viewBox="0 0 80 60" fill="none" xmlns="http://www.w3.org/2000/svg">
<path fill-rule="evenodd" clip-rule="evenodd" d="M2.66797 26.6666H72.0014V2.66656H2.66797V26.6666ZM1.33328 29.3333H73.3333C74.0697 29.3333 74.6666 28.7364 74.6666 28V1.33328C74.6666 0.596875 74.0697 0 73.3333 0H1.33328C0.596875 0 0 0.596875 0 1.33328V28C0 28.7364 0.596875 29.3333 1.33328 29.3333Z" transform="translate(2.66406 14.6667)" fill="#5da689"/>
<path fill-rule="evenodd" clip-rule="evenodd" d="M13.3333 6.66656C13.3333 2.98484 10.3483 0 6.66656 0C2.98484 0 0 2.98484 0 6.66656C0 10.3483 2.98484 13.3333 6.66656 13.3333C10.3483 13.3333 13.3333 10.3483 13.3333 6.66656ZM10.668 6.66656C10.668 8.87563 8.87703 10.6666 6.66797 10.6666C4.45906 10.6666 2.66797 8.87563 2.66797 6.66656C2.66797 4.45766 4.45906 2.66656 6.66797 2.66656C8.87703 2.66656 10.668 4.45766 10.668 6.66656Z" transform="translate(5.32812 46.6667)" fill="#5da689"/>
<path fill-rule="evenodd" clip-rule="evenodd" d="M13.3333 6.66656C13.3333 2.98484 10.3484 0 6.66672 0C2.985 0 0 2.98484 0 6.66656C0 10.3483 2.985 13.3333 6.66672 13.3333C10.3484 13.3333 13.3333 10.3483 13.3333 6.66656ZM10.668 6.66656C10.668 8.87563 8.87687 10.6666 6.66797 10.6666C4.45906 10.6666 2.66797 8.87563 2.66797 6.66656C2.66797 4.45766 4.45906 2.66656 6.66797 2.66656C8.87687 2.66656 10.668 4.45766 10.668 6.66656Z" transform="translate(16 46.6667)" fill="#5da689"/>
<path fill-rule="evenodd" clip-rule="evenodd" d="M13.3333 6.66656C13.3333 2.98484 10.3483 0 6.66656 0C2.985 0 0 2.98484 0 6.66656C0 10.3483 2.985 13.3333 6.66656 13.3333C10.3483 13.3333 13.3333 10.3483 13.3333 6.66656ZM10.6681 6.66656C10.6681 8.87563 8.87703 10.6666 6.66797 10.6666C4.45906 10.6666 2.66797 8.87563 2.66797 6.66656C2.66797 4.45766 4.45906 2.66656 6.66797 2.66656C8.87703 2.66656 10.6681 4.45766 10.6681 6.66656Z" transform="translate(50.6641 46.6667)" fill="#5da689"/>
<path fill-rule="evenodd" clip-rule="evenodd" d="M13.3333 6.66656C13.3333 2.98484 10.3483 0 6.66656 0C2.98484 0 0 2.98484 0 6.66656C0 10.3483 2.98484 13.3333 6.66656 13.3333C10.3483 13.3333 13.3333 10.3483 13.3333 6.66656ZM10.668 6.66656C10.668 8.87563 8.87687 10.6666 6.66797 10.6666C4.45906 10.6666 2.66797 8.87563 2.66797 6.66656C2.66797 4.45766 4.45906 2.66656 6.66797 2.66656C8.87687 2.66656 10.668 4.45766 10.668 6.66656Z" transform="translate(61.3281 46.6667)" fill="#5da689"/>
<path fill-rule="evenodd" clip-rule="evenodd" d="M42.0053 13.1576C42.6447 13.5229 43.459 13.3009 43.8245 12.6615C44.1898 12.0222 43.9676 11.2076 43.3283 10.8423L24.6617 0.175605C24.2289 -0.0715821 23.6942 -0.0568946 23.2758 0.213887L0.609046 14.8806C-0.00907928 15.2806 -0.185954 16.1061 0.214046 16.7244C0.614046 17.3426 1.43951 17.5195 2.0578 17.1194L24.0431 2.89357L42.0053 13.1576Z" transform="translate(2.66406)" fill="#5da689"/>
<path fill-rule="evenodd" clip-rule="evenodd" d="M37.3358 14.6666C38.6666 14.6666 39.1763 12.9313 38.0569 12.2118L19.3902 0.211776C18.937 -0.0794742 18.3531 -0.0696305 17.9102 0.237088L0.576888 12.2371C-0.4978 12.9812 0.0286067 14.6666 1.33579 14.6666H37.3358ZM5.60547 12.0001L18.6978 2.93599L32.7973 12.0001H5.60547Z" transform="translate(38.6641 2.66666)" fill="#5da689"/>
<path fill-rule="evenodd" clip-rule="evenodd" d="M0 1.33344V14.6667C0 15.4031 0.597031 16 1.33344 16C2.06969 16 2.66672 15.4031 2.66672 14.6667V1.33344C2.66672 0.597031 2.06969 0 1.33344 0C0.597031 0 0 0.597031 0 1.33344Z" transform="translate(12 21.3333)" fill="#546F97"/>
<path fill-rule="evenodd" clip-rule="evenodd" d="M0 1.33344V14.6667C0 15.4031 0.596875 16 1.33328 16C2.06969 16 2.66656 15.4031 2.66656 14.6667V1.33344C2.66656 0.597031 2.06969 0 1.33328 0C0.596875 0 0 0.597031 0 1.33344Z" transform="translate(18.6641 21.3333)" fill="#546F97"/>
<path fill-rule="evenodd" clip-rule="evenodd" d="M0 1.33344V14.6667C0 15.4031 0.597031 16 1.33344 16C2.06984 16 2.66672 15.4031 2.66672 14.6667V1.33344C2.66672 0.597031 2.06984 0 1.33344 0C0.597031 0 0 0.597031 0 1.33344Z" transform="translate(25.3359 21.3333)" fill="#546F97"/>
<path fill-rule="evenodd" clip-rule="evenodd" d="M0 1.33344V14.6667C0 15.4031 0.597031 16 1.33328 16C2.06969 16 2.66672 15.4031 2.66672 14.6667V1.33344C2.66672 0.597031 2.06969 0 1.33328 0C0.597031 0 0 0.597031 0 1.33344Z" transform="translate(32 21.3333)" fill="#546F97"/>
<path fill-rule="evenodd" clip-rule="evenodd" d="M0 1.33344V14.6667C0 15.4031 0.596875 16 1.33328 16C2.06969 16 2.66672 15.4031 2.66672 14.6667V1.33344C2.66672 0.597031 2.06969 0 1.33328 0C0.596875 0 0 0.597031 0 1.33344Z" transform="translate(38.6641 21.3333)" fill="#546F97"/>
<path fill-rule="evenodd" clip-rule="evenodd" d="M0 1.33344V14.6667C0 15.4031 0.596875 16 1.33328 16C2.06969 16 2.66656 15.4031 2.66656 14.6667V1.33344C2.66656 0.597031 2.06969 0 1.33328 0C0.596875 0 0 0.597031 0 1.33344Z" transform="translate(45.3359 21.3333)" fill="#546F97"/>
<path fill-rule="evenodd" clip-rule="evenodd" d="M0 1.33344V14.6667C0 15.4031 0.597031 16 1.33328 16C2.06969 16 2.66672 15.4031 2.66672 14.6667V1.33344C2.66672 0.597031 2.06969 0 1.33328 0C0.597031 0 0 0.597031 0 1.33344Z" transform="translate(52 21.3333)" fill="#546F97"/>
<path fill-rule="evenodd" clip-rule="evenodd" d="M0 1.33344V14.6667C0 15.4031 0.596875 16 1.33328 16C2.06969 16 2.66672 15.4031 2.66672 14.6667V1.33344C2.66672 0.597031 2.06969 0 1.33328 0C0.596875 0 0 0.597031 0 1.33344Z" transform="translate(58.6641 21.3333)" fill="#546F97"/>
<path fill-rule="evenodd" clip-rule="evenodd" d="M0 1.33344V14.6667C0 15.4031 0.596875 16 1.33328 16C2.06969 16 2.66656 15.4031 2.66656 14.6667V1.33344C2.66656 0.597031 2.06969 0 1.33328 0C0.596875 0 0 0.597031 0 1.33344Z" transform="translate(65.3359 21.3333)" fill="#546F97"/>
<path fill-rule="evenodd" clip-rule="evenodd" d="M29.027 5.33328C27.8889 5.33328 26.867 4.80891 26.3773 3.97359C25.4294 2.35297 23.6886 1.33328 21.7738 1.33328C19.8583 1.33328 18.1192 2.35203 17.1688 3.97375C16.6798 4.80906 15.6583 5.33328 14.5191 5.33328H10.9738C10.3559 2.29047 7.66547 0 4.44047 0C2.78234 0 1.22172 0.622656 0 1.72L1.78203 3.70375C2.52359 3.03766 3.45375 2.66656 4.44047 2.66656C6.64937 2.66656 8.44047 4.45766 8.44047 6.66656V8H14.5191C16.5623 8 18.4773 7.0175 19.4698 5.32141C19.9461 4.50875 20.8147 4 21.7738 4C22.7319 4 23.6012 4.50906 24.0761 5.32109C25.0706 7.0175 26.9853 8 29.027 8H35.107V6.66656C35.107 4.45766 36.8981 2.66656 39.107 2.66656C40.0933 2.66656 41.0225 3.0375 41.7661 3.70438L43.5467 1.71938C42.3234 0.622187 40.7645 0 39.107 0C35.882 0 33.1916 2.29047 32.5737 5.33328H29.027Z" transform="translate(18.2266 46.6669)" fill="#5da689"/>
<path fill-rule="evenodd" clip-rule="evenodd" d="M3.21734 10.6666C2.91375 10.6666 2.66672 10.4195 2.66672 10.1159V3.21719C2.66672 2.91359 2.91375 2.66656 3.21734 2.66656H76.7827C77.0863 2.66656 77.3333 2.91359 77.3333 3.21719V10.1159C77.3333 10.4195 77.0863 10.6666 76.7827 10.6666H74.5333C73.9155 7.62375 71.2252 5.33328 68 5.33328C65.8764 5.33328 63.9239 6.34656 62.6705 8.02469L64.8069 9.62047C65.5652 8.60547 66.7319 8 68 8C70.2089 8 72 9.79094 72 12V13.3333H76.7827C78.5591 13.3333 80 11.8923 80 10.1159V3.21719C80 1.44094 78.5591 0 76.7827 0H3.21734C1.44094 0 0 1.44094 0 3.21719V10.1159C0 11.8923 1.44094 13.3333 3.21734 13.3333H8V12C8 9.79094 9.79109 8 12 8C13.2678 8 14.4336 8.60516 15.1936 9.62125L17.3291 8.02406C16.0739 6.34594 14.1231 5.33328 12 5.33328C8.77484 5.33328 6.08453 7.62375 5.46672 10.6666H3.21734Z" transform="translate(0 41.3333)" fill="#5da689"/>
</svg>
