<svg width="56" height="70" viewBox="0 0 56 70" fill="none" xmlns="http://www.w3.org/2000/svg">
<path fill-rule="evenodd" clip-rule="evenodd" d="M15.1672 2.33337C11.3172 2.33337 8.1672 5.48337 8.1672 9.33337V43.5166C8.1672 43.8666 7.93382 44.2166 7.70044 44.45C4.43382 46.7834 2.33382 50.6334 2.33382 54.7166C2.2172 61.6 7.8172 67.4334 14.7004 67.6666C18.2004 67.7834 21.5838 66.5 24.1504 64.05C26.6004 61.6 28.0004 58.3334 28.0004 54.8334C28.0004 50.75 26.0172 46.7834 22.6338 44.45C22.2838 44.2166 22.1672 43.8666 22.1672 43.5166V9.33337C22.1672 5.48337 19.0172 2.33337 15.1672 2.33337ZM15.1683 70C14.9349 70 14.8183 70 14.5849 70C6.41829 69.65 -0.115084 62.8834 0.00153729 54.7166C0.00153729 50.1666 2.2183 45.7334 5.83492 42.9334V9.33338C5.83492 4.2 10.0349 0 15.1683 0C20.3015 0 24.5015 4.2 24.5015 9.33338V42.9334C28.1183 45.85 30.3349 50.1666 30.3349 54.8334C30.3349 59.0334 28.7015 62.8834 25.6683 65.8C22.8683 68.4834 19.1349 70 15.1683 70Z" transform="translate(11.6641)" fill="#5da689"/>
<path fill-rule="evenodd" clip-rule="evenodd" d="M10.1521 29.1666H10.5021C12.7188 29.1666 14.7021 28.35 16.2188 26.8332C17.7354 25.3166 18.5521 23.2166 18.5521 21C18.5521 18.4332 17.2687 15.8666 15.1687 14.35L13.1854 12.95C12.8354 12.7166 12.7188 12.3666 12.7188 12.0166V4.66662C12.7188 3.38324 11.6687 2.33324 10.3854 2.33324C9.10213 2.33324 8.05213 3.38324 8.05213 4.66662V12.0166C8.05213 12.3666 7.81875 12.7166 7.58537 12.95L5.60213 14.35C3.50213 15.8666 2.21875 18.3166 2.21875 20.8832C2.33537 25.2 5.83537 28.9332 10.1521 29.1666ZM10.5021 31.5C10.5021 31.5 10.2688 31.5 10.0354 31.5C4.55215 31.2666 -0.114613 26.4832 0.00214467 20.8832C0.00214467 17.5 1.63539 14.4666 4.43539 12.4832L5.83539 11.4332V4.66662C5.83539 2.1 7.93539 0 10.5021 0C13.0688 0 15.1688 2.1 15.1688 4.66662V11.4332L16.5688 12.4832C19.3688 14.4666 21.0021 17.6166 21.0021 21C21.0021 23.8 19.9521 26.4832 17.9688 28.4666C15.9854 30.45 13.3021 31.5 10.5021 31.5Z" transform="translate(16.332 33.8334)" fill="#5da689"/>
<path fill-rule="evenodd" clip-rule="evenodd" d="M9.33338 2.33338H1.16662C0.466621 2.33338 0 1.86662 0 1.16662C0 0.466621 0.466621 0 1.16662 0H9.33338C10.0334 0 10.5 0.466621 10.5 1.16662C10.5 1.86662 10.0334 2.33338 9.33338 2.33338Z" transform="translate(17.5 10.5)" fill="#546F97"/>
<path fill-rule="evenodd" clip-rule="evenodd" d="M5.83338 2.33338H1.16662C0.466621 2.33338 0 1.86676 0 1.16676C0 0.466758 0.466621 0 1.16662 0H5.83338C6.53338 0 7 0.466758 7 1.16676C7 1.86676 6.53338 2.33338 5.83338 2.33338Z" transform="translate(17.5 15.1666)" fill="#546F97"/>
<path fill-rule="evenodd" clip-rule="evenodd" d="M9.33338 2.33324H1.16662C0.466621 2.33324 0 1.86662 0 1.16662C0 0.466621 0.466621 0 1.16662 0H9.33338C10.0334 0 10.5 0.466621 10.5 1.16662C10.5 1.86662 10.0334 2.33324 9.33338 2.33324Z" transform="translate(17.5 19.8334)" fill="#546F97"/>
<path fill-rule="evenodd" clip-rule="evenodd" d="M5.83338 2.33338H1.16662C0.466621 2.33338 0 1.86662 0 1.16662C0 0.466621 0.466621 0 1.16662 0H5.83338C6.53338 0 7 0.466621 7 1.16662C7 1.86662 6.53338 2.33338 5.83338 2.33338Z" transform="translate(17.5 24.5)" fill="#546F97"/>
<path fill-rule="evenodd" clip-rule="evenodd" d="M9.33338 2.33338H1.16662C0.466621 2.33338 0 1.86676 0 1.16676C0 0.466758 0.466621 0 1.16662 0H9.33338C10.0334 0 10.5 0.466758 10.5 1.16676C10.5 1.86676 10.0334 2.33338 9.33338 2.33338Z" transform="translate(17.5 29.1666)" fill="#546F97"/>
<path fill-rule="evenodd" clip-rule="evenodd" d="M4.66797 5.83338C5.13459 6.18338 5.48459 6.53338 5.83459 7C6.18459 6.53338 6.53459 6.18338 7.00135 5.83338C6.53459 5.48338 6.18459 5.13338 5.83459 4.66662C5.48459 5.13338 5.13459 5.48338 4.66797 5.83338ZM5.83324 11.6666C5.13324 11.6666 4.66662 11.2 4.66662 10.5C4.66662 8.51662 3.15 7 1.16662 7C0.466621 7 0 6.53338 0 5.83338C0 5.13338 0.466621 4.66662 1.16662 4.66662C3.15 4.66662 4.66662 3.15 4.66662 1.16662C4.66662 0.466621 5.13324 0 5.83324 0C6.53324 0 7 0.466621 7 1.16662C7 3.15 8.51662 4.66662 10.5 4.66662C11.2 4.66662 11.6666 5.13338 11.6666 5.83338C11.6666 6.53338 11.2 7 10.5 7C8.51662 7 7 8.51662 7 10.5C7 11.2 6.53324 11.6666 5.83324 11.6666Z" transform="translate(44.332 36.75)" fill="#546F97"/>
<path fill-rule="evenodd" clip-rule="evenodd" d="M1.16662 7C0.466621 7 0 6.53324 0 5.83324V1.16662C0 0.466621 0.466621 0 1.16662 0C1.86662 0 2.33324 0.466621 2.33324 1.16662V5.83324C2.33324 6.53324 1.86662 7 1.16662 7Z" transform="translate(40.832 2.33337)" fill="#546F97"/>
<path fill-rule="evenodd" clip-rule="evenodd" d="M5.83338 2.33338H1.16662C0.466621 2.33338 0 1.86676 0 1.16676C0 0.466758 0.466621 0 1.16662 0H5.83338C6.53338 0 7 0.466758 7 1.16676C7 1.86676 6.53338 2.33338 5.83338 2.33338Z" transform="translate(38.5 4.66663)" fill="#546F97"/>
<path fill-rule="evenodd" clip-rule="evenodd" d="M2.44922 4.31662L4.31584 6.18324L6.1826 4.31662L4.31584 2.45L2.44922 4.31662ZM5.13338 8.63324H3.5L0 5.13324V3.5L3.5 0H5.13338L8.63338 3.5V5.13324L5.13338 8.63324Z" transform="translate(3.85156 6.18338)" fill="#546F97"/>
<path fill-rule="evenodd" clip-rule="evenodd" d="M2.33338 1.16676C2.33338 1.86676 1.86662 2.33338 1.16662 2.33338C0.466621 2.33338 0 1.86676 0 1.16676C0 0.466758 0.466621 0 1.16662 0C1.86662 0 2.33338 0.466758 2.33338 1.16676Z" transform="translate(0 43.1666)" fill="#546F97"/>
</svg>
