<svg width="73" height="66" viewBox="0 0 73 66" fill="none" xmlns="http://www.w3.org/2000/svg">
<path fill-rule="evenodd" clip-rule="evenodd" d="M72.2971 21.6195L64.3244 52.9342C63.7814 55.1039 62.0119 56.7743 59.8127 57.1896L59.215 57.3018L59.2228 57.9068C59.2502 60.0427 58.4416 62.0564 56.9377 63.5773C55.4377 65.0996 53.4338 65.9379 51.301 65.9379C46.9299 65.9379 43.3752 62.3822 43.3752 58.0118V57.2913H28.965V58.0118C28.965 62.3822 25.4103 65.9379 21.0392 65.9379C18.9064 65.9379 16.9025 65.0988 15.3986 63.5753C13.8986 62.0543 13.0861 60.0413 13.1135 57.9069L13.1213 57.3018L12.5275 57.1894C10.3283 56.7738 8.55877 55.0999 8.01189 52.9219L0.0431438 21.6192C-0.0818562 21.1353 0.0704876 20.5933 0.425956 20.2397L14.8088 6.0011C17.051 3.75783 20.7033 3.76128 22.9533 6.00874L25.3596 8.41759L32.0939 1.68546C33.1799 0.598465 34.6291 0 36.1681 0C37.7111 0 39.1603 0.598618 40.2463 1.68546L46.9767 8.41759L49.3869 6.00874C50.4728 4.92175 51.9221 4.32329 53.4611 4.32329C55.0041 4.32329 56.4533 4.92175 57.5431 6.01118L71.9103 20.2371C72.2736 20.5998 72.4221 21.1294 72.2971 21.6195ZM55.508 8.05415C54.3791 6.92653 52.5471 6.92293 51.426 8.04666L39.6486 19.8226H67.3947L55.508 8.05415ZM38.2072 3.72324L44.9377 10.4554L36.1681 19.2258L27.3986 10.4555L34.1291 3.72324C35.2541 2.59966 37.0822 2.59995 38.2072 3.72324ZM20.9142 8.04652C19.7892 6.92337 17.9611 6.92265 16.84 8.0448L4.94158 19.8225H32.6877L20.9142 8.04652ZM3.29314 22.7049H69.0471L67.5783 28.4692H4.76189L3.29314 22.7049ZM15.9963 58.0118C15.9963 60.7931 18.258 63.0556 21.0392 63.0556C23.8205 63.0556 26.0822 60.7931 26.0822 58.0118C26.0822 55.2306 23.8205 52.968 21.0392 52.968C18.258 52.968 15.9963 55.2306 15.9963 58.0118ZM51.301 63.0556C48.5197 63.0556 46.258 60.7931 46.258 58.0118C46.258 55.2306 48.5197 52.968 51.301 52.968C54.0822 52.968 56.3439 55.2306 56.3439 58.0118C56.3439 60.7931 54.0822 63.0556 51.301 63.0556ZM58.3752 54.4164L58.801 54.4069C60.0939 54.3775 61.2189 53.4809 61.5314 52.2289L66.8478 31.3514H5.49627L10.8088 52.2169C11.1252 53.4773 12.2463 54.3778 13.5431 54.4069L13.965 54.4164L14.1799 54.0481C15.5978 51.6041 18.2267 50.0859 21.0392 50.0859C23.8517 50.0859 26.4806 51.6049 27.8986 54.0502L28.1096 54.4092H44.2346L44.4416 54.0502C45.8596 51.6049 48.4885 50.0859 51.301 50.0859C54.1135 50.0859 56.7424 51.6041 58.1603 54.0481L58.3752 54.4164Z" transform="translate(0 0.0311279)" fill="#45d2c9"/>
<rect width="44.3143" height="2.82857" transform="translate(14.1406 36.7714)" fill="#546F97"/>
<rect width="34.8857" height="2.82857" transform="translate(18.8594 43.3714)" fill="#546F97"/>
</svg>
