<svg width="70" height="71" viewBox="0 0 70 71" fill="none" xmlns="http://www.w3.org/2000/svg">
<path d="M0 0H21.6364" transform="translate(23.9727 64.5511)" stroke="#546F97" stroke-width="2" stroke-linecap="round" stroke-linejoin="round"/>
<rect width="10.1818" height="10.1818" transform="translate(6.78906 31.5454)" stroke="#546F97" stroke-width="2" stroke-linecap="round" stroke-linejoin="round"/>
<rect width="10.1818" height="10.1818" transform="translate(22.0625 31.5454)" stroke="#546F97" stroke-width="2" stroke-linecap="round" stroke-linejoin="round"/>
<rect width="10.1818" height="10.1818" transform="translate(37.3359 31.5454)" stroke="#546F97" stroke-width="2" stroke-linecap="round" stroke-linejoin="round"/>
<rect width="10.1818" height="10.1818" transform="translate(52.6094 31.5454)" stroke="#546F97" stroke-width="2" stroke-linecap="round" stroke-linejoin="round"/>
<rect width="10.1818" height="10.1818" transform="translate(6.78906 16.2727)" stroke="#546F97" stroke-width="2" stroke-linecap="round" stroke-linejoin="round"/>
<rect width="10.1818" height="10.1818" transform="translate(22.0625 16.2727)" stroke="#546F97" stroke-width="2" stroke-linecap="round" stroke-linejoin="round"/>
<rect width="10.1818" height="10.1818" transform="translate(37.3359 16.2727)" stroke="#546F97" stroke-width="2" stroke-linecap="round" stroke-linejoin="round"/>
<rect width="10.1818" height="10.1818" transform="translate(52.6094 16.2727)" stroke="#546F97" stroke-width="2" stroke-linecap="round" stroke-linejoin="round"/>
<rect width="10.1818" height="10.1818" transform="translate(6.78906 1)" stroke="#45d2c9" stroke-width="2" stroke-linecap="round" stroke-linejoin="round"/>
<rect width="10.1818" height="10.1818" transform="translate(22.0625 1)" stroke="#45d2c9" stroke-width="2" stroke-linecap="round" stroke-linejoin="round"/>
<rect width="10.1818" height="10.1818" transform="translate(37.3359 1)" stroke="#546F97" stroke-width="2" stroke-linecap="round" stroke-linejoin="round"/>
<rect width="10.1818" height="10.1818" transform="translate(52.6094 1)" stroke="#546F97" stroke-width="2" stroke-linecap="round" stroke-linejoin="round"/>
<path fill-rule="evenodd" clip-rule="evenodd" d="M5.21818 10.4364C8.1001 10.4364 10.4364 8.1001 10.4364 5.21818C10.4364 2.33626 8.1001 0 5.21818 0C2.33626 0 0 2.33626 0 5.21818C0 8.1001 2.33626 10.4364 5.21818 10.4364Z" transform="translate(8.78906 59.3329)" stroke="#45d2c9" stroke-width="2" stroke-linecap="round" stroke-linejoin="round"/>
<path fill-rule="evenodd" clip-rule="evenodd" d="M5.21818 10.4364C8.1001 10.4364 10.4364 8.1001 10.4364 5.21818C10.4364 2.33626 8.1001 0 5.21818 0C2.33626 0 0 2.33626 0 5.21818C0 8.1001 2.33626 10.4364 5.21818 10.4364Z" transform="translate(50.3555 59.3329)" stroke="#45d2c9" stroke-width="2" stroke-linecap="round" stroke-linejoin="round"/>
<rect width="67.5818" height="6.68182" transform="translate(1 47.6136)" stroke="#45d2c9" stroke-width="2" stroke-linecap="round" stroke-linejoin="round"/>
<path d="M0 0V14.0013" transform="translate(68.582 33.6124)" stroke="#45d2c9" stroke-width="2" stroke-linecap="round" stroke-linejoin="round"/>
<path d="M0 0V14.0013" transform="translate(1 33.6124)" stroke="#45d2c9" stroke-width="2" stroke-linecap="round" stroke-linejoin="round"/>
</svg>
