<svg width="75" height="70" viewBox="0 0 75 70" fill="none" xmlns="http://www.w3.org/2000/svg">
<path fill-rule="evenodd" clip-rule="evenodd" d="M72.3381 59.8664H64.7812C64.8795 59.0377 64.8795 58.2006 64.7812 57.3719H72.3381V59.8664ZM53.629 67.3497C48.8072 67.3497 44.8984 63.4409 44.8984 58.6192C44.8984 53.7974 48.8072 49.8886 53.629 49.8886C58.4507 49.8886 62.3595 53.7974 62.3595 58.6192C62.354 63.4386 58.4483 67.3442 53.629 67.3497ZM32.3555 59.8664C32.4537 59.0377 32.4537 58.2006 32.3555 57.3719H42.4804C42.3821 58.2006 42.3821 59.0377 42.4804 59.8664H32.3555ZM21.2032 67.3497C16.3814 67.3497 12.4727 63.4409 12.4727 58.6192C12.4727 53.7974 16.3814 49.8886 21.2032 49.8886C26.0249 49.8886 29.9337 53.7974 29.9337 58.6192C29.9282 63.4386 26.0226 67.3442 21.2032 67.3497ZM2.49609 59.8664V57.3719H10.053C9.95476 58.2006 9.95476 59.0377 10.053 59.8664H2.49609ZM44.9014 44.8998V14.9666H65.0677C65.7172 14.9605 66.2613 15.4567 66.3149 16.1041L66.4396 17.461H51.1375C49.071 17.461 47.3959 19.1362 47.3959 21.2027V36.1693C47.3959 38.2357 49.071 39.9109 51.1375 39.9109H68.4102L69.731 54.8775H64.2021C62.1467 49.0398 55.7479 45.9736 49.9103 48.029C46.7079 49.1567 44.1893 51.6751 43.0618 54.8775H31.7745C29.7191 49.0398 23.3202 45.9736 17.4826 48.029C14.2803 49.1567 11.7617 51.6751 10.6342 54.8775H2.49609V44.8998H44.9014ZM68.1871 37.4165H51.1339C50.4452 37.4165 49.8867 36.858 49.8867 36.1693V21.2027C49.8867 20.5139 50.4452 19.9555 51.1339 19.9555H66.6456L68.1871 37.4165ZM74.833 54.8775H72.2338L68.7927 15.8845C68.6318 13.9486 67.0086 12.4622 65.066 12.4722H44.8998V3.74165C44.8998 1.67517 43.2246 0 41.1581 0H3.74165C1.67517 0 0 1.67517 0 3.74165V13.7194H2.49443V3.74165C2.49443 3.05287 3.05287 2.49443 3.74165 2.49443H41.1581C41.8469 2.49443 42.4053 3.05287 42.4053 3.74165V42.4053H2.49443V31.1804H0V62.3608H10.6325C12.6879 68.1986 19.0868 71.2647 24.9244 69.2093C28.1267 68.0816 30.6453 65.5632 31.7728 62.3608H43.0601C45.1155 68.1986 51.5144 71.2647 57.352 69.2093C60.5544 68.0816 63.073 65.5632 64.2004 62.3608H74.833V54.8775Z" transform="translate(0.167969 0.151672)" fill="#45d2c9"/>
<path fill-rule="evenodd" clip-rule="evenodd" d="M6.23774 9.97773C4.17126 9.97773 2.49609 8.30256 2.49609 6.23608C2.49609 4.1696 4.17126 2.49443 6.23774 2.49443C8.30422 2.49443 9.97939 4.1696 9.97939 6.23608C9.97939 8.30256 8.30422 9.97773 6.23774 9.97773ZM6.23608 0C2.79205 0 0 2.79205 0 6.23608C0 9.68011 2.79205 12.4722 6.23608 12.4722C9.68011 12.4722 12.4722 9.68011 12.4722 6.23608C12.4681 2.79376 9.6784 0.00405345 6.23608 0Z" transform="translate(47.5625 52.5347)" fill="#546F97"/>
<path fill-rule="evenodd" clip-rule="evenodd" d="M6.23774 9.97773C4.17126 9.97773 2.49609 8.30256 2.49609 6.23608C2.49609 4.1696 4.17126 2.49443 6.23774 2.49443C8.30422 2.49443 9.97939 4.1696 9.97939 6.23608C9.97939 8.30256 8.30422 9.97773 6.23774 9.97773ZM6.23608 0C2.79205 0 0 2.79205 0 6.23608C0 9.68011 2.79205 12.4722 6.23608 12.4722C9.68011 12.4722 12.4722 9.68011 12.4722 6.23608C12.4681 2.79376 9.6784 0.00405345 6.23608 0Z" transform="translate(15.1328 52.5347)" fill="#546F97"/>
<path fill-rule="evenodd" clip-rule="evenodd" d="M0 2.49443H4.98886V0H0V2.49443Z" transform="translate(47.5625 42.557)" fill="#546F97"/>
<path fill-rule="evenodd" clip-rule="evenodd" d="M2.49609 12.4722C2.49609 6.96165 6.96331 2.49443 12.4738 2.49443C17.9843 2.49443 22.4515 6.96165 22.4515 12.4722C22.4515 17.9827 17.9843 22.4499 12.4738 22.4499C6.9658 22.4436 2.50233 17.9802 2.49609 12.4722ZM24.9443 12.4722C24.9443 5.58394 19.3604 0 12.4722 0C5.58394 0 0 5.58394 0 12.4722C0 19.3604 5.58394 24.9443 12.4722 24.9443C19.3573 24.9368 24.9368 19.3573 24.9443 12.4722Z" transform="translate(15.1328 10.1294)" fill="#546F97"/>
<path fill-rule="evenodd" clip-rule="evenodd" d="M9.24686 1.76356L7.4833 0L3.37621 4.10708L1.76356 2.49443L0 4.258L3.37621 7.63421L9.24686 1.76356Z" transform="translate(24.2305 16.7309)" fill="#546F97"/>
<path fill-rule="evenodd" clip-rule="evenodd" d="M0 2.49443H12.4722V0H0V2.49443Z" transform="translate(0.167969 21.3543)" fill="#546F97"/>
<path fill-rule="evenodd" clip-rule="evenodd" d="M0 2.49443H9.97773V0H0V2.49443Z" transform="translate(2.66406 26.3432)" fill="#546F97"/>
<path fill-rule="evenodd" clip-rule="evenodd" d="M0 2.49443H7.4833V0H0V2.49443Z" transform="translate(5.15625 16.3655)" fill="#546F97"/>
<path fill-rule="evenodd" clip-rule="evenodd" d="M0 2.49443H2.49443V0H0V2.49443Z" transform="translate(0.167969 16.3655)" fill="#546F97"/>
</svg>
