<svg width="60" height="78" viewBox="0 0 60 78" fill="none" xmlns="http://www.w3.org/2000/svg">
<path fill-rule="evenodd" clip-rule="evenodd" d="M0 2.28516H2.28516V0H0V2.28516Z" transform="translate(11.4453 71.2786)" fill="#546F97"/>
<path fill-rule="evenodd" clip-rule="evenodd" d="M0 2.28516H2.28516V0H0V2.28516Z" transform="translate(19.0625 71.2786)" fill="#546F97"/>
<path fill-rule="evenodd" clip-rule="evenodd" d="M0 2.28516H2.28516V0H0V2.28516Z" transform="translate(15.2539 71.2786)" fill="#546F97"/>
<path fill-rule="evenodd" clip-rule="evenodd" d="M0 2.28516H2.28516V0H0V2.28516Z" transform="translate(7.63672 71.2786)" fill="#546F97"/>
<path fill-rule="evenodd" clip-rule="evenodd" d="M0 2.28516H2.28516V0H0V2.28516Z" transform="translate(20.7305 30.0437)" fill="#546F97"/>
<path fill-rule="evenodd" clip-rule="evenodd" d="M0 2.28516H2.28516V0H0V2.28516Z" transform="translate(24.5391 30.0437)" fill="#546F97"/>
<path fill-rule="evenodd" clip-rule="evenodd" d="M0 2.28516H2.28516V0H0V2.28516Z" transform="translate(16.9219 30.0437)" fill="#546F97"/>
<path fill-rule="evenodd" clip-rule="evenodd" d="M0 2.28516H15.8651V0H0V2.28516Z" transform="translate(27.1445 4.6084)" fill="#546F97"/>
<path fill-rule="evenodd" clip-rule="evenodd" d="M0 2.28516H2.28516V0H0V2.28516Z" transform="translate(44.5352 4.6084)" fill="#546F97"/>
<path fill-rule="evenodd" clip-rule="evenodd" d="M0 2.28516H2.28516V0H0V2.28516Z" transform="translate(48.3438 4.6084)" fill="#546F97"/>
<path fill-rule="evenodd" clip-rule="evenodd" d="M0 2.28516H17.6003V0H0V2.28516Z" transform="translate(30.7227 38.9269)" fill="#546F97"/>
<path fill-rule="evenodd" clip-rule="evenodd" d="M0 2.28516H2.28516V0H0V2.28516Z" transform="translate(53.6562 38.9269)" fill="#546F97"/>
<path fill-rule="evenodd" clip-rule="evenodd" d="M0 2.28516H2.28516V0H0V2.28516Z" transform="translate(49.8477 38.9269)" fill="#546F97"/>
<path fill-rule="evenodd" clip-rule="evenodd" d="M2.28516 10.1836H57.4336V2.285H2.28516V10.1836ZM54.7028 30.5298H50.5292V32.815H54.7028V40.813H5.01953V27.7835H8.6962V25.4984H5.01953V12.4689H54.7029V30.5298H54.7028ZM59.7188 0H0V12.4689H2.73259V43.0982H56.9863V12.4687H59.7188V0Z" transform="translate(0 34.9018)" fill="#45d2c9"/>
<path fill-rule="evenodd" clip-rule="evenodd" d="M2.28516 8.70858H49.115V2.28516H2.28516V8.70858ZM2.3368 32.9975H4.62196V31.3066H7.57027V29.0215H4.62196V10.9937H46.7784V27.8027H43.5243V30.0879H46.7782V32.9975H49.0634V10.9937H51.4002V0H0V10.9937H2.3368V32.9975Z" transform="translate(4.16016)" fill="#45d2c9"/>
<path fill-rule="evenodd" clip-rule="evenodd" d="M2.28516 6.41291H18.131V2.28516H2.28516V6.41291ZM0 8.69807H20.4162V0H0V8.69807Z" transform="translate(19.6523 14.5488)" fill="#45d2c9"/>
<path fill-rule="evenodd" clip-rule="evenodd" d="M2.28516 6.41291H18.131V2.28516H2.28516V6.41291ZM0 8.69807H20.4162V0H0V8.69807Z" transform="translate(19.6523 51.3779)" fill="#45d2c9"/>
</svg>
