<svg width="75" height="80" viewBox="0 0 75 80" fill="none" xmlns="http://www.w3.org/2000/svg">
<path fill-rule="evenodd" clip-rule="evenodd" d="M10.6305 1.32827C10.6305 0.595426 10.035 0 9.30219 0H1.32925C0.595426 0 0 0.595426 0 1.32827C0 2.06209 0.595426 2.65732 1.32925 2.65732H9.30219C10.035 2.65732 10.6305 2.06209 10.6305 1.32827Z" transform="translate(45.1797 47.9146)" fill="white"/>
<path fill-rule="evenodd" clip-rule="evenodd" d="M2.65732 7.97294V1.32905C2.65732 0.595426 2.0619 0 1.32827 0C0.595231 0 0 0.595426 0 1.32905V7.97294C0 11.6362 2.97966 14.6168 6.64389 14.6168H18.6024V39.8639C18.6024 40.5976 19.1979 41.193 19.9315 41.193C20.6653 41.193 21.2605 40.5976 21.2605 39.8639V13.2878C21.2605 12.5547 20.6653 11.9593 19.9315 11.9593H6.64389C4.44574 11.9593 2.65732 10.1711 2.65732 7.97294Z" transform="translate(47.8359 6.72156)" fill="#45d2c9"/>
<path fill-rule="evenodd" clip-rule="evenodd" d="M11.9595 0H1.32827C0.595426 0 0 0.595426 0 1.32905C0 2.06209 0.595426 2.65732 1.32827 2.65732H11.9595C12.6924 2.65732 13.2878 2.06209 13.2878 1.32905C13.2878 0.595426 12.6924 0 11.9595 0Z" transform="translate(42.5195 31.9686)" fill="white"/>
<path fill-rule="evenodd" clip-rule="evenodd" d="M10.6303 1.32905C10.6303 0.595426 10.0348 0 9.30122 0H1.32827C0.595231 0 0 0.595426 0 1.32905C0 2.06209 0.595231 2.65732 1.32827 2.65732H9.30122C10.0348 2.65732 10.6303 2.06209 10.6303 1.32905Z" transform="translate(29.2344 31.9686)" fill="white"/>
<path fill-rule="evenodd" clip-rule="evenodd" d="M1.32827 0C0.595231 0 0 0.595426 0 1.32827C0 2.06209 0.595231 2.65732 1.32827 2.65732H3.98637C4.71942 2.65732 5.31465 2.06209 5.31465 1.32827C5.31465 0.595426 4.71942 0 3.98637 0H1.32827Z" transform="translate(29.2344 39.9416)" fill="white"/>
<path fill-rule="evenodd" clip-rule="evenodd" d="M1.32827 2.6581H14.6159C15.3497 2.6581 15.9449 2.06287 15.9449 1.32905C15.9449 0.595426 15.3497 0 14.6159 0H1.32827C0.595231 0 0 0.595426 0 1.32905C0 2.06287 0.595231 2.6581 1.32827 2.6581Z" transform="translate(29.2344 23.9957)" fill="white"/>
<path fill-rule="evenodd" clip-rule="evenodd" d="M1.32905 2.65732H14.6166C15.3505 2.65732 15.9457 2.06209 15.9457 1.32905C15.9457 0.595426 15.3505 0 14.6166 0H1.32905C0.595231 0 0 0.595426 0 1.32905C0 2.06209 0.595231 2.65732 1.32905 2.65732Z" transform="translate(37.207 39.9416)" fill="white"/>
<path fill-rule="evenodd" clip-rule="evenodd" d="M1.32925 0C0.595426 0 0 0.595426 0 1.32905C0 2.06209 0.595426 2.65732 1.32925 2.65732H3.98657C4.72019 2.65732 5.31562 2.06209 5.31562 1.32905C5.31562 0.595426 4.72019 0 3.98657 0H1.32925Z" transform="translate(45.1797 55.8867)" fill="white"/>
<path fill-rule="evenodd" clip-rule="evenodd" d="M11.9585 0H1.32827C0.595231 0 0 0.595426 0 1.32827C0 2.06209 0.595231 2.65732 1.32827 2.65732H11.9585C12.6924 2.65732 13.2876 2.06209 13.2876 1.32827C13.2876 0.595426 12.6924 0 11.9585 0Z" transform="translate(29.2344 47.9146)" fill="white"/>
<path fill-rule="evenodd" clip-rule="evenodd" d="M11.9585 0H1.32827C0.595231 0 0 0.595426 0 1.32905C0 2.06209 0.595231 2.65732 1.32827 2.65732H11.9585C12.6924 2.65732 13.2876 2.06209 13.2876 1.32905C13.2876 0.595426 12.6924 0 11.9585 0Z" transform="translate(29.2344 55.8867)" fill="white"/>
<path fill-rule="evenodd" clip-rule="evenodd" d="M27.6514 4.18832L24.9933 1.53022C22.951 -0.512019 19.8388 -0.508126 17.7997 1.53022L0.389294 18.9404C0.14073 19.1892 0 19.5275 0 19.8796V27.8526C0 28.5862 0.595426 29.1816 1.32925 29.1816H9.30219C9.65411 29.1816 9.99241 29.0401 10.2412 28.7923L27.6514 11.3819C29.7682 9.26511 29.7682 6.30589 27.6514 4.18832ZM16.0803 7.00635L18.1879 9.11399L6.6428 20.6583L4.53516 18.5513L16.0803 7.00635ZM2.66016 26.5236V20.4302L8.75339 26.5236H2.66016ZM10.6303 24.6446L8.52344 22.537L20.0676 10.9927L22.1752 13.1005L10.6303 24.6446ZM25.7727 9.50309L24.0551 11.2214L17.9609 5.12742L19.6793 3.40907C20.7286 2.36051 22.0608 2.35506 23.1152 3.40907L25.7727 6.06718C26.8477 7.14299 26.8477 8.42805 25.7727 9.50309Z" transform="translate(45.1797 50.6239)" fill="#45d2c9"/>
<path fill-rule="evenodd" clip-rule="evenodd" d="M41.1922 77.0698H6.64389C4.44574 77.0698 2.65732 75.2814 2.65732 73.0832V6.64389C2.65732 4.44652 4.44574 2.65752 6.64389 2.65752H48.6155L61.5138 15.5566C62.0331 16.0759 62.8734 16.0759 63.3927 15.5566C63.912 15.0365 63.912 14.1972 63.3927 13.6771L50.1049 0.389294C49.8563 0.139951 49.5173 0 49.1652 0H6.64389C2.98044 0 0 2.98063 0 6.64389V73.084C0 76.7473 2.98044 79.7279 6.64389 79.7279H41.193C41.926 79.7279 42.5213 79.1325 42.5213 78.3988C42.5213 77.6658 41.926 77.0698 41.1922 77.0698Z" transform="translate(0 0.0776367)" fill="#45d2c9"/>
<path fill-rule="evenodd" clip-rule="evenodd" d="M11.9585 0H1.32827C0.595231 0 0 0.595231 0 1.32905C0 2.06209 0.595231 2.65732 1.32827 2.65732H11.9585C12.6924 2.65732 13.2876 2.06209 13.2876 1.32905C13.2876 0.595231 12.6924 0 11.9585 0Z" transform="translate(29.2344 63.8596)" fill="white"/>
<path fill-rule="evenodd" clip-rule="evenodd" d="M10.6303 1.32905C10.6303 0.595426 10.0348 0 9.302 0H1.32905C0.595231 0 0 0.595426 0 1.32905V9.302C0 10.035 0.595231 10.6303 1.32905 10.6303H9.302C10.0348 10.6303 10.6303 10.035 10.6303 9.302V1.32905ZM2.65625 7.97304H7.97109V2.6582H2.65625V7.97304Z" transform="translate(13.2891 23.9957)" fill="white"/>
<path fill-rule="evenodd" clip-rule="evenodd" d="M1.32905 10.6295H9.302C10.0348 10.6295 10.6303 10.0343 10.6303 9.30122V1.32827C10.6303 0.594647 10.0348 0 9.302 0H1.32905C0.595231 0 0 0.594647 0 1.32827V9.30122C0 10.0343 0.595231 10.6295 1.32905 10.6295ZM2.65625 7.97207H7.97109V2.65723H2.65625V7.97207Z" transform="translate(13.2891 55.8875)" fill="white"/>
<path fill-rule="evenodd" clip-rule="evenodd" d="M3.04759 10.242C3.29693 10.4915 3.63601 10.6313 3.98657 10.6313C4.03075 10.6313 4.07319 10.6297 4.11815 10.6245C4.51426 10.5857 4.87163 10.3704 5.09217 10.0397L10.4076 2.0668C10.8136 1.45561 10.6495 0.630498 10.0389 0.22388C9.42676 -0.18449 8.60419 -0.0180669 8.19582 0.591763L3.78063 7.2158L2.26822 5.70514C1.7489 5.18583 0.908808 5.18583 0.389489 5.70514C-0.12983 6.22524 -0.12983 7.06456 0.389489 7.58388L3.04759 10.242Z" transform="translate(13.2891 39.9406)" fill="#45d2c9"/>
</svg>
