<svg width="80" height="80" viewBox="0 0 80 80" fill="none" xmlns="http://www.w3.org/2000/svg">
<path fill-rule="evenodd" clip-rule="evenodd" d="M1.5625 3.125C1.97344 3.125 2.37656 2.95781 2.66703 2.66719C2.95922 2.37656 3.125 1.97344 3.125 1.5625C3.125 1.15156 2.95922 0.748438 2.66703 0.457812C2.37656 0.167187 1.97344 0 1.5625 0C1.15156 0 0.748438 0.167187 0.457812 0.457812C0.167187 0.748438 0 1.15156 0 1.5625C0 1.97344 0.167031 2.37656 0.457812 2.66719C0.75 2.95781 1.15156 3.125 1.5625 3.125Z" transform="translate(25.9883 13.2812)" fill="white"/>
<path fill-rule="evenodd" clip-rule="evenodd" d="M3.125 10H30.625V3.125H3.125V10ZM32.1875 0H1.5625C0.699687 0 0 0.699531 0 1.5625V11.5625C0 12.4253 0.699687 13.125 1.5625 13.125H32.1875C33.0503 13.125 33.75 12.4253 33.75 11.5625V1.5625C33.75 0.699531 33.0503 0 32.1875 0Z" transform="translate(16.9336 36.8747)" fill="#5da689"/>
<path fill-rule="evenodd" clip-rule="evenodd" d="M1.5625 3.125C1.97344 3.125 2.37656 2.95781 2.66719 2.66703C2.95766 2.37656 3.125 1.97344 3.125 1.5625C3.125 1.15156 2.95781 0.748438 2.66719 0.457812C2.37656 0.165625 1.97344 0 1.5625 0C1.14984 0 0.748438 0.165625 0.457812 0.457812C0.165625 0.748438 0 1.15156 0 1.5625C0 1.97344 0.165625 2.37656 0.457812 2.66703C0.748438 2.95781 1.14984 3.125 1.5625 3.125Z" transform="translate(29.3281 41.875)" fill="white"/>
<path fill-rule="evenodd" clip-rule="evenodd" d="M1.5625 3.125C1.97344 3.125 2.37656 2.95781 2.66719 2.66703C2.95766 2.37656 3.125 1.97344 3.125 1.5625C3.125 1.15156 2.95781 0.748438 2.66719 0.457812C2.375 0.165625 1.97344 0 1.5625 0C1.14984 0 0.748438 0.165625 0.457812 0.457812C0.165625 0.748438 0 1.15 0 1.5625C0 1.97344 0.165625 2.37656 0.457812 2.66703C0.748438 2.95781 1.14984 3.125 1.5625 3.125Z" transform="translate(35.1484 41.875)" fill="white"/>
<path fill-rule="evenodd" clip-rule="evenodd" d="M1.5625 3.125C1.97344 3.125 2.375 2.95781 2.66719 2.66703C2.95766 2.37656 3.125 1.97344 3.125 1.5625C3.125 1.15156 2.95781 0.748438 2.66719 0.457812C2.37656 0.167187 1.97344 0 1.5625 0C1.14984 0 0.748438 0.167031 0.457812 0.457812C0.165625 0.748438 0 1.15156 0 1.5625C0 1.97344 0.165625 2.37656 0.457812 2.66703C0.748438 2.95781 1.14984 3.125 1.5625 3.125Z" transform="translate(40.9688 41.875)" fill="white"/>
<path fill-rule="evenodd" clip-rule="evenodd" d="M1.5625 3.125C1.97344 3.125 2.37656 2.95781 2.66719 2.66703C2.95766 2.37656 3.125 1.97344 3.125 1.5625C3.125 1.15156 2.95781 0.748438 2.66719 0.457812C2.37656 0.165625 1.97344 0 1.5625 0C1.14984 0 0.748438 0.165625 0.457812 0.457812C0.165625 0.748438 0 1.15 0 1.5625C0 1.97344 0.165625 2.37656 0.457812 2.66703C0.748438 2.95781 1.14984 3.125 1.5625 3.125Z" transform="translate(23.5078 41.875)" fill="white"/>
<path fill-rule="evenodd" clip-rule="evenodd" d="M3.125 10H30.625V3.125H3.125V10ZM33.75 1.5625C33.75 0.699531 33.0503 0 32.1875 0H1.5625C0.699687 0 0 0.699531 0 1.5625V11.5625C0 12.4255 0.699687 13.125 1.5625 13.125H32.1875C33.0503 13.125 33.75 12.4255 33.75 11.5625V1.5625Z" transform="translate(16.9336 20.6696)" fill="white"/>
<path fill-rule="evenodd" clip-rule="evenodd" d="M1.5625 3.125C1.97344 3.125 2.37656 2.95781 2.66719 2.66719C2.95766 2.375 3.125 1.97344 3.125 1.56094C3.125 1.15 2.95781 0.748438 2.66719 0.45625C2.37656 0.165625 1.97344 0 1.5625 0C1.14984 0 0.748438 0.165625 0.457812 0.45625C0.165625 0.746875 0 1.15 0 1.56094C0 1.97344 0.165625 2.375 0.457812 2.66719C0.748438 2.95781 1.15156 3.125 1.5625 3.125Z" transform="translate(29.3281 25.6703)" fill="white"/>
<path fill-rule="evenodd" clip-rule="evenodd" d="M1.5625 3.125C1.97344 3.125 2.375 2.95938 2.66719 2.66875C2.95766 2.37656 3.125 1.97344 3.125 1.5625C3.125 1.15156 2.95781 0.75 2.66719 0.457812C2.37656 0.167187 1.97344 0 1.5625 0C1.14984 0 0.748438 0.167187 0.457812 0.457812C0.165625 0.748438 0 1.15156 0 1.5625C0 1.975 0.165625 2.37656 0.457812 2.66875C0.748438 2.95938 1.14984 3.125 1.5625 3.125Z" transform="translate(35.1484 25.6688)" fill="white"/>
<path fill-rule="evenodd" clip-rule="evenodd" d="M1.5625 3.12344C1.97344 3.12344 2.375 2.95781 2.66719 2.66719C2.95766 2.375 3.125 1.97344 3.125 1.56094C3.125 1.15 2.95781 0.748438 2.66719 0.45625C2.37656 0.165625 1.97344 0 1.5625 0C1.14984 0 0.748438 0.165625 0.457812 0.45625C0.165625 0.748438 0 1.15 0 1.56094C0 1.97344 0.165625 2.375 0.457812 2.66719C0.748438 2.95781 1.15156 3.12344 1.5625 3.12344Z" transform="translate(40.9688 25.6703)" fill="white"/>
<path fill-rule="evenodd" clip-rule="evenodd" d="M1.5625 3.125C1.97344 3.125 2.37656 2.95781 2.66719 2.66563C2.95766 2.375 3.125 1.97344 3.125 1.5625C3.125 1.15 2.95781 0.748438 2.66719 0.45625C2.37656 0.165625 1.97344 0 1.5625 0C1.14984 0 0.748438 0.165625 0.457812 0.45625C0.165625 0.746875 0 1.15 0 1.5625C0 1.97344 0.165625 2.375 0.457812 2.66563C0.748438 2.95781 1.14984 3.125 1.5625 3.125Z" transform="translate(23.5078 25.6703)" fill="white"/>
<path fill-rule="evenodd" clip-rule="evenodd" d="M1.5625 0C1.15156 0 0.748438 0.167187 0.457812 0.457812C0.167187 0.748438 0 1.15156 0 1.5625C0 1.97344 0.167031 2.37656 0.457812 2.66719C0.748594 2.95781 1.15156 3.125 1.5625 3.125C1.97344 3.125 2.37656 2.95781 2.66703 2.66719C2.95922 2.37656 3.125 1.97344 3.125 1.5625C3.125 1.15156 2.95922 0.748438 2.66703 0.457812C2.37656 0.167187 1.97344 0 1.5625 0Z" transform="translate(61.457 8.4375)" fill="white"/>
<path fill-rule="evenodd" clip-rule="evenodd" d="M1.58656 3.125H1.5625C0.699687 3.125 0 2.42531 0 1.5625C0 0.699687 0.699687 0 1.5625 0H1.58656C2.44938 0 3.14906 0.699687 3.14906 1.5625C3.14906 2.42531 2.44953 3.125 1.58656 3.125Z" transform="translate(53.5664 68.4422)" fill="white"/>
<path fill-rule="evenodd" clip-rule="evenodd" d="M73.4356 76.875H53.1328C51.2373 76.875 49.6953 75.333 49.6953 73.4375V65.3125H61.8731C65.4917 65.3125 68.4356 62.3686 68.4356 58.75V19.8434C68.4356 16.2248 65.4917 13.2809 61.8731 13.2809H49.6953V6.5625C49.6953 4.66703 51.2373 3.125 53.1328 3.125H73.4356C75.3311 3.125 76.8731 4.66703 76.8731 6.5625V68.4328L61.0911 68.4403C60.2283 68.4408 59.5289 69.1405 59.5294 70.0036C59.5298 70.8662 60.2292 71.5653 61.0919 71.5653C61.092 71.5653 61.0925 71.5653 61.0927 71.5653L76.8731 71.5578V73.4375C76.8731 75.333 75.3311 76.875 73.4356 76.875ZM46.5703 76.8751H21.875V73.7495H46.5702V76.8751H46.5703ZM29.5352 70.6244H38.9102V65.3125H29.5352V70.6244ZM42.0352 70.6244H46.5703V65.3125H42.0352V70.6244ZM3.125 58.7502V56.2499H65.1697C65.218 56.2499 65.2655 56.2469 65.3125 56.2427V58.7502C65.3125 60.6456 63.7705 62.1877 61.875 62.1877H6.5625C4.66703 62.1877 3.125 60.6456 3.125 58.7502ZM73.4375 0H53.1347C49.5161 0 46.5722 2.94391 46.5722 6.5625V13.2809H34.2188C33.3559 13.2809 32.6562 13.9805 32.6562 14.8434C32.6562 15.7064 33.3559 16.4059 34.2188 16.4059H61.875C63.7705 16.4059 65.3125 17.948 65.3125 19.8434V53.1319C65.2653 53.1277 65.218 53.1247 65.1697 53.1247H3.125V19.8434C3.125 17.948 4.66703 16.4059 6.5625 16.4059H20.2605C21.1233 16.4059 21.823 15.7064 21.823 14.8434C21.823 13.9805 21.1233 13.2809 20.2605 13.2809H6.5625C2.94391 13.2809 0 16.2248 0 19.8434V58.75C0 62.3686 2.94391 65.3125 6.5625 65.3125H26.4119V70.6244H20.3144C19.4516 70.6244 18.7519 71.3241 18.7519 72.1869V78.4375C18.7519 79.3003 19.4516 80 20.3144 80H48.1347C48.8122 80 49.3873 79.568 49.6039 78.9648C50.6242 79.6189 51.8353 80 53.1347 80H73.4375C77.0561 80 80 77.0561 80 73.4375V6.5625C80 2.94391 77.0561 0 73.4375 0Z" fill="#5da689"/>
</svg>
