<svg width="80" height="80" viewBox="0 0 80 80" fill="none" xmlns="http://www.w3.org/2000/svg">
<path fill-rule="evenodd" clip-rule="evenodd" d="M65.332 13.3332H77.332V10.6665H65.332V13.3332ZM52 17.3332H62.6667V10.6665H52V17.3332ZM22.668 13.3332H49.3346V10.6665H22.668V13.3332ZM48 28.0002H66.6667V25.3335H48V28.0002ZM48 47.9998H66.6667V30.6665H48V47.9998ZM9.33203 17.3332H19.9987V6.6665H9.33203V17.3332ZM13.332 50.6667H15.9987V20H13.332V50.6667ZM8 72.0002H21.3333V53.3335H8V72.0002ZM5.33203 77.3332H23.9987V74.6665H5.33203V77.3332ZM13.332 3.99984H15.9987V2.6665H13.332V3.99984ZM2.66797 13.3332H6.66797V10.6665H2.66797V13.3332ZM80 14.6667V9.33333C80 8.597 79.403 8 78.6667 8H22.6667V5.33333C22.6667 4.597 22.0697 4 21.3333 4H18.6667V1.33333C18.6667 0.597 18.0697 0 17.3333 0H12C11.2637 0 10.6667 0.597 10.6667 1.33333V4H8C7.26367 4 6.66667 4.597 6.66667 5.33333V8H1.33333C0.597 8 0 8.597 0 9.33333V14.6667C0 15.403 0.597 16 1.33333 16H6.66667V18.6667C6.66667 19.403 7.26367 20 8 20H10.6667V50.6667H6.66667C5.93033 50.6667 5.33333 51.2637 5.33333 52V72H4C3.26367 72 2.66667 72.597 2.66667 73.3333V78.6667C2.66667 79.403 3.26367 80 4 80H25.3333C26.0697 80 26.6667 79.403 26.6667 78.6667V73.3333C26.6667 72.597 26.0697 72 25.3333 72H24V52C24 51.2637 23.403 50.6667 22.6667 50.6667H18.6667V20H21.3333C22.0697 20 22.6667 19.403 22.6667 18.6667V16H49.3333V18.6667C49.3333 19.403 49.9303 20 50.6667 20H56V22.6667H46.6667C45.9303 22.6667 45.3333 23.2637 45.3333 24V49.3333C45.3333 50.0697 45.9303 50.6667 46.6667 50.6667H68C68.7363 50.6667 69.3333 50.0697 69.3333 49.3333V24C69.3333 23.2637 68.7363 22.6667 68 22.6667H58.6667V20H64C64.7363 20 65.3333 19.403 65.3333 18.6667V16H78.6667C79.403 16 80 15.403 80 14.6667Z" fill="#5da689"/>
<path fill-rule="evenodd" clip-rule="evenodd" d="M0 12H2.66667V0H0V12Z" transform="translate(50.668 33.3333)" fill="white"/>
<path fill-rule="evenodd" clip-rule="evenodd" d="M0 12H2.66667V0H0V12Z" transform="translate(56 33.3333)" fill="white"/>
<path fill-rule="evenodd" clip-rule="evenodd" d="M0 12H2.66667V0H0V12Z" transform="translate(61.332 33.3333)" fill="white"/>
<path fill-rule="evenodd" clip-rule="evenodd" d="M2.66797 19.9998V14.6665H21.3346V19.9998H18.668V17.3332H16.0013V19.9998H8.05597L8.0013 17.3052L5.33464 17.3612L5.38797 19.9998H2.66797ZM2.66797 11.9998H21.3346V2.6665H2.66797V11.9998ZM18.6667 26.6667H21.3333V22.6667H22.6667C23.403 22.6667 24 22.0697 24 21.3333V1.33333C24 0.597 23.403 0 22.6667 0H1.33333C0.597 0 0 0.597 0 1.33333V21.3333C0 22.0697 0.597 22.6667 1.33333 22.6667H2.66667V26.6667H5.33333V22.6667H18.6667V26.6667Z" transform="translate(45.332 53.3333)" fill="white"/>
<path fill-rule="evenodd" clip-rule="evenodd" d="M0 2.66667H8V0H0V2.66667Z" transform="translate(54.668 60)" fill="white"/>
<path fill-rule="evenodd" clip-rule="evenodd" d="M0 2.66667H2.66667V0H0V2.66667Z" transform="translate(16 56)" fill="white"/>
<path fill-rule="evenodd" clip-rule="evenodd" d="M0 2.66667H5.33333V0H0V2.66667Z" transform="translate(12 10.6667)" fill="white"/>
<path fill-rule="evenodd" clip-rule="evenodd" d="M0 2.66667H2.66667V0H0V2.66667Z" transform="translate(16 61.3333)" fill="white"/>
<path fill-rule="evenodd" clip-rule="evenodd" d="M0 2.66667H2.66667V0H0V2.66667Z" transform="translate(16 66.6667)" fill="white"/>
<path fill-rule="evenodd" clip-rule="evenodd" d="M0 2.66667H2.66667V0H0V2.66667Z" transform="translate(10.668 56)" fill="white"/>
<path fill-rule="evenodd" clip-rule="evenodd" d="M0 2.66667H2.66667V0H0V2.66667Z" transform="translate(10.668 61.3333)" fill="white"/>
<path fill-rule="evenodd" clip-rule="evenodd" d="M0 2.66667H2.66667V0H0V2.66667Z" transform="translate(10.668 66.6667)" fill="white"/>
</svg>
