<svg width="81" height="80" viewBox="0 0 81 80" fill="none" xmlns="http://www.w3.org/2000/svg">
<path fill-rule="evenodd" clip-rule="evenodd" d="M3.46875 55.4841L5.47907 48.786C6.17972 46.4506 8.10488 44.728 10.5049 44.2931L16.092 43.2777L19.2365 52.7125L24.9604 46.986L30.6855 52.7112L33.83 43.2764L39.4171 44.2919C41.8158 44.728 43.7423 46.4506 44.4429 48.7848L46.452 55.4841H3.46875ZM14.6367 28.3869V21.8759C17.8225 21.5804 20.7787 20.1985 23.0703 17.9082L23.5722 17.4062C26.1593 20.2617 29.8857 21.9353 33.7709 21.9353H35.2819V28.3869C35.2819 34.0785 30.6509 38.7095 24.9593 38.7095C19.2677 38.7095 14.6367 34.0785 14.6367 28.3869ZM12.0559 19.3548V20.8283C11.5966 20.9483 11.1656 21.129 10.7656 21.3625V15.8877C10.7656 8.55089 16.7347 2.58057 24.0727 2.58057C27.6263 2.58057 30.9695 3.96508 33.483 6.47863L34.6211 7.61799L34.9682 7.70315C37.4327 8.31863 39.1527 10.5225 39.1527 13.0619V21.3625C38.7527 21.129 38.3218 20.947 37.8624 20.8283V19.3548H33.7708C30.274 19.3548 26.9321 17.6851 24.8353 14.889L23.8095 13.5186L21.2456 16.0838C19.1347 18.1935 16.3295 19.3548 13.3463 19.3548H12.0559ZM10.7656 25.8064C10.7656 24.8554 11.2882 24.0322 12.0559 23.5845V28.0283C11.2882 27.5806 10.7656 26.7574 10.7656 25.8064ZM37.8633 28.0283V23.5845C38.631 24.0322 39.1536 24.8554 39.1536 25.8064C39.1536 26.7574 38.631 27.5806 37.8633 28.0283ZM30.4432 42.6606L31.2638 42.8103L29.5554 47.9342L26.9219 45.3019L30.4432 42.6606ZM24.9605 43.5482L21.1992 40.7275C22.3902 41.0914 23.6521 41.2901 24.9605 41.2901C26.2689 41.2901 27.5308 41.0914 28.7218 40.7275L24.9605 43.5482ZM19.4743 42.6606L22.9943 45.3006L20.3607 47.9329L18.6523 42.809L19.4743 42.6606ZM46.9148 48.0439C45.9329 44.7742 43.2374 42.3639 39.8787 41.7535L31.4116 40.2129V39.5445C34.5781 37.7058 36.8968 34.569 37.6194 30.8606C39.9652 30.3755 41.7342 28.2942 41.7342 25.8065V13.0619C41.7342 9.46065 39.3755 6.32 35.9535 5.29806L35.3084 4.6529C32.3071 1.65161 28.3174 0 24.0735 0C15.3135 0 8.18581 7.12645 8.18581 15.8877V25.8065C8.18581 28.2942 9.95484 30.3755 12.3006 30.8606C13.0245 34.569 15.3419 37.7071 18.5084 39.5445V40.2129L10.0413 41.7523C6.68258 42.3639 3.9871 44.7742 3.00516 48.0439L0 58.0645H49.92L46.9148 48.0439Z" transform="translate(30.5234 21.9355)" fill="#5da689"/>
<path fill-rule="evenodd" clip-rule="evenodd" d="M2.58203 14.6683L5.50719 13.889L5.72268 13.218C5.90719 12.6451 6.15106 12.0593 6.44913 11.4786L6.77042 10.8515L5.25042 8.22702L8.22848 5.24766L10.8543 6.76895L11.4814 6.44766C12.0569 6.15218 12.6427 5.90702 13.2207 5.71992L13.8904 5.50444L14.6698 2.58057H18.8814L19.6607 5.50444L20.3304 5.71992C20.9085 5.90831 21.4943 6.15218 22.0698 6.44766L22.6969 6.76895L25.3227 5.24766L28.3007 8.22702L26.7807 10.8515L27.102 11.4786C27.4001 12.058 27.644 12.6438 27.8285 13.218L28.044 13.889L30.9691 14.6683V18.8799L28.044 19.6593L27.8285 20.3302C27.644 20.9031 27.4001 21.489 27.102 22.0696L26.7807 22.6967L28.3007 25.3212L25.3227 28.3006L22.6969 26.7793L22.0698 27.1006C21.4943 27.3961 20.9085 27.6412 20.3304 27.8283L19.6607 28.0438L18.8814 30.9677H14.6698L13.8904 28.0438L13.2207 27.8283C12.6427 27.6399 12.0569 27.3961 11.4814 27.1006L10.8543 26.7793L8.22848 28.3006L5.25042 25.3212L6.77042 22.6967L6.44913 22.0696C6.15106 21.4902 5.90719 20.9044 5.72268 20.3302L5.50719 19.6593L2.58203 18.8799V14.6683ZM3.84129 22.6052L2.02323 25.7458L7.80387 31.5265L10.9445 29.7084C11.2129 29.831 11.4826 29.9432 11.751 30.0465L12.6865 33.5484H20.8619L21.7974 30.0452C22.0671 29.9419 22.3355 29.8297 22.6039 29.7071L25.7445 31.5252L31.5252 25.7445L29.7071 22.6039C29.8297 22.3342 29.9432 22.0645 30.0452 21.7948L33.5484 20.8632V12.6852L30.0465 11.7523C29.9432 11.4826 29.831 11.2129 29.7084 10.9432L31.5265 7.80258L25.7458 2.02194L22.6052 3.84C22.3368 3.71742 22.0671 3.60516 21.7987 3.50194L20.8619 0H12.6865L11.751 3.50323C11.4813 3.60645 11.2129 3.71871 10.9445 3.84129L7.80387 2.02194L2.02323 7.80258L3.84129 10.9432C3.71742 11.2129 3.60516 11.4826 3.50194 11.7523L0 12.6852V20.8632L3.50194 21.7961C3.60516 22.0658 3.71742 22.3355 3.84129 22.6052Z" fill="#5da689"/>
<path fill-rule="evenodd" clip-rule="evenodd" d="M9.03226 18.0645C11.0452 18.0645 12.9484 17.4181 14.5381 16.1935L12.9639 14.1497C11.8284 15.0232 10.4697 15.4839 9.03226 15.4839C5.47484 15.4839 2.58065 12.5897 2.58065 9.03226C2.58065 5.47484 5.47484 2.58065 9.03226 2.58065C12.5897 2.58065 15.4839 5.47484 15.4839 9.03226C15.4839 10.4323 15.0439 11.7626 14.2116 12.88L16.2813 14.4219C17.4477 12.8555 18.0645 10.9923 18.0645 9.03226C18.0645 4.0529 14.0129 0 9.03226 0C4.05161 0 0 4.0529 0 9.03226C0 14.0116 4.05161 18.0645 9.03226 18.0645Z" transform="translate(7.74219 7.74194)" fill="#5da689"/>
<path fill-rule="evenodd" clip-rule="evenodd" d="M18.0645 12.9032V17.5303L16.3961 15.8619L14.5716 17.6865L19.3548 22.4697L24.1381 17.6865L22.3135 15.8619L20.6452 17.5303V12.9032C20.6452 5.78839 14.8568 0 7.74194 0H0V2.58065H7.74194C13.4335 2.58065 18.0645 7.21161 18.0645 12.9032Z" transform="translate(55.4844)" fill="white"/>
<path fill-rule="evenodd" clip-rule="evenodd" d="M6.07355 9.56645V4.93935L7.74194 6.60774L9.56645 4.78323L4.78323 0L0 4.78323L1.82452 6.60774L3.4929 4.93935V9.56645C3.4929 16.6813 9.28129 22.4697 16.3961 22.4697V19.889C10.7045 19.889 6.07355 15.2581 6.07355 9.56645Z" transform="translate(0.378906 57.5303)" fill="white"/>
<path fill-rule="evenodd" clip-rule="evenodd" d="M0 2.58065H33.5484V0H0V2.58065Z" transform="translate(0 38.7097)" fill="white"/>
<path fill-rule="evenodd" clip-rule="evenodd" d="M0 2.58065H33.5484V0H0V2.58065Z" transform="translate(0 49.0322)" fill="white"/>
<path fill-rule="evenodd" clip-rule="evenodd" d="M0 2.58065H15.4839V0H0V2.58065Z" transform="translate(0 43.871)" fill="white"/>
<path fill-rule="evenodd" clip-rule="evenodd" d="M0 2.58065H15.4839V0H0V2.58065Z" transform="translate(18.0664 43.871)" fill="white"/>
<path fill-rule="evenodd" clip-rule="evenodd" d="M0 2.57419H2.58065V0H0V2.57419Z" transform="translate(50.3242 0.00646973)" fill="white"/>
<path fill-rule="evenodd" clip-rule="evenodd" d="M0 2.57419H2.58065V0H0V2.57419Z" transform="translate(45.1602 0.00646973)" fill="white"/>
<path fill-rule="evenodd" clip-rule="evenodd" d="M0 2.58065H2.58065V0H0V2.58065Z" transform="translate(19.3555 77.4194)" fill="white"/>
<path fill-rule="evenodd" clip-rule="evenodd" d="M0 2.58065H2.58065V0H0V2.58065Z" transform="translate(24.5156 77.4194)" fill="white"/>
</svg>
