<svg width="66" height="80" viewBox="0 0 66 80" fill="none" xmlns="http://www.w3.org/2000/svg">
<path fill-rule="evenodd" clip-rule="evenodd" d="M3.125 35.4984V16.5359C10.9336 16.2691 18.3055 13.9987 25.0598 9.77617C28.8383 7.41289 31.4361 5.04055 32.8202 3.70898C36.097 6.96367 45.4434 16.0121 62.5 16.5384V35.4984C62.5 44.6618 59.6092 53.3912 54.1403 60.7421C48.28 68.6168 40.7219 74.3043 32.8125 76.8026C24.9031 74.3043 17.345 68.6168 11.4848 60.7423C6.01578 53.3912 3.125 44.6618 3.125 35.4984ZM32.3634 79.9341C32.5098 79.978 32.6613 80 32.8125 80C32.9637 80 33.1152 79.978 33.2616 79.9341C41.9727 77.32 50.2778 71.1667 56.6473 62.6077C62.5206 54.7133 65.625 45.3391 65.625 35.4984V15C65.625 14.137 64.9255 13.4375 64.0625 13.4375C47.0356 13.4375 37.8855 4.33906 34.8786 1.34922C34.2666 0.740469 33.9592 0.435 33.6355 0.234375C33.1311 -0.078125 32.4934 -0.078125 31.9892 0.234375C31.7666 0.372344 31.5872 0.5475 31.1539 0.970937C30.0406 2.05844 27.4338 4.60547 23.4028 7.12656C16.7045 11.3142 9.35625 13.4375 1.5625 13.4375C0.699531 13.4375 0 14.137 0 15V35.4984C0 45.3391 3.10438 54.7133 8.97781 62.6078C15.3472 71.1667 23.6523 77.32 32.3634 79.9341Z" fill="#45d2c9"/>
<path fill-rule="evenodd" clip-rule="evenodd" d="M26.0406 64.19C26.2094 64.2499 26.3859 64.2797 26.5625 64.2797C26.7391 64.2797 26.9156 64.2499 27.0844 64.19C34.0942 61.7061 40.4214 56.8666 45.3816 50.1955C50.4473 43.3894 53.125 35.3064 53.125 26.8204V12.2329C53.125 11.4364 52.5261 10.7675 51.7345 10.6799C43.1344 9.72786 34.9753 6.2477 27.4836 0.33598C26.9227 -0.106676 26.1333 -0.112457 25.5661 0.321762C18.1456 6.00098 9.555 9.66848 1.37656 10.6486C0.591094 10.7429 0 11.4091 0 12.2V18.8219C0 19.6849 0.699531 20.3844 1.5625 20.3844C2.42547 20.3844 3.125 19.6849 3.125 18.8219V13.5641C9.06953 12.6591 17.5105 10.1408 26.5014 3.52676C33.793 9.05176 41.6867 12.4389 50 13.6111V26.8205C50 34.6294 47.5361 42.0671 42.8742 48.3304C38.4095 54.3352 32.7791 58.7247 26.5625 61.0544C20.3463 58.7249 14.7164 54.3364 10.2519 48.3329C6.49047 43.2789 4.11359 37.331 3.37812 31.1318C3.27656 30.2749 2.49984 29.6611 1.6425 29.7643C0.785625 29.8658 0.173281 30.643 0.275 31.4999C1.07469 38.2411 3.65781 44.7069 7.74469 50.1982C12.7047 56.868 19.0312 61.7063 26.0406 64.19Z" transform="translate(6.25 8.6781)" fill="white"/>
<path fill-rule="evenodd" clip-rule="evenodd" d="M21.6031 17.5436C21.2348 17.9025 21.0667 18.4197 21.1537 18.9266L22.2809 25.5009L16.3787 22.3969C15.9234 22.1575 15.3795 22.1575 14.9242 22.3969L9.02031 25.5014L10.1477 18.9267C10.2347 18.4198 10.0666 17.9027 9.69828 17.5438L4.92188 12.8881L11.523 11.9292C12.0319 11.8553 12.4719 11.5356 12.6995 11.0745L15.6512 5.09375L18.6019 11.0744C18.8294 11.5356 19.2694 11.8555 19.7784 11.9294L26.3795 12.8883L21.6031 17.5436ZM31.2218 11.3141C31.0379 10.7484 30.549 10.3361 29.9604 10.2506L21.0392 8.95469L17.051 0.87125C16.7879 0.337812 16.2446 0.00015625 15.6499 0C15.0552 0 14.512 0.337656 14.2488 0.870938L10.2593 8.95469L1.3379 10.2506C0.749306 10.3361 0.2604 10.7484 0.0764934 11.3141C-0.107257 11.8797 0.0460247 12.5006 0.471962 12.9158L6.92743 19.2081L5.40384 28.0938C5.30321 28.6798 5.54431 29.2723 6.02556 29.6219C6.29774 29.8197 6.62009 29.9203 6.94399 29.9203C7.19274 29.9203 7.44243 29.8611 7.67102 29.7408L15.6499 25.545L23.6273 29.7406C24.1538 30.0173 24.7918 29.9716 25.2729 29.6219C25.7542 29.2723 25.9952 28.6798 25.8946 28.0936L24.371 19.208L30.8265 12.9156C31.2523 12.5008 31.4056 11.8798 31.2218 11.3141Z" transform="translate(17.1016 22.9373)" fill="#45d2c9"/>
</svg>
