<?xml version="1.0" encoding="UTF-8"?>
<svg width="62px" height="70px" viewBox="0 0 62 70" version="1.1" xmlns="http://www.w3.org/2000/svg" xmlns:xlink="http://www.w3.org/1999/xlink">
    <!-- Generator: sketchtool 50.2 (55047) - http://www.bohemiancoding.com/sketch -->
    <title>AFD05B9C-3E6A-469C-82FB-5F67C03E650B</title>
    <desc>Created with sketchtool.</desc>
    <defs></defs>
    <g id="Page-1" stroke="none" stroke-width="1" fill="none" fill-rule="evenodd" stroke-linecap="round" stroke-linejoin="round">
        <g id="2-Преимущества" transform="translate(-604.000000, -170.000000)" stroke="#009ED7" stroke-width="2">
            <g id="06" transform="translate(527.000000, 35.000000)">
                <g id="Page-1" transform="translate(78.000000, 136.000000)">
                    <polygon id="Stroke-1" points="0 28 20 28 20 8 0 8"></polygon>
                    <polygon id="Stroke-3" points="20 28 40 28 40 8 20 8"></polygon>
                    <g id="Group-7" transform="translate(0.000000, 8.000000)">
                        <polygon id="Stroke-4" points="40 20 60 20 60 0 40 0"></polygon>
                        <polygon id="Stroke-6" points="0 40 20 40 20 20 0 20"></polygon>
                    </g>
                    <polygon id="Stroke-8" points="20 48 40 48 40 28 20 28"></polygon>
                    <g id="Group-15">
                        <polygon id="Stroke-9" points="40 48 60 48 60 28 40 28"></polygon>
                        <polygon id="Stroke-11" points="0 68 20 68 20 48 0 48"></polygon>
                        <polygon id="Stroke-12" points="20 68 40 68 40 48 20 48"></polygon>
                        <polygon id="Stroke-13" points="40 68 60 68 60 48 40 48"></polygon>
                        <polygon id="Stroke-14" points="0 8 60 8 60 0 0 0"></polygon>
                    </g>
                    <polyline id="Stroke-16" points="53.7497 35.4946 49.9997 40.5056 46.2497 35.4946"></polyline>
                </g>
            </g>
        </g>
    </g>
</svg>