<?xml version="1.0" encoding="UTF-8"?>
<svg width="62px" height="82px" viewBox="0 0 62 82" version="1.1" xmlns="http://www.w3.org/2000/svg" xmlns:xlink="http://www.w3.org/1999/xlink">
    <!-- Generator: sketchtool 46.2 (44496) - http://www.bohemiancoding.com/sketch -->
    <title>F73D5ECE-BC52-416B-9068-F3356473A605</title>
    <desc>Created with sketchtool.</desc>
    <defs></defs>
    <g id="Page-1" stroke="none" stroke-width="1" fill="none" fill-rule="evenodd" stroke-linecap="round" stroke-linejoin="round">
        <g id="3-экран" transform="translate(-178.000000, -491.000000)" stroke-width="2" stroke="#009ED7">
            <g id="01" transform="translate(100.000000, 376.000000)">
                <g id="Page-1" transform="translate(79.000000, 116.000000)">
                    <polygon id="Stroke-1" points="0 80 60 80 60 0 0 0"></polygon>
                    <polygon id="Stroke-3" points="8 23 23 23 23 8 8 8"></polygon>
                    <polygon id="Stroke-4" points="8 47 23 47 23 32 8 32"></polygon>
                    <polyline id="Stroke-5" points="20 38 16 43 12 38"></polyline>
                    <polyline id="Stroke-6" points="20 62 16 67 12 62"></polyline>
                    <polygon id="Stroke-7" points="8 71 23 71 23 56 8 56"></polygon>
                    <path d="M32,12 L47,12" id="Stroke-8"></path>
                    <path d="M32,19 L53,19" id="Stroke-9"></path>
                    <path d="M32,36 L47,36" id="Stroke-10"></path>
                    <path d="M32,43 L53,43" id="Stroke-11"></path>
                    <path d="M32,61 L47,61" id="Stroke-12"></path>
                    <path d="M32,68 L53,68" id="Stroke-13"></path>
                </g>
            </g>
        </g>
    </g>
</svg>