<?xml version="1.0" encoding="UTF-8"?>
<svg width="77px" height="79px" viewBox="0 0 77 79" version="1.1" xmlns="http://www.w3.org/2000/svg" xmlns:xlink="http://www.w3.org/1999/xlink">
    <!-- Generator: sketchtool 46.2 (44496) - http://www.bohemiancoding.com/sketch -->
    <title>48D434F8-F5CB-407E-B3C9-893C82E7E0B0</title>
    <desc>Created with sketchtool.</desc>
    <defs></defs>
    <g id="Page-1" stroke="none" stroke-width="1" fill="none" fill-rule="evenodd">
        <g id="3-экран" transform="translate(-1063.000000, -493.000000)">
            <g id="03" transform="translate(1000.000000, 376.000000)">
                <g id="Page-1" transform="translate(64.000000, 118.000000)">
                    <path d="M51,38 L59,38" id="Stroke-1" stroke="#009ED7" stroke-width="2" stroke-linecap="round" stroke-linejoin="round"></path>
                    <g id="Group-34">
                        <path d="M47.2746,27.5947 C52.8586,33.1787 52.8586,42.2327 47.2746,47.8167 C41.6906,53.4007 32.6376,53.4007 27.0526,47.8167 C21.4686,42.2327 21.4686,33.1787 27.0526,27.5947 C32.6376,22.0107 41.6906,22.0107 47.2746,27.5947 Z" id="Stroke-2" stroke="#009ED7" stroke-width="2" stroke-linecap="round" stroke-linejoin="round"></path>
                        <path d="M72.1516,32.4502 C75.0536,35.3522 75.0536,40.0582 72.1516,42.9612 C69.2486,45.8642 64.5426,45.8642 61.6396,42.9612 C58.7376,40.0582 58.7376,35.3522 61.6396,32.4502 C64.5426,29.5472 69.2486,29.5472 72.1516,32.4502 Z" id="Stroke-4" stroke="#009ED7" stroke-width="2" stroke-linecap="round" stroke-linejoin="round"></path>
                        <path d="M22.8654,37.7055 L14.8654,37.7055" id="Stroke-6" stroke="#009ED7" stroke-width="2" stroke-linecap="round" stroke-linejoin="round"></path>
                        <path d="M2.177,42.9614 C-0.725,40.0584 -0.725,35.3524 2.177,32.4504 C5.079,29.5474 9.785,29.5474 12.689,32.4504 C15.591,35.3524 15.591,40.0584 12.689,42.9614 C9.785,45.8644 5.079,45.8644 2.177,42.9614 Z" id="Stroke-8" stroke="#009ED7" stroke-width="2" stroke-linecap="round" stroke-linejoin="round"></path>
                        <path d="M12.011,10.3042 L21.249,19.5422" id="Stroke-10" stroke="#009ED7" stroke-width="2" stroke-linecap="round" stroke-linejoin="round"></path>
                        <polygon id="Fill-12" fill="#009ED7" points="16.0344 19.123 20.8314 19.124 20.8294 14.328 22.8654 16.364 22.8654 21.159 18.0704 21.159"></polygon>
                        <path d="M53.0793,19.5424 L62.3173,10.3044" id="Stroke-14" stroke="#009ED7" stroke-width="2" stroke-linecap="round" stroke-linejoin="round"></path>
                        <polygon id="Fill-16" fill="#009ED7" points="58.2942 19.123 53.4972 19.124 53.4982 14.328 51.4632 16.364 51.4632 21.159 56.2582 21.159"></polygon>
                        <path d="M12.011,67.6054 L21.249,58.3674" id="Stroke-18" stroke="#009ED7" stroke-width="2" stroke-linecap="round" stroke-linejoin="round"></path>
                        <polygon id="Fill-20" fill="#009ED7" points="20.8293 63.5815 20.8313 58.7855 16.0343 58.7865 18.0703 56.7505 22.8653 56.7505 22.8653 61.5455"></polygon>
                        <path d="M37.1643,13.9746 L37.1643,0.9096" id="Stroke-22" stroke="#009ED7" stroke-width="2" stroke-linecap="round" stroke-linejoin="round"></path>
                        <polygon id="Fill-24" fill="#009ED7" points="40.5549 9.9907 37.1639 13.3837 33.7739 9.9907 33.7739 12.8697 37.1639 16.2607 40.5549 12.8697"></polygon>
                        <path d="M37.1643,77 L37.1643,63.935" id="Stroke-26" stroke="#009ED7" stroke-width="2" stroke-linecap="round" stroke-linejoin="round"></path>
                        <polygon id="Fill-28" fill="#009ED7" points="40.5549 67.9189 37.1639 64.5259 33.7739 67.9189 33.7739 65.0399 37.1639 61.6489 40.5549 65.0399"></polygon>
                        <path d="M53.0793,58.3672 L62.3173,67.6052" id="Stroke-30" stroke="#009ED7" stroke-width="2" stroke-linecap="round" stroke-linejoin="round"></path>
                        <polygon id="Fill-32" fill="#009ED7" points="53.4983 63.5815 53.4973 58.7855 58.2943 58.7865 56.2583 56.7505 51.4633 56.7505 51.4633 61.5455"></polygon>
                    </g>
                </g>
            </g>
        </g>
    </g>
</svg>